<?xml version="1.0" standalone="no"?>
<!DOCTYPE svg PUBLIC "-//W3C//DTD SVG 1.1//EN" "http://www.w3.org/Graphics/SVG/1.1/DTD/svg11.dtd" >
<svg xmlns="http://www.w3.org/2000/svg" xmlns:xlink="http://www.w3.org/1999/xlink" version="1.1">
<metadata>
Created by FontForge 20190801 at Mon Dec 22 16:35:42 2014
 By Jimmy Wärting
Copyright 2010 URW++ Design &#38; Development Hamburg
</metadata>
<defs>
<font id="NeuzeitGroteskCondW01-Black" horiz-adv-x="513" >
  <font-face 
    font-family="NeuzeitGroteskCondW01-Black"
    font-weight="900"
    font-stretch="normal"
    units-per-em="1000"
    panose-1="1 0 0 0 0 0 0 0 0 0"
    ascent="800"
    descent="-200"
    x-height="490"
    cap-height="667"
    bbox="-27 -183.001 916.999 885"
    underline-thickness="50"
    underline-position="-175"
    unicode-range="U+0020-2122"
  />
<missing-glyph horiz-adv-x="291" 
 />
    <glyph glyph-name=".notdef" horiz-adv-x="291" 
 />
    <glyph glyph-name="space" unicode=" " horiz-adv-x="291" 
 />
    <glyph glyph-name="exclam" unicode="!" horiz-adv-x="370" 
d="M261 210h-120l-15 457h150zM201 157c12 0 23 -2.16699 33 -6.5s18.833 -10.333 26.5 -18s13.667 -16.5 18 -26.5s6.5 -20.667 6.5 -32c0 -23.333 -8.16699 -43.166 -24.5 -59.499c-16.334 -16.333 -36.167 -24.5 -59.5 -24.5s-43 8.16699 -59 24.5s-24 36.166 -24 59.499
c0 22.667 8.16699 42.167 24.5 58.5s35.833 24.5 58.5 24.5z" />
    <glyph glyph-name="quotedbl" unicode="&#x22;" horiz-adv-x="273" 
d="M6 347l23.999 181.002c2.66699 18 4.83398 30 6.50098 36s4.5 11.667 8.5 17c9.33301 12.667 22.666 19 39.999 19c11.333 0 20.833 -3.66699 28.5 -11c7.66699 -7.33789 11.5 -16.6709 11.5 -28c0 -6.66699 -1.16699 -13.334 -3.5 -20.001
s-6.16602 -15.334 -11.499 -26.001l-85 -168h-19zM138.999 347.002l25.001 181c2.66797 18 4.83496 30 6.5 36c1.66699 6 4.16699 11.667 7.5 17c9.33301 12.667 22.666 19 39.999 19c11.333 0 20.833 -3.66699 28.5 -11c7.66699 -7.33789 11.5 -16.6709 11.5 -28
c0 -12 -4.66699 -27.333 -14 -46l-86 -168h-19z" />
    <glyph glyph-name="numbersign" unicode="#" 
d="M326 478l26 150h107l-27 -150h57l-18 -100h-56l-20 -113h57l-18 -100h-57l-26 -150h-100l26 150h-96l-27 -150h-100l27 150h-57l18 100h56l20 113h-57l18 100h57l26 150h100l-26 -150h90zM198 265h97l20 113h-97z" />
    <glyph glyph-name="dollar" unicode="$" 
d="M275 389c17.333 -5.33301 31.5 -9.83594 42.5 -13.5029s20.167 -7 27.5 -10s13.5 -5.66699 18.5 -8s10.167 -5.16602 15.5 -8.49902c62 -36.667 93 -90.334 93 -161.001c0 -58.667 -17.167 -105.167 -51.5 -139.5s-82.833 -54.166 -145.5 -59.499v-92h-47v93
c-61.333 4.66699 -109.333 23.667 -144 57s-52.667 77.333 -54 132h133c2 -40.667 23.667 -65.667 65 -75v163c-4 1.33301 -6.83301 2.33301 -8.5 3s-6.16699 2.33398 -13.5 5.00098c-58.667 19.334 -101.667 44.167 -129 74.5s-41 68.5 -41 114.5
c0 40 9.33301 74.833 28 104.5s45.334 52.167 80.001 67.5c12.667 6 25 10.333 37 13s27.667 5 47 7v74h47v-74c30 -1.33301 57 -6.83301 81 -16.5s44.167 -23 60.5 -40c16.334 -17 28.667 -37.167 36.999 -60.5c8.33301 -23.334 11.833 -49.001 10.5 -77h-130
c-0.666992 42.667 -20.334 69.334 -59 80.001v-153zM228 542.997c-38.667 -8 -58 -29.001 -58 -63.001c0 -18.667 3.83301 -32.667 11.5 -42s23.167 -19.666 46.5 -30.999v136zM275 104.996c21.333 5.33301 36.333 13.168 45 23.501s13 25.5 13 45.5
c0 18.667 -4 33.167 -12 43.5s-23.333 21.166 -46 32.499v-145z" />
    <glyph glyph-name="percent" unicode="%" horiz-adv-x="555" 
d="M152 660c18.667 0 36.168 -3.5 52.501 -10.5s30.666 -16.5 42.999 -28.5s22 -26.167 29 -42.5s10.5 -33.833 10.5 -52.5s-3.5 -36 -10.5 -52s-16.5 -30 -28.5 -42s-26.167 -21.5 -42.5 -28.5s-33.833 -10.5 -52.5 -10.5s-36 3.5 -52 10.5s-30 16.667 -42 29
c-12 12.335 -21.5 26.668 -28.5 43c-7 16.333 -10.5 33.833 -10.5 52.5c0 18 3.5 35 10.5 51s16.5 30 28.5 42s26 21.5 42 28.5s33 10.5 51 10.5zM153.001 575c-13.334 0 -24.666 -4.66602 -33.999 -13.999c-9.33301 -9.33789 -14 -20.6709 -14 -34
c0 -13.335 4.66699 -24.835 14 -34.5c9.33301 -9.66699 20.666 -14.5 33.999 -14.5s24.833 4.66699 34.5 14s14.5 20.666 14.5 33.999s-4.83301 24.833 -14.5 34.5s-21.167 14.5 -34.5 14.5zM535.002 667.001l-438 -694h-77l438 694h77zM400.002 257.001
c18.667 0 36.168 -3.49902 52.501 -10.499c16.335 -7 30.668 -16.5 42.999 -28.5c12.333 -12 22 -26.167 29 -42.5s10.5 -33.833 10.5 -52.5c0 -18 -3.5 -35.167 -10.5 -51.5s-16.5 -30.5 -28.5 -42.5s-26.167 -21.5 -42.5 -28.5s-33.833 -10.5 -52.5 -10.5
s-36 3.5 -52 10.5s-30 16.667 -42 29s-21.5 26.666 -28.5 42.999s-10.5 33.833 -10.5 52.5c0 18 3.5 35 10.5 51s16.5 30 28.5 42s26 21.5 42 28.5s33 10.5 51 10.5zM401.003 172.002c-13.333 0 -24.667 -4.66699 -34 -14s-14 -20.666 -14 -33.999s4.66699 -24.833 14 -34.5
c9.33496 -9.66699 20.668 -14.5 34 -14.5c13.333 0 24.833 4.83301 34.5 14.5s14.5 21.167 14.5 34.5s-4.83301 24.666 -14.5 33.999s-21.167 14 -34.5 14z" />
    <glyph glyph-name="ampersand" unicode="&#x26;" horiz-adv-x="695" 
d="M625 197l-84.9971 -76.001l85 -121h-161l-27 43c-49.333 -37.333 -104.333 -56 -165 -56c-30.667 0 -58.334 4.33301 -83.001 13s-45.834 20.834 -63.501 36.501s-31.334 34.5 -41.001 56.5s-14.5 46.667 -14.5 74c0 44 11.667 81 35 111s62 57 116 81
c-10 13.333 -18.167 25.333 -24.5 36s-11.5 20.834 -15.5 30.501s-6.83301 19.167 -8.5 28.5s-2.5 19.333 -2.5 30c0 23.333 4.5 44.833 13.5 64.5s21.667 36.5 38 50.5s36 24.833 59 32.5s48.167 11.5 75.5 11.5c26 0 49.667 -3.83301 71 -11.5
s39.833 -18.334 55.5 -32.001s27.667 -30 36 -49s12.5 -40.167 12.5 -63.5c0 -44 -15 -81.333 -45 -112c-3.33301 -4 -6.83301 -7.5 -10.5 -10.5s-8.16699 -6.5 -13.5 -10.5s-12 -8.66699 -20 -14s-18.333 -12 -31 -20c-1.33301 -1.33301 -4 -3.33301 -8 -6l67 -93l70 71z
M338.003 407.999c14 9.33496 25.165 17.168 33.498 23.5c8.33301 6.33301 14.833 12.333 19.5 18s7.83398 11 9.50098 16s2.5 10.833 2.5 17.5c0 14 -4.83301 25.667 -14.5 35c-9.66797 9.33301 -21.835 14 -36.5 14c-14 0 -25.833 -4 -35.5 -12s-14.5 -17.667 -14.5 -29
c0 -5.33301 0.5 -10.333 1.5 -15s2.83301 -10 5.5 -16s6.33398 -13.167 11.001 -21.5s10.667 -18.5 18 -30.5zM285.001 261.999c-25.333 -13.333 -43.5 -26.332 -54.5 -38.999s-16.5 -27.667 -16.5 -45c0 -19.333 6.5 -35.5 19.5 -48.5s29.833 -19.5 50.5 -19.5
c13.333 0 26.333 2.66699 39 8s26.667 13.666 42 24.999z" />
    <glyph glyph-name="quotesingle" unicode="'" horiz-adv-x="273" 
d="M72 347l24 181.002c2.66699 18 4.83398 30 6.50098 36s4.5 11.667 8.5 17c9.33301 12.667 22.666 19 39.999 19c11.333 0 20.833 -3.66699 28.5 -11c7.66699 -7.33789 11.5 -16.6709 11.5 -28c0 -6.66699 -1.16699 -13.334 -3.5 -20.001
c-2.33398 -6.66699 -6.16699 -15.334 -11.5 -26.001l-85 -168h-19z" />
    <glyph glyph-name="parenleft" unicode="(" horiz-adv-x="326" 
d="M286 590c-64.667 -88 -97 -194.666 -97 -319.999c0 -62 8.16699 -119.833 24.5 -173.5s40.5 -102.167 72.5 -145.5l-112 -86c-44 52 -77.333 112.167 -100 180.5s-34 143.166 -34 224.499c0 82 11.333 157 34 225s56 128 100 180z" />
    <glyph glyph-name="parenright" unicode=")" horiz-adv-x="326" 
d="M40 -49c32 43.333 56.167 91.832 72.5 145.499s24.5 111.5 24.5 173.5c0 62.667 -8.16699 120.834 -24.5 174.501s-40.5 102.167 -72.5 145.5l113 85c44 -52 77.167 -112 99.5 -180s33.5 -143 33.5 -225s-11.167 -157 -33.5 -225s-55.5 -128 -99.5 -180z" />
    <glyph glyph-name="asterisk" unicode="*" horiz-adv-x="451" 
d="M258 574l94 41l25 -81l-99 -24l69 -71l-73 -49l-50 89l-53 -89l-69 49l65 71l-94 20l25 85l92 -41l-7 96h84z" />
    <glyph glyph-name="plus" unicode="+" 
d="M27 268v107h177v177h107v-177h176v-107h-176v-176h-107v176h-177z" />
    <glyph glyph-name="comma" unicode="," horiz-adv-x="270" 
d="M237 127l-83 -227h-127l60 227h150z" />
    <glyph glyph-name="hyphen" unicode="-" horiz-adv-x="373" 
d="M323 327v-137h-273v137h273z" />
    <glyph glyph-name="period" unicode="." horiz-adv-x="280" 
d="M140 157c12 0 23 -2.16699 33 -6.5s18.833 -10.333 26.5 -18s13.667 -16.5 18 -26.5s6.5 -20.667 6.5 -32c0 -23.333 -8.16699 -43.166 -24.5 -59.499c-16.334 -16.333 -36.167 -24.5 -59.5 -24.5s-43 8.16699 -59 24.5s-24 36.166 -24 59.499
c0 22.667 8.16699 42.167 24.5 58.5s35.833 24.5 58.5 24.5z" />
    <glyph glyph-name="slash" unicode="/" horiz-adv-x="360" 
d="M147 0h-107l173 667h107z" />
    <glyph glyph-name="zero" unicode="0" 
d="M257 657c86 0 146.332 -40.002 180.999 -120.002c6 -14 11 -28.333 15 -43s7.16699 -30.5 9.5 -47.5c2.34082 -17 4.17383 -35.667 5.5 -56c1.33301 -20.333 2 -43.166 2 -68.499s-0.666992 -48.166 -2 -68.499s-3.16602 -39 -5.49902 -56s-5.5 -32.833 -9.5 -47.5
s-9 -29 -15 -43c-16.667 -39.333 -40.5 -69.166 -71.5 -89.499s-67.5 -30.5 -109.5 -30.5c-42.667 0 -79.5 10.167 -110.5 30.5s-54.833 50.166 -71.5 89.499c-6 14 -11 28.333 -15 43s-7.33301 30.667 -10 48s-4.5 36.5 -5.5 57.5s-1.5 44.833 -1.5 71.5
c0 48 2.5 88.5 7.5 121.5s13.167 62.5 24.5 88.5c35.333 80 96 120 182 120zM255.999 536.998c-11.333 0 -20.832 -3.16699 -28.499 -9.5s-13.834 -17.333 -18.501 -33c-4.66699 -15.668 -7.83398 -36.835 -9.50098 -63.501c-1.66699 -26.667 -2.5 -60.334 -2.5 -101
c0 -49.333 1 -88.333 3 -117s5 -49.334 9 -62.001c8.66699 -26.667 24.667 -40 48 -40c12 0 21.667 3 29 9s13.333 17 18 33s7.83398 37.833 9.50098 65.5s2.5 62.834 2.5 105.501s-0.833008 77.834 -2.5 105.501c-1.66895 27.667 -4.83594 49.5 -9.5 65.5
c-4.66699 16 -10.834 27 -18.5 33c-7.66699 6 -17.5 9 -29.5 9z" />
    <glyph glyph-name="one" unicode="1" 
d="M351 0l-150.999 0.000976562v469c-22 -14.667 -41.333 -25.834 -58 -33.501s-36.334 -14.5 -59.001 -20.5v122c18.667 6 38 13.5 58 22.5s38.833 18.833 56.5 29.5c17.667 10.6709 33.667 21.8379 48 33.5c14.333 11.667 25.5 23.167 33.5 34.5h72v-657z" />
    <glyph glyph-name="two" unicode="2" 
d="M434 130v-129.998h-400l20 53l191 309c17.333 28 29.5 51 36.5 69s10.5 34.667 10.5 50c0 16.667 -4.83301 30.167 -14.5 40.5s-22.167 15.5 -37.5 15.5c-17.334 0 -31.167 -6.83301 -41.5 -20.5c-10.333 -13.668 -15.5 -32.835 -15.5 -57.501v-16h-138
c0 32 2.66699 59.167 8 81.5s14.333 42.166 27 59.499c16.667 23.333 40.167 41.333 70.5 54s64.5 19 102.5 19c55.334 0 101.667 -15 139 -45c36.667 -30 55 -70.667 55 -122c0 -26.667 -4.5 -52.667 -13.5 -78s-23.833 -53.333 -44.5 -84l-133 -198h178z" />
    <glyph glyph-name="three" unicode="3" 
d="M458 643l-0.00195312 -19.998l-154 -198c20.667 -1.33301 38.334 -4.5 53.001 -9.5s27.667 -12.167 39 -21.5c18 -15.333 32.167 -37 42.5 -65s15.5 -60 15.5 -96c0 -76.667 -19.667 -136.834 -59 -180.501s-94 -65.5 -164 -65.5c-36.667 0 -67.5 5.16699 -92.5 15.5
s-46.5 27.166 -64.5 50.499c-26 32.667 -39 73.334 -39 122.001v15l140 25c1.33301 -73.333 22.333 -110 63 -110c14 0 25.333 4.33301 34 13c10 9.33301 17 21.666 21 36.999s6 37.666 6 66.999c0 19.333 -1 34.5 -3 45.5s-5.33301 20.5 -10 28.5
c-5.33301 8.66699 -12 15.334 -20 20.001s-16.667 7 -26 7c-11.333 0 -21.166 -3 -29.499 -9c-8.33398 -6 -17.167 -16.333 -26.5 -31l-70 69l132 168h-180v123h392z" />
    <glyph glyph-name="four" unicode="4" 
d="M405 227h66v-120h-66v-107h-141v107h-237v110l188 430h190v-420zM264 524h-5l-128 -297h133v297z" />
    <glyph glyph-name="five" unicode="5" 
d="M426 516l-236.002 -0.00195312v-110c15.333 12 30.5 20.667 45.5 26s32.167 8 51.5 8c26.667 0 51 -5.5 73 -16.5s40 -26.5 54 -46.5c11.333 -17.333 19.833 -37.666 25.5 -60.999s8.5 -51.333 8.5 -84c0 -44 -4.83301 -80.667 -14.5 -110s-25.167 -54.666 -46.5 -75.999
c-39.333 -39.333 -94 -59 -164 -59c-55.333 0 -98.666 14 -129.999 42s-49.666 69.333 -54.999 124l139 33v-6c0 -20 5.16699 -36.833 15.5 -50.5s23.5 -20.5 39.5 -20.5c41.333 0 62 39.333 62 118c0 66 -20.667 99 -62 99c-26.667 0 -43.667 -12.333 -51 -37h-107v354h352
v-127z" />
    <glyph glyph-name="six" unicode="6" 
d="M399 652l-147 -225.001c16.667 4.66699 32.667 7 48 7c51.333 0 91.833 -18 121.5 -54s44.5 -85.333 44.5 -148c0 -76.667 -19.667 -136.667 -59 -180s-94.333 -65 -165 -65c-31.333 0 -59.666 5.33301 -84.999 16s-47 25.834 -65 45.501s-31.833 43.5 -41.5 71.5
s-14.5 59.333 -14.5 94c0 20 1.16699 38.667 3.5 56c2.33301 17.334 6.66602 35.167 12.999 53.5s14.833 38.333 25.5 60s24.667 47.167 42 76.5l112 192h167zM252 325.999c-42 0 -63 -35.332 -63 -105.999c0 -39.333 5 -67.833 15 -85.5s25.667 -26.5 47 -26.5
s37 8.66699 47 26s15 44.666 15 81.999c0 73.333 -20.333 110 -61 110z" />
    <glyph glyph-name="seven" unicode="7" 
d="M481 643l-11 -46l-245 -597h-160l13 37l210 476h-239v130h432z" />
    <glyph glyph-name="eight" unicode="8" 
d="M141 359c-30 18 -51.5 36.834 -64.5 56.501s-19.5 43.5 -19.5 71.5c0 25.333 4.83301 48.333 14.5 69s23.334 38.5 41.001 53.5s38.834 26.667 63.501 35s52 12.5 82 12.5s57.167 -4 81.5 -12s45.333 -19.333 63 -34s31.167 -32.5 40.5 -53.5s14 -44.167 14 -69.5
c0 -28.667 -6.5 -52.834 -19.5 -72.501s-34.5 -38.5 -64.5 -56.5c34.667 -16.667 60 -37.5 76 -62.5s24 -57.5 24 -97.5c0 -32.667 -5 -62 -15 -88s-24.5 -48.167 -43.5 -66.5s-41.833 -32.5 -68.5 -42.5s-56.334 -15 -89 -15c-32.667 0 -62.334 5 -89.001 15
s-49.334 24.167 -68.001 42.5s-33.167 40.5 -43.5 66.5s-15.5 55 -15.5 87c0 73.333 33.333 127 100 161zM257 543.001c-35.333 0 -53 -23.667 -53 -71c0 -48 17.667 -72 53 -72s53 23.333 53 70c0 48.667 -17.667 73 -53 73zM258 302.001
c-11.333 0 -21.501 -2.83301 -30.501 -8.5s-16.167 -13.167 -21.5 -22.5c-3.33301 -7.33301 -5.83301 -15.666 -7.5 -24.999c-1.66699 -9.33398 -2.5 -22.667 -2.5 -40c0 -17.334 0.666992 -30.667 2 -40c1.33301 -9.33398 4 -17.667 8 -25
c5.33301 -9.33398 12.5 -16.834 21.5 -22.5c9 -5.66699 18.833 -8.5 29.5 -8.5c22.667 0 39.334 10.333 50.001 31c4.66699 7.33301 7.66699 15.5 9 24.5s2 22.167 2 39.5c0 25.333 -1.83301 43.666 -5.5 54.999s-10.5 21.333 -20.5 30c-10 8 -21.333 12 -34 12z" />
    <glyph glyph-name="nine" unicode="9" 
d="M115 0l145.999 225.001c-16.667 -4.66699 -32.667 -7 -48 -7c-51.333 0 -91.833 18 -121.5 54s-44.5 85.333 -44.5 148c0 76.667 19.667 136.667 59 180s94.333 65 165 65c31.334 0 59.667 -5.33301 85 -16s47 -25.834 65 -45.501s31.833 -43.5 41.5 -71.5
s14.5 -59.333 14.5 -94c0 -20 -1.16699 -38.5 -3.5 -55.5s-6.66602 -34.833 -12.999 -53.5s-15 -38.834 -26 -60.5c-11 -21.667 -24.833 -47.167 -41.5 -76.5l-112 -192h-166zM261.999 544.001c-21.333 0 -37 -8.66797 -47 -26.001s-15 -44.666 -15 -81.999
c0 -73.333 20.333 -110 61 -110c42 0 63 35.333 63 106c0 39.333 -5 67.833 -15 85.5s-25.667 26.5 -47 26.5z" />
    <glyph glyph-name="colon" unicode=":" horiz-adv-x="367" 
d="M183 157c12 0 23 -2.16699 33 -6.5s18.833 -10.333 26.5 -18c7.66797 -7.66699 13.668 -16.5 18 -26.5c4.33301 -10 6.5 -20.667 6.5 -32c0 -23.333 -8.16699 -43.166 -24.5 -59.499c-16.334 -16.333 -36.167 -24.5 -59.5 -24.5s-43 8.16699 -59 24.5
s-24 36.166 -24 59.499c0 22.667 8.16699 42.167 24.5 58.5s35.833 24.5 58.5 24.5zM183 490c12 0 23 -2.16797 33 -6.50098s18.833 -10.333 26.5 -18c7.66797 -7.66699 13.668 -16.5 18 -26.5c4.33301 -10 6.5 -20.667 6.5 -32c0 -23.333 -8.16699 -43.166 -24.5 -59.499
c-16.334 -16.333 -36.167 -24.5 -59.5 -24.5s-43 8.16699 -59 24.5c-16 16.334 -24 36.167 -24 59.5c0 22.667 8.16699 42.167 24.5 58.5s35.833 24.5 58.5 24.5z" />
    <glyph glyph-name="semicolon" unicode=";" horiz-adv-x="367" 
d="M204 490c12 0 23 -2.16797 33 -6.50098s18.833 -10.333 26.5 -18s13.667 -16.5 18 -26.5s6.5 -20.667 6.5 -32c0 -23.333 -8.16699 -43.166 -24.5 -59.499c-16.334 -16.333 -36.167 -24.5 -59.5 -24.5s-43 8.16699 -59 24.5c-16 16.334 -24 36.167 -24 59.5
c0 22.667 8.16699 42.167 24.5 58.5s35.833 24.5 58.5 24.5zM277 126.999l-83 -227h-127l60 227h150z" />
    <glyph glyph-name="less" unicode="&#x3c;" horiz-adv-x="500" 
d="M466 473l-268 -140l268 -139v-156l-433 230v131l433 230v-156z" />
    <glyph glyph-name="equal" unicode="=" 
d="M487 455v-107h-460v107h460zM487 295v-107h-460v107h460z" />
    <glyph glyph-name="greater" unicode="&#x3e;" horiz-adv-x="500" 
d="M467 399v-131l-433 -230v156l268 139l-268 140v156z" />
    <glyph glyph-name="question" unicode="?" horiz-adv-x="510" 
d="M63 465c0 20 0.501953 37.1689 1.50195 51.502s2.66699 26.666 5 36.999c2.33398 10.333 5.16699 19.5 8.5 27.5s7.66602 16 12.999 24c16 23.333 38.667 41.666 68 54.999s62.666 20 99.999 20c28 0 53.5 -4.33301 76.5 -13s42.833 -20.834 59.5 -36.501
s29.5 -34.334 38.5 -56.001s13.5 -45.834 13.5 -72.501c0 -26 -4.66699 -51 -14 -75s-24.333 -49.333 -45 -76l-41 -54c-18 -22.667 -30 -39.834 -36 -51.5c-6 -11.667 -9 -23.5 -9 -35.5h-133c0 18 1.83301 32.833 5.5 44.5s10.834 24.834 21.5 39.501l63 91
c8 11.333 14.333 21.333 19 30s8.5 16.834 11.5 24.501s5 15.5 6 23.5s1.5 17 1.5 27c0 22.6689 -4.5 40.3359 -13.5 53.001c-9 12.667 -21.5 19 -37.5 19s-28.5 -6.66699 -37.5 -20s-13.5 -32 -13.5 -56v-8c0 -4 0.333008 -8.33301 1 -13h-133zM236.002 157.002
c12 0 22.999 -2.16699 32.999 -6.5s18.833 -10.333 26.5 -18s13.667 -16.5 18 -26.5s6.5 -20.667 6.5 -32c0 -23.333 -8.16699 -43.166 -24.5 -59.499s-36.166 -24.5 -59.499 -24.5s-43 8.16699 -59 24.5s-24 36.166 -24 59.499c0 22.667 8.16699 42.167 24.5 58.5
s35.833 24.5 58.5 24.5z" />
    <glyph glyph-name="at" unicode="@" horiz-adv-x="817" 
d="M529 -145c-28.667 -6.66699 -51 -11.1699 -67 -13.5029s-32.333 -3.5 -49 -3.5c-27.333 0 -54.5 3.66699 -81.5 11s-53 18 -78 32s-48.667 31 -71 51s-41.833 42.333 -58.5 67c-24 34.667 -42.167 74.834 -54.5 120.501s-18.5 95.5 -18.5 149.5
c0 64.667 9.5 124.5 28.5 179.5s46.5 101.5 82.5 139.5c35.333 38 75.333 67 120 87s92 30 142 30s96.833 -9.83301 140.499 -29.5c43.667 -19.667 81.5 -46.667 113.5 -81c32 -34.334 57.167 -74.667 75.5 -121s27.5 -96.5 27.5 -150.5c0 -26 -2.5 -51.167 -7.5 -75.5
s-12 -47 -21 -68s-19.667 -39.5 -32 -55.5c-12.3359 -16 -26.1689 -29 -41.5 -39c-13.3359 -8.66699 -29.6689 -15.334 -49 -20.001c-19.333 -4.66699 -39.333 -7 -60 -7c-43.333 0 -73.666 11.667 -90.999 35c-26 -24 -55.333 -36 -88 -36
c-22.667 0 -43.667 5.16699 -63 15.5s-36 24.5 -50 42.5s-24.833 39.667 -32.5 65s-11.5 53 -11.5 83c0 30.667 4.16699 59.167 12.5 85.5s19.666 49 33.999 68s31.5 33.833 51.5 44.5s41.667 16 65 16c33.333 0 63 -13.333 89 -40v27h104v-253
c0 -15.334 0.833008 -24.667 2.5 -28c1.67578 -3.33301 5.84277 -5 12.5 -5c10 0 19.333 3.66699 28 11c8.67188 7.33301 16.3389 17.333 23.001 30c6.67676 12.667 11.8438 27.5 15.5 44.5c3.66699 17 5.5 35.167 5.5 54.5c0 38 -6.33301 73.167 -19 105.5
s-30.167 60.333 -52.5 84s-48.833 42.167 -79.5 55.5s-63.667 20 -99 20c-39.333 0 -75.5 -7.66699 -108.5 -23s-61.333 -36.833 -85 -64.5s-42.167 -60.667 -55.5 -99s-20 -80.166 -20 -125.499c0 -46 6.33301 -88 19 -126s30.334 -70.667 53 -98
c22.667 -27.333 49.667 -48.666 81 -63.999c31.334 -15.333 65.667 -23 103 -23c9.33496 0 18.168 0.333008 26.5 1c8.33301 0.666992 16.833 1.83398 25.5 3.50098s18 4 28 7l35 10.5v-127zM414 365.997c-20.667 0 -37.5 -9.5 -50.5 -28.5s-19.5 -43.5 -19.5 -73.5
c0 -28.667 6.66699 -52.5 20 -71.5s30 -28.5 50 -28.5c20.667 0 38 10.167 52 30.5s21 45.833 21 76.5c0 28 -6.83301 50.833 -20.5 68.5s-31.167 26.5 -52.5 26.5z" />
    <glyph glyph-name="A" unicode="A" horiz-adv-x="609" 
d="M593 0h-169l-23 105h-198l-25 -105h-161l195 670h192zM306 519l-72 -294h139z" />
    <glyph glyph-name="B" unicode="B" horiz-adv-x="651" 
d="M286 667c30.667 0 56.666 -0.501953 77.999 -1.50195s39.833 -2.66699 55.5 -5s29.667 -5.5 42 -9.5s24.5 -9 36.5 -15c51.333 -26 77 -70 77 -132c0 -34 -9.16699 -62.5 -27.5 -85.5s-47.166 -41.833 -86.499 -56.5c43.333 -11.333 76 -30.666 98 -57.999
s33 -61.666 33 -102.999c0 -38 -9.16699 -72.333 -27.5 -103s-43.833 -53.667 -76.5 -69c-12 -6 -23.833 -10.833 -35.5 -14.5s-24.5 -6.5 -38.5 -8.5s-29.833 -3.5 -47.5 -4.5s-38.5 -1.5 -62.5 -1.5h-237v667h219zM297.999 406.998c42.667 0 73.333 5.66797 92 17.001
c18.667 11.334 28 29.667 28 54.999c0 25.333 -9.33301 43.5 -28 54.5s-49.334 16.5 -92 16.5h-77v-143h77zM220.998 116.999h77c25.333 0 45.333 1.66699 60 5s27.667 8.66602 39 15.999c20.667 14.667 31 37.334 31 68.001c0 58.667 -39 88 -117 88h-90v-177z" />
    <glyph glyph-name="C" unicode="C" horiz-adv-x="565" 
d="M536 197c-13.334 -68.667 -40.333 -120.834 -80.999 -156.501c-40.667 -35.667 -94.334 -53.5 -161.001 -53.5c-80 0 -141 28 -183 84c-22.667 30.667 -39 65.834 -49 105.501s-15 88.5 -15 146.5c0 122 21 212 63 270s106.667 87 194 87c68 0 120.667 -16.667 158 -50
s62 -86 74 -158l-151 -33c-4.66699 42 -13 72.167 -25 90.5s-30 27.5 -54 27.5c-33.333 0 -57.5 -18 -72.5 -54s-22.5 -93.333 -22.5 -172c0 -72.667 7.5 -126.5 22.5 -161.5s38.167 -52.5 69.5 -52.5c23.333 0 41.5 10 54.5 30s22.167 53.667 27.5 101z" />
    <glyph glyph-name="D" unicode="D" horiz-adv-x="652" 
d="M280 667c30 0 56.166 -0.833008 78.499 -2.5s42 -4.83398 59 -9.50098s32.167 -10.667 45.5 -18c13.333 -7.33789 26.333 -16.6709 39 -27.999c62.667 -56 94 -143.333 94 -262c0 -115.333 -28 -205 -84 -269c-24.667 -28 -53.167 -48 -85.5 -60
s-74.166 -18 -125.499 -18h-234v667h213zM246.999 120c65.333 0 112.5 16.833 141.5 50.5s43.5 88.5 43.5 164.5c0 75.333 -13 130 -39 164s-68 51 -126 51h-43v-430h23z" />
    <glyph glyph-name="E" unicode="E" horiz-adv-x="564" 
d="M511 540h-287v-137h287v-120h-287v-153h287v-130h-444v667h444v-127z" />
    <glyph glyph-name="F" unicode="F" horiz-adv-x="554" 
d="M504 540h-280v-140h280v-123h-280v-277h-157v667h437v-127z" />
    <glyph glyph-name="G" unicode="G" horiz-adv-x="655" 
d="M599 392v-62.002c0 -52.667 -4.5 -97.5 -13.5 -134.5s-23.833 -70.5 -44.5 -100.5c-24 -35.333 -54.833 -62.166 -92.5 -80.499s-80.5 -27.5 -128.5 -27.5c-85.333 0 -150.5 29 -195.5 87s-67.5 142 -67.5 252c0 120 22.667 209 68 267s115.333 87 210 87
c66 0 118.833 -14.667 158.5 -44s69.167 -75.333 88.5 -138l-154 -38c-5.33301 30.667 -16.5 54.334 -33.5 71.001s-37.833 25 -62.5 25c-38 0 -66 -19.167 -84 -57.5s-27 -98.5 -27 -180.5c0 -138.667 36.667 -208 110 -208c31.333 0 56 14 74 42s27.667 67 29 117h-122
v123h287z" />
    <glyph glyph-name="H" unicode="H" horiz-adv-x="655" 
d="M431 417v250h157v-667h-157v294h-207v-294h-157v667h157v-250h207z" />
    <glyph glyph-name="I" unicode="I" horiz-adv-x="291" 
d="M224 667v-667h-157v667h157z" />
    <glyph glyph-name="J" unicode="J" horiz-adv-x="416" 
d="M350 199c0 -37.333 -4.49805 -68.167 -13.498 -92.5s-24.167 -46.833 -45.5 -67.5c-36.667 -34.667 -83.334 -52 -140.001 -52c-57.333 0 -105.333 17.333 -144 52l64 132h15c8 -31.333 26.667 -47 56 -47c17.333 0 30.166 6.5 38.499 19.5s12.5 33.5 12.5 61.5v462h157
v-468z" />
    <glyph glyph-name="K" unicode="K" horiz-adv-x="648" 
d="M218 380l215 287h177l-220 -296l242 -371h-188l-226 342v-342h-151v667h151v-287z" />
    <glyph glyph-name="L" unicode="L" horiz-adv-x="564" 
d="M224 130h283v-130h-440v667h157v-537z" />
    <glyph glyph-name="M" unicode="M" horiz-adv-x="744" 
d="M678 0h-140l7 477l-113 -379h-122l-113 386l7 -484h-137v667h181l124 -397l123 397h183v-667z" />
    <glyph glyph-name="N" unicode="N" horiz-adv-x="649" 
d="M582 0h-154l-224 458l3 -458h-140v667h154l224 -453l-3 453h140v-667z" />
    <glyph glyph-name="O" unicode="O" horiz-adv-x="658" 
d="M333 680c48 0 87.333 -5.83594 118 -17.5029s57.667 -31.167 81 -58.5c12.667 -15.333 23.667 -31.833 33 -49.5s16.833 -37.5 22.5 -59.5c5.67578 -22 9.84277 -46.333 12.5 -73c2.66699 -26.667 4 -56.667 4 -90c0 -32.667 -1.33301 -62.167 -4 -88.5
s-7 -50.166 -13 -71.499s-13.5 -40.833 -22.5 -58.5s-19.833 -34.167 -32.5 -49.5c-23.333 -28 -51.5 -47.833 -84.5 -59.5s-75.5 -17.5 -127.5 -17.5c-45.333 0 -83.833 6.16699 -115.5 18.5s-58.167 31.5 -79.5 57.5c-13.333 16 -24.5 32.833 -33.5 50.5
s-16.333 37.334 -22 59.001s-9.83398 45.667 -12.501 72c-2.66699 26.334 -4 56.167 -4 89.5c0 32.667 1.33301 62.334 4 89.001s6.83398 50.667 12.501 72s13 40.833 22 58.5s20.167 34.167 33.5 49.5c23.333 26.667 51.333 46.167 84 58.5s74 18.5 124 18.5zM329 556.997
c-38 0 -66.167 -17.833 -84.5 -53.5s-27.5 -91.167 -27.5 -166.5c0 -78.667 8.83301 -136.167 26.5 -172.5s46.167 -54.5 85.5 -54.5c38 0 66 18 84 54s27 92.667 27 170c0 76.667 -9 133 -27 169s-46 54 -84 54z" />
    <glyph glyph-name="P" unicode="P" horiz-adv-x="601" 
d="M281 667c26.667 0 50.167 -0.833008 70.5 -2.5s38.5 -4.16699 54.5 -7.5s30.5 -8 43.5 -14s25.5 -13.333 37.5 -22c24.667 -18 43.667 -41.5 57 -70.5s20 -61.833 20 -98.5c0 -78.667 -30 -139.334 -90 -182c-26 -18.667 -54.667 -32.167 -86 -40.5s-69 -12.5 -113 -12.5
h-51v-217h-157v667h214zM224 340h39c27.333 0 47.5 1.33301 60.5 4s25.5 8 37.5 16s21.5 19.333 28.5 34s10.5 30.667 10.5 48s-3.5 33.333 -10.5 48s-16.5 26 -28.5 34s-24.5 13.333 -37.5 16s-33.167 4 -60.5 4h-39v-204z" />
    <glyph glyph-name="Q" unicode="Q" horiz-adv-x="658" 
d="M606 -40l-123.998 -80.0029l-72 117c-15.333 -3.33301 -30 -5.83301 -44 -7.5s-30 -2.5 -48 -2.5c-44 0 -81.667 6.16699 -113 18.5s-58 31.5 -80 57.5c-13.333 15.333 -24.5 31.833 -33.5 49.5s-16.333 37.334 -22 59.001s-9.83398 45.667 -12.501 72
c-2.66699 26.334 -4 56.167 -4 89.5s1.33301 63.333 4 90s6.83398 50.667 12.501 72s13 40.833 22 58.5s19.833 34.167 32.5 49.5c22.667 28 50 47.833 82 59.5s74 17.5 126 17.5c49.334 0 89.667 -5.83301 121 -17.5s58 -31.167 80 -58.5
c25.333 -31.334 43.5 -67.667 54.5 -108.999c11 -41.333 16.5 -94 16.5 -158c0 -32.667 -1.33301 -61.5 -4 -86.5s-6.83398 -47.667 -12.501 -68s-13.334 -39.166 -23.001 -56.499s-21.5 -34.333 -35.5 -51zM329.002 556.997c-38 0 -66.167 -17.833 -84.5 -53.5
s-27.5 -91.167 -27.5 -166.5c0 -78.667 8.83301 -136.167 26.5 -172.5s46.167 -54.5 85.5 -54.5c38 0 66 18 84 54s27 92.667 27 170c0 76.667 -9 133 -27 169s-46 54 -84 54z" />
    <glyph glyph-name="R" unicode="R" horiz-adv-x="647" 
d="M342 667c22.667 0 42.833 -0.830078 60.5 -2.49707s33.5 -4.33398 47.5 -8.00098s26.667 -8.33398 38 -14.001s22.333 -12.834 33 -21.501c20.6689 -16 36.3359 -36.5 47 -61.5c10.667 -25 16 -53.167 16 -84.5c0 -102.667 -57 -165 -171 -187l191 -288h-196l-184 308
v-308h-157v667h275zM279.999 387.003c26.667 0 46.5 0.666992 59.5 2c13 1.33398 25.5 4.66699 37.5 10c30 10.667 45 33.334 45 68.001c0 34 -15 56.667 -45 68c-12 5.33301 -24.667 8.66602 -38 9.99902s-33 2 -59 2h-56v-160h56z" />
    <glyph glyph-name="S" unicode="S" horiz-adv-x="561" 
d="M198 201c4 -60.667 30.999 -91.001 80.999 -91.001c21.333 0 39 6.16699 53 18.5s21 28.166 21 47.499c0 12 -2.83301 22.5 -8.5 31.5s-14.167 17.5 -25.5 25.5c-6.66895 4.66699 -12.3359 8.5 -17 11.5c-4.66699 3 -11.167 6.66699 -19.5 11s-19.666 10 -33.999 17
s-34.5 16.833 -60.5 29.5c-24 12 -44.333 24 -61 36s-30 25 -40 39s-17.167 29.333 -21.5 46s-6.5 35.667 -6.5 57c0 62 21.167 110.833 63.5 146.5s100.166 53.5 173.499 53.5c36.667 0 69 -4.83301 97 -14.5s50.667 -24.167 68 -43.5
c10 -10.667 18.333 -22.834 25 -36.501s12.667 -31.167 18 -52.5l-146 -51c-4 26 -12.167 45 -24.5 57s-30.166 18 -53.499 18c-18.667 0 -33.834 -5.16699 -45.501 -15.5c-11.667 -10.3369 -17.5 -24.1699 -17.5 -41.499c0 -17.333 6.66699 -32.666 20 -45.999
s35.333 -26.666 66 -39.999c19.333 -8 35.5 -14.833 48.5 -20.5c13 -5.66992 24 -10.8369 33 -15.501c9 -4.66699 16.833 -9 23.5 -13s14 -8.66699 22 -14c56 -38 84 -89.333 84 -154c0 -30 -6.33301 -58.5 -19 -85.5s-30.667 -50.5 -54 -70.5
c-23.333 -19.333 -48.666 -33.166 -75.999 -41.499s-61 -12.5 -101 -12.5c-78.667 0 -137 21 -175 63c-11.333 11.333 -20 24.333 -26 39s-11.333 34 -16 58z" />
    <glyph glyph-name="T" unicode="T" horiz-adv-x="564" 
d="M534 540h-174v-540h-157v540h-173v127h504v-127z" />
    <glyph glyph-name="U" unicode="U" horiz-adv-x="647" 
d="M580 667l-0.00195312 -412.002c0 -26.667 -1.16699 -50.167 -3.5 -70.5s-6.33301 -38.666 -12 -54.999s-13.167 -31.166 -22.5 -44.499c-9.33398 -13.333 -20.667 -26 -33.999 -38c-44.667 -40 -106.334 -60 -185 -60c-78.667 0 -140 19 -184 57
c-13.333 11.333 -24.666 23.333 -33.999 36s-16.833 26.834 -22.5 42.501s-9.66699 33.167 -12 52.5s-3.5 41.666 -3.5 66.999v425h157v-417c0 -44 8.5 -77.667 25.5 -101s41.5 -35 73.5 -35c66.667 0 100 50 100 150v403h157z" />
    <glyph glyph-name="V" unicode="V" horiz-adv-x="607" 
d="M391 0l-175 0.000976562l-189 667h165l90 -364c5.33594 -23.333 9.66895 -44.833 13 -64.5c3.33496 -19.667 6.66797 -42.834 10 -69.501l115 498h161z" />
    <glyph glyph-name="W" unicode="W" horiz-adv-x="831" 
d="M671 0h-168l-86 523l-91 -523h-167l-139 667h157l80 -503l77 503h169l73 -516l86 516h149z" />
    <glyph glyph-name="X" unicode="X" horiz-adv-x="656" 
d="M440 352l190 -352h-181l-118 272l-128 -272h-176l197 352l-170 315h173l104 -249l109 249h172z" />
    <glyph glyph-name="Y" unicode="Y" horiz-adv-x="609" 
d="M197 667l89 -197.001c6 -13.333 10.833 -26.166 14.5 -38.499s7.5 -28.833 11.5 -49.5l112 285h165l-204 -401v-266h-157v266l-208 401h177z" />
    <glyph glyph-name="Z" unicode="Z" horiz-adv-x="566" 
d="M526 635l-282 -505h273v-130h-497l17 64l265 476h-257v127h481v-32z" />
    <glyph glyph-name="bracketleft" unicode="[" horiz-adv-x="330" 
d="M287 667v-113h-84v-568h84v-113h-227v794h227z" />
    <glyph glyph-name="backslash" unicode="\" horiz-adv-x="360" 
d="M40 667h107l173 -667h-107z" />
    <glyph glyph-name="bracketright" unicode="]" horiz-adv-x="330" 
d="M43 -127v113h83v568h-83v113h226v-794h-226z" />
    <glyph glyph-name="asciicircum" unicode="^" horiz-adv-x="500" 
d="M14 348l150 323h173l150 -323h-138l-99 217l-98 -217h-138z" />
    <glyph glyph-name="underscore" unicode="_" horiz-adv-x="500" 
d="M500 -55v-93h-500v93h500z" />
    <glyph glyph-name="grave" unicode="`" horiz-adv-x="500" 
d="M311 557h-98l-120 127v13h153z" />
    <glyph glyph-name="a" unicode="a" horiz-adv-x="555" 
d="M489 0l-143.001 0.000976562v93c-19.333 -38.667 -39.166 -65.834 -59.499 -81.501s-46.5 -23.5 -78.5 -23.5c-50 0 -89.167 22.167 -117.5 66.5s-42.5 105.833 -42.5 184.5c0 39.334 4 75.167 12 107.5s19.167 60 33.5 83s31.5 40.833 51.5 53.5s42.333 19 67 19
c29.333 0 56.5 -9.66699 81.5 -29s43.5 -45 55.5 -77v94h140v-490zM269.999 390.001c-23.334 0 -41.666 -12.333 -54.999 -37c-5.33301 -11.333 -9 -24.666 -11 -39.999s-3 -38.333 -3 -69c0 -16.667 0.333008 -30.834 1 -42.501s1.66699 -22 3 -31
s3.16602 -16.667 5.49902 -23s5.5 -12.5 9.5 -18.5c12 -20 29 -30 51 -30c21.334 0 38.667 10.333 52 31c13.333 20 20 57.667 20 113c0 24 -0.833008 43.667 -2.5 59c-1.67188 15.333 -4.83887 29 -9.5 41c-5.33301 14.667 -13.5 26.167 -24.5 34.5
s-23.167 12.5 -36.5 12.5z" />
    <glyph glyph-name="b" unicode="b" horiz-adv-x="561" 
d="M210 667l-0.000976562 -272.001c19.333 36.667 40.5 63.667 63.5 81s49.5 26 79.5 26c28.667 0 54.834 -8.83301 78.501 -26.5s41.5 -41.5 53.5 -71.5c8 -20.667 13.833 -42.667 17.5 -66s5.5 -51.666 5.5 -84.999c0 -40.667 -3.16699 -75.5 -9.5 -104.5
s-16.166 -55.833 -29.499 -80.5c-14.668 -25.333 -32.835 -45 -54.501 -59c-21.667 -14 -45.5 -21 -71.5 -21c-30 0 -55.667 8.16699 -77 24.5s-41 42.5 -59 78.5v-91h-140v667h143zM284.999 389.999c-48 0 -72 -48 -72 -144c0 -96.667 24 -145 72 -145
c46.667 0 70 47.667 70 143c0 50 -5.66699 86.833 -17 110.5s-29 35.5 -53 35.5z" />
    <glyph glyph-name="c" unicode="c" horiz-adv-x="475" 
d="M317 308c-4 52.667 -22.3311 78.999 -54.998 78.999c-21.333 0 -36.833 -10.833 -46.5 -32.5s-14.5 -55.5 -14.5 -101.5c0 -54 4.66699 -92.333 14 -115s24.666 -34 45.999 -34c15.334 0 27.167 5.5 35.499 16.5c8.33496 11 15.168 31.167 20.5 60.5l128 -46
c-11.333 -50 -32.666 -87.167 -63.999 -111.5s-74 -36.5 -128 -36.5c-66.667 0 -117.667 22 -153 66s-53 107.667 -53 191c0 84.667 18 149 54 193s88.333 66 157 66c35.333 0 66.5 -5.66699 93.5 -17s47.833 -27.666 62.5 -48.999c7.33398 -10.667 13.167 -23 17.499 -37
c4.33301 -14 8.83301 -33 13.5 -57z" />
    <glyph glyph-name="d" unicode="d" horiz-adv-x="561" 
d="M354 0l-0.00195312 95c-34 -71.333 -81 -107 -141 -107c-29.333 0 -56.166 8.83301 -80.499 26.5s-42.833 41.5 -55.5 71.5c-8.66699 20.667 -14.834 42.667 -18.501 66s-5.5 51.666 -5.5 84.999c0 41.333 3.16699 76.333 9.5 105s16.166 55.334 29.499 80.001
c14.667 25.333 32.834 45 54.501 59s45.5 21 71.5 21c28.667 0 53.334 -8 74.001 -24s40.334 -42.333 59.001 -79v268h143v-667h-140zM275.998 389c-46.667 0 -70 -47.666 -70 -142.999c0 -97.333 24 -146 72 -146c24 0 41.667 11.667 53 35s17 59.666 17 108.999
c0 56.667 -7 95 -21 115s-31 30 -51 30z" />
    <glyph glyph-name="e" unicode="e" 
d="M194 213c0.666992 -42 6.66602 -72.499 17.999 -91.499s29 -28.5 53 -28.5c34 0 54.333 22 61 66l135 -27c-6 -46.667 -26.167 -82.5 -60.5 -107.5s-80.833 -37.5 -139.5 -37.5c-36 0 -66.167 4.33301 -90.5 13s-45.166 22.667 -62.499 42
c-21.333 23.333 -36.833 50.666 -46.5 81.999s-14.5 71 -14.5 119c0 44.667 3.83301 82 11.5 112s20.167 55.667 37.5 77c18 23.333 41.333 41 70 53s60.667 18 96 18c43.334 0 80.667 -8.66699 112 -26s54.333 -42 69 -74c4.66699 -10 8.5 -20 11.5 -30
s5.5 -20.833 7.5 -32.5s3.33301 -24.5 4 -38.5s1 -30.333 1 -49v-40h-273zM326.999 298.001c-1.33301 67.333 -23.667 101 -67 101c-44 0 -66 -33.667 -66 -101h133z" />
    <glyph glyph-name="f" unicode="f" horiz-adv-x="370" 
d="M340 552c-14 4.66699 -25.334 7.00098 -34.001 7.00098c-33.333 0 -52 -14.667 -56 -44c-0.666992 -4 -1 -7.66699 -1 -11v-27h91v-113h-91v-364h-143v364h-76v113h76l1 30c0.666992 19.333 1.83398 36.166 3.50098 50.499s4.5 26.833 8.5 37.5
c4 10.6709 9 19.8379 15 27.5c6 7.66699 13.667 15.167 23 22.5c30.667 22.667 70.667 34 120 34c10.667 0 20.5 -0.5 29.5 -1.5s20.167 -2.83301 33.5 -5.5v-120z" />
    <glyph glyph-name="g" unicode="g" horiz-adv-x="553" 
d="M486 75c0 -22.667 -0.834961 -42.332 -2.50195 -58.999s-4.66699 -31.5 -9 -44.5s-9.83301 -24.333 -16.5 -34s-15 -18.834 -25 -27.501c-20.667 -17.333 -45.167 -30 -73.5 -38s-63.166 -12 -104.499 -12c-39.333 0 -73.666 3.16699 -102.999 9.5
s-57.666 16.833 -84.999 31.5l95 85c12.667 -9.33301 25.834 -16 39.5 -20c13.667 -4 30.167 -6 49.5 -6c18 0 33 2 45 6s21.667 10.667 29 20s12.5 21.833 15.5 37.5s4.5 35.167 4.5 58.5v39c-31.333 -67.333 -74.333 -101 -129 -101
c-24.667 0 -47.334 5.83301 -68.001 17.5s-38.5 28 -53.5 49s-26.833 45.833 -35.5 74.5s-13 60 -13 94c0 34.667 4.16699 67 12.5 97s20 56.167 35 78.5s32.5 39.833 52.5 52.5s41.667 19 65 19c56 0 100.667 -35.333 134 -106v94h141v-415zM269.998 386.002
c-22.667 0 -40 -10.333 -52 -31s-18 -51 -18 -91c0 -43.333 6 -76.333 18 -99s29.333 -34 52 -34c46 0 69 44 69 132c0 82 -23 123 -69 123z" />
    <glyph glyph-name="h" unicode="h" horiz-adv-x="557" 
d="M210 396c20.667 36.667 43.165 63.165 67.498 79.498s53.5 24.5 87.5 24.5c21.333 0 41.333 -4.5 60 -13.5s33.667 -21.167 45 -36.5c6 -8 10.833 -15.667 14.5 -23s6.33398 -16 8.00098 -26s2.83398 -22.333 3.50098 -37s1 -33.334 1 -56v-308h-143v273
c0 28.667 -1.5 49.334 -4.5 62.001s-8.83301 23.334 -17.5 32.001c-11.333 10 -25 15 -41 15c-14 0 -26.833 -3.5 -38.5 -10.5s-21.167 -17.167 -28.5 -30.5c-9.33301 -16.667 -14 -41.334 -14 -74v-267h-143v667h143v-271z" />
    <glyph glyph-name="i" unicode="i" horiz-adv-x="277" 
d="M210 0h-143v490h143v-490zM138 697c22 0 40.667 -7.66602 56 -22.999c15.333 -15.3359 23 -33.6689 23 -55c0 -22 -7.66699 -40.667 -23 -56s-34 -23 -56 -23c-21.333 0 -39.666 7.66699 -54.999 23s-23 34 -23 56c0 21.333 7.66699 39.666 23 54.999
s33.666 23 54.999 23z" />
    <glyph glyph-name="j" unicode="j" horiz-adv-x="311" 
d="M244 48c0 -34 -2.83301 -60.833 -8.5 -80.5s-15.5 -37.5 -29.5 -53.5c-29.333 -32.667 -70.333 -49 -123 -49c-11.333 0 -21.833 0.5 -31.5 1.5s-21.167 3.16699 -34.5 6.5v119c8.66699 -2.66699 15.667 -4.5 21 -5.5s11 -1.5 17 -1.5c17.333 0 29.333 5.66699 36 17
s10 32 10 62v426h143v-442zM172 697c22 0 40.667 -7.66602 56 -22.999c15.333 -15.3359 23 -33.6689 23 -55c0 -22 -7.66699 -40.667 -23 -56s-34 -23 -56 -23c-21.333 0 -39.666 7.66699 -54.999 23s-23 34 -23 56c0 21.333 7.66699 39.666 23 54.999s33.666 23 54.999 23z
" />
    <glyph glyph-name="k" unicode="k" horiz-adv-x="564" 
d="M210 0h-143v667h143v-667zM523 490l-147 -233l168 -257h-185l-147 253l147 237h164z" />
    <glyph glyph-name="l" unicode="l" horiz-adv-x="277" 
d="M210 0h-143v667h143v-667z" />
    <glyph glyph-name="m" unicode="m" horiz-adv-x="843" 
d="M207 393c37.333 71.333 89.6689 106.996 157.002 106.996c66 0 109.333 -32.667 130 -98c20 34 42 58.833 66 74.5s52.333 23.5 85 23.5c22 0 42.5 -4.16699 61.5 -12.5s35.167 -19.833 48.5 -34.5c10 -12 17.333 -25.833 22 -41.5s7 -35.167 7 -58.5v-353h-143v288
c0 15.333 -0.333008 26.5 -1 33.5s-2 13.833 -4 20.5c-4.66699 12 -12.834 21.833 -24.501 29.5s-24.834 11.5 -39.501 11.5c-26.667 0 -46.334 -10.667 -59.001 -32c-6.66699 -9.33301 -11 -19.333 -13 -30s-3 -26.334 -3 -47v-274h-143v298
c0 14.667 -0.833008 26.334 -2.5 35.001s-5.16699 16.334 -10.5 23.001c-5.33301 8.66699 -12.833 15.334 -22.5 20.001s-19.834 7 -30.5 7c-25.333 0 -45.333 -11 -60 -33c-7.33398 -10.667 -12.167 -21.667 -14.499 -33c-2.33301 -11.333 -3.5 -27.666 -3.5 -48.999v-268
h-143v490h140v-97z" />
    <glyph glyph-name="n" unicode="n" horiz-adv-x="557" 
d="M207 490l-0.000976562 -93c23.333 36 47.333 62.167 72 78.5s53.334 24.5 86.001 24.5c20.667 0 40.167 -4 58.5 -12s33.5 -19 45.5 -33c10 -12 17.167 -25.333 21.5 -40s6.5 -32.667 6.5 -54v-361h-143v300c0 15.333 -0.833008 27 -2.5 35
c-1.66797 8 -4.83496 15.333 -9.5 22c-12 16 -29.333 24 -52 24c-53.333 0 -80 -41.667 -80 -125v-256h-143v490h140z" />
    <glyph glyph-name="o" unicode="o" horiz-adv-x="560" 
d="M280 503c77.333 0 135.666 -22 174.999 -66s59 -109.333 59 -196c0 -82 -20.167 -144.833 -60.5 -188.5s-98.166 -65.5 -173.499 -65.5c-76 0 -133.833 22 -173.5 66s-59.5 108 -59.5 192s19.833 148 59.5 192s97.5 66 173.5 66zM280 388c-28 0 -48.333 -11.333 -61 -34
s-19 -58.334 -19 -107c0 -49.333 6.5 -85.333 19.5 -108s33.5 -34 61.5 -34s48.333 11.333 61 34s19 58 19 106c0 50 -6.5 86.333 -19.5 109s-33.5 34 -61.5 34z" />
    <glyph glyph-name="p" unicode="p" horiz-adv-x="561" 
d="M207 490v-95c36 71.333 84.667 107 146 107c28.667 0 54.834 -8.83301 78.501 -26.5s41.5 -41.5 53.5 -71.5c8 -20.667 13.833 -42.667 17.5 -66s5.5 -51.333 5.5 -84c0 -40.667 -3.16699 -75.334 -9.5 -104.001s-16.166 -55 -29.499 -79
c-14.668 -25.333 -32.835 -44.666 -54.501 -57.999c-21.667 -13.333 -45.5 -20 -71.5 -20c-28.667 0 -53.334 7.5 -74 22.5c-20.667 15 -40.334 40.167 -59.001 75.5v-224h-143v623h140zM285 393c-48 0 -72.001 -48 -72.001 -144c0 -48 5.83301 -83.5 17.5 -106.5
s29.834 -34.5 54.501 -34.5c23.333 0 40.833 11.667 52.5 35s17.5 57.666 17.5 102.999c0 50.667 -5.66699 87.834 -17 111.501s-29 35.5 -53 35.5z" />
    <glyph glyph-name="q" unicode="q" horiz-adv-x="561" 
d="M351 -133l-0.00292969 228c-23.333 -38 -45.166 -64.5 -65.499 -79.5s-44.166 -22.5 -71.499 -22.5c-28 0 -54 8.5 -78 25.5s-43 40.5 -57 70.5c-9.33301 20.667 -16 42 -20 64s-6 49.333 -6 82c0 42 3 77.5 9 106.5s16 55.833 30 80.5
c14.667 25.333 32.834 45 54.501 59s45.5 21 71.5 21c30 0 55.667 -8.16699 77 -24.5s41 -42.5 59 -78.5v91h140v-623h-143zM275.997 392c-46.667 0 -70 -47.667 -70 -143c0 -94.667 24.333 -142 73 -142c46 0 69 46.667 69 140c0 96.667 -24 145 -72 145z" />
    <glyph glyph-name="r" unicode="r" horiz-adv-x="376" 
d="M207 490v-110.001c15.333 40.667 35 70.5 59 89.5s54 29.167 90 30.5v-154c-5.33301 0.666992 -10 1 -14 1h-13c-20 0 -37 -2.5 -51 -7.5s-26.333 -12.833 -37 -23.5c-6 -6.66699 -11 -13.167 -15 -19.5s-7.16699 -13.666 -9.5 -21.999s-4 -18 -5 -29
s-1.5 -24.5 -1.5 -40.5v-205h-143v490h140z" />
    <glyph glyph-name="s" unicode="s" horiz-adv-x="472" 
d="M296 343c-4.66699 19.333 -11.6719 33.4961 -21.0049 42.4961s-22.666 13.5 -39.999 13.5c-14 0 -25.5 -3.5 -34.5 -10.5s-13.5 -16.167 -13.5 -27.5c0 -14.667 6.66699 -26 20 -34c2.66699 -2 5.5 -3.5 8.5 -4.5s12.5 -3.5 28.5 -7.5l78 -24
c38 -11.333 64.833 -26.833 80.5 -46.5s23.5 -47.167 23.5 -82.5c0 -26.667 -4.66699 -50.667 -14 -72s-22.666 -39.666 -39.999 -54.999s-38.166 -27.166 -62.499 -35.499s-51.5 -12.5 -81.5 -12.5c-25.333 0 -47.5 2 -66.5 6s-35.667 10.667 -50 20
s-26.666 21.333 -36.999 36s-19.5 32.667 -27.5 54l125 51c8 -37.333 28.333 -56 61 -56c16 0 29.333 4 40 12s16 18 16 30c0 8.66699 -2.66699 16.334 -8 23c-2 2 -3.83301 3.66699 -5.5 5s-4.16699 2.83301 -7.5 4.5c-3.33301 1.66797 -7.83301 3.33496 -13.5 5
c-5.66699 1.66699 -13.5 4.16699 -23.5 7.5l-70 20c-33.333 10 -59.166 27.167 -77.499 51.5s-27.5 53.5 -27.5 87.5c0 24 4.5 45.833 13.5 65.5s21.5 36.334 37.5 50.001s35.5 24.334 58.5 32.001s48.5 11.5 76.5 11.5c96.667 0 153.667 -34.333 171 -103z" />
    <glyph glyph-name="t" unicode="t" horiz-adv-x="365" 
d="M339 364l-90 0.00195312v-208c0 -18.667 3 -31.334 9 -38.001s16.667 -10 32 -10c3.33301 0 7.83301 0.166992 13.5 0.5s11.167 0.833008 16.5 1.5l19 2v-112c-19.333 -4.66699 -36.833 -7.83398 -52.5 -9.50098s-32.167 -2.5 -49.5 -2.5c-58 0 -96.333 14.333 -115 43
c-4 5.33301 -7.33301 12.333 -10 21s-4.66699 17 -6 25v55v232h-79v113h79v130h143v-130h90v-113z" />
    <glyph glyph-name="u" unicode="u" horiz-adv-x="550" 
d="M490 490l-0.000976562 -290c0 -42 -5.66699 -76.5 -17 -103.5s-29.666 -50.167 -54.999 -69.5c-19.333 -14 -40 -24.167 -62 -30.5s-49 -9.5 -81 -9.5s-59 3.16699 -81 9.5s-42.667 16.5 -62 30.5c-25.333 19.333 -43.666 42.5 -54.999 69.5s-17 61.5 -17 103.5v290h143
v-250c0 -44.667 5.66699 -77.167 17 -97.5s29.666 -30.5 54.999 -30.5c25.334 0 43.667 10.167 55 30.5s17 52.833 17 97.5v250h143z" />
    <glyph glyph-name="v" unicode="v" horiz-adv-x="511" 
d="M337 0l-155 0.00195312l-162 490h160l64 -238c4 -14.667 7.33301 -30.834 10 -48.501s5.66699 -39.834 9 -66.501l75 353h153z" />
    <glyph glyph-name="w" unicode="w" horiz-adv-x="743" 
d="M587 0h-148l-68 377l-72 -377h-148l-131 490h153l63 -334l59 334h159l56 -334l66 334h147z" />
    <glyph glyph-name="x" unicode="x" horiz-adv-x="564" 
d="M374 255l160.002 -254.999h-176l-35 66c-8.66797 16.667 -15.835 32.667 -21.5 48c-5.66797 15.333 -11.835 35.666 -18.501 60.999l-84 -175h-169l161 255l-154 235h178l39 -76c5.33496 -11.333 10.668 -24.833 15.999 -40.5c5.33594 -15.667 9.66895 -31.167 13 -46.5
l75 163h169z" />
    <glyph glyph-name="y" unicode="y" horiz-adv-x="518" 
d="M282 -133h-149l61 169l-174 454h164l81 -285l84 285h149z" />
    <glyph glyph-name="z" unicode="z" horiz-adv-x="467" 
d="M420 463l-187 -344h181v-119h-385l16 56l174 319h-177v115h378v-27z" />
    <glyph glyph-name="braceleft" unicode="{" horiz-adv-x="330" 
d="M203 390c0 -16 -0.998047 -30.001 -2.99805 -42.001s-5.16699 -22.667 -9.5 -32c-4.33398 -9.33301 -10.167 -17.666 -17.5 -24.999s-16.333 -14.333 -27 -21c21.333 -13.333 36.166 -28.666 44.499 -45.999s12.5 -42 12.5 -74v-80
c0 -16.667 1.16699 -30.334 3.5 -41.001s6.5 -19 12.5 -25s14.5 -10.333 25.5 -13s25.167 -4 42.5 -4v-113c-9.33301 -0.666992 -16.666 -1 -21.999 -1h-24c-25.334 0 -46.167 0.666992 -62.5 2s-30.333 3.5 -42 6.5s-21.334 7.33301 -29.001 13
s-14.834 12.834 -21.501 21.501c-17.333 22 -26 56.333 -26 103v109c0 28 -4.16699 48.833 -12.5 62.5s-22.833 23.167 -43.5 28.5v109c20 5.33301 34.333 14.5 43 27.5s13 32.167 13 57.5v116c0 47.333 10.667 81.666 32 102.999c6.66699 7.33301 13.834 13.333 21.501 18
c7.66699 4.67676 17.167 8.34375 28.5 11c11.333 2.66699 25 4.5 41 5.5s36 1.5 60 1.5h22c5.33496 0 12.668 -0.333008 21.999 -1v-113c-17.333 -0.666992 -31.5 -2.16699 -42.5 -4.5s-19.5 -6.5 -25.5 -12.5s-10.167 -14.167 -12.5 -24.5s-3.5 -23.5 -3.5 -39.5v-83z" />
    <glyph glyph-name="bar" unicode="|" horiz-adv-x="500" 
d="M328 667v-834h-157v834h157z" />
    <glyph glyph-name="braceright" unicode="}" horiz-adv-x="330" 
d="M127 150c0 32 4.16797 56.668 12.501 74.001s23.166 32.666 44.499 45.999c-10.667 6.66699 -19.667 13.667 -27 21c-7.33398 7.33398 -13.167 15.667 -17.5 24.999c-4.33301 9.33301 -7.5 20 -9.5 32s-3 26 -3 42v83c0 16 -1.16699 29.167 -3.5 39.5
s-6.5 18.5 -12.5 24.5s-14.5 10.167 -25.5 12.5s-25.167 3.83301 -42.5 4.5v113c9.33301 0.666992 16.666 1 21.999 1h22c24.667 0 45.5 -0.666992 62.5 -2s31.167 -3.5 42.5 -6.5s21 -7.16699 29 -12.5s15.667 -12.333 23 -21c17.333 -20 26 -52.333 26 -97v-116
c0 -25.333 4.33301 -44.5 13 -57.5s23 -22.167 43 -27.5v-109c-20.667 -5.33301 -35.167 -14.833 -43.5 -28.5s-12.5 -34.5 -12.5 -62.5v-109c0 -26 -2.33301 -47.667 -7 -65c-4.66797 -17.333 -12.668 -32 -24 -44c-7.33398 -8 -14.667 -14.333 -22 -19
c-7.33301 -4.66602 -16.5 -8.33301 -27.5 -11s-24.5 -4.5 -40.5 -5.5s-36 -1.5 -60 -1.5h-24c-5.33301 0 -12.666 0.333008 -21.999 1v113c17.333 0 31.5 1.33301 42.5 4s19.5 7 25.5 13s10.167 14.333 12.5 25s3.5 24.334 3.5 41.001v80z" />
    <glyph glyph-name="asciitilde" unicode="~" horiz-adv-x="667" 
d="M93 613c19.333 48 41 83.001 65 105.001s52 33 84 33c8 0 15.167 -0.5 21.5 -1.5s14.333 -3 24 -6s22 -7.5 37 -13.5s34.5 -14.333 58.5 -25c18.667 -8 35 -12 49 -12c13.333 0 25 4.5 35 13.5s21.333 24.833 34 47.5l76 -63
c-9.33301 -21.3359 -17.333 -38.1689 -24 -50.5c-6.66699 -12.333 -14 -23.833 -22 -34.5c-14 -17.333 -30 -30.833 -48 -40.5s-36.667 -14.5 -56 -14.5c-6 0 -11.5 0.333008 -16.5 1c-5 0.683594 -11.667 2.35059 -20 5c-8.33301 2.66699 -20 7 -35 13l-62.5 25
c-12.667 5.33301 -23.167 9.16602 -31.5 11.499c-8.33398 2.33301 -16.167 3.5 -23.5 3.5c-13.333 0 -25 -4.33301 -35 -13s-21.333 -24.667 -34 -48z" />
    <glyph glyph-name="uni00A0" unicode="&#xa0;" horiz-adv-x="291" 
 />
    <glyph glyph-name="exclamdown" unicode="&#xa1;" horiz-adv-x="370" 
d="M108 323h120l15 -456h-150zM169 544c23.333 0 42.999 -8.16699 58.999 -24.5s24 -36.166 24 -59.499c0 -22.667 -8.16699 -42.167 -24.5 -58.5s-35.833 -24.5 -58.5 -24.5c-23.333 0 -43.166 8.16699 -59.499 24.5c-16.333 16.334 -24.5 36.167 -24.5 59.499
c0 11.333 2.16699 22 6.5 32s10.333 18.833 18 26.5s16.5 13.667 26.5 18s21 6.5 33 6.5z" />
    <glyph glyph-name="cent" unicode="&#xa2;" 
d="M290 112c35.333 0 65.998 17 91.998 51l86 -100c-29.333 -26 -57.666 -44.667 -84.999 -56s-58.333 -17 -93 -17h-11.5c-5 0 -9.83301 0.333008 -14.5 1l-18 -81h-53l19 89c-52 14 -92.833 40.5 -122.5 79.5s-44.5 86.5 -44.5 142.5c0 35.333 6 67.833 18 97.5
s28.833 55.167 50.5 76.5s47.667 37.833 78 49.5s63.5 17.5 99.5 17.5h9.5c3 0 7.16699 -0.333008 12.5 -1l15 69h53l-17 -78c19.333 -6 36.833 -13.667 52.5 -23s32.834 -22.333 51.501 -39l-91 -99c-6 8 -11.833 14.5 -17.5 19.5s-13.167 9.83301 -22.5 14.5zM284.998 334
c-28.667 -4 -51.667 -16 -69 -36s-26 -45 -26 -75c0 -40 16.667 -71.667 50 -95z" />
    <glyph glyph-name="sterling" unicode="&#xa3;" 
d="M400 296l-102.999 -0.000976562c7.33301 -17.333 11 -32.666 11 -45.999s-2.66699 -26.333 -8 -39s-13.666 -27.667 -24.999 -45c12 -2 29 -8.66699 51 -20l29 -14.5c7.33301 -3.66699 13.5 -6.33398 18.5 -8c5 -1.66797 9.16699 -2.83496 12.5 -3.50098
c3.33301 -0.666992 7 -1 11 -1c12.667 0 24.167 4.16699 34.5 12.5s18.833 19.833 25.5 34.5h14v-143c-30 -22 -60.333 -33 -91 -33c-14 0 -29.667 3.33301 -47 10s-40.333 18.334 -69 35.001c-19.333 11.333 -33.333 18.666 -42 21.999s-17.667 5 -27 5
c-26.667 0 -41.667 -20.667 -45 -62h-115c-0.666992 54 8.33301 94.5 27 121.5s51 46.5 97 58.5c6 11.333 10.333 21 13 29s4 16.667 4 26c0 4.66797 -0.333008 8.83496 -1 12.501c-0.666992 3.66699 -1.83398 7.66699 -3.50098 12s-4.16699 9.33301 -7.5 15
s-8 12.834 -14 21.501h-119v62h76c-30.667 30 -46 69 -46 117c0 26.667 5.16699 51.167 15.5 73.5s24.666 41.5 42.999 57.5s40.333 28.5 66 37.5s54.167 13.5 85.5 13.5c37.333 0 70.333 -7 99 -21s51.334 -34 68.001 -60c9.33301 -14.667 16.333 -31.334 21 -50.001
s6.66699 -41.667 6 -69h-136c0 29.334 -4.5 50.167 -13.5 62.5s-24.167 18.5 -45.5 18.5c-17.333 0 -31.333 -5.5 -42 -16.5s-16 -26.167 -16 -45.5c0 -12.667 2.16699 -24 6.5 -34s12.166 -23.333 23.499 -40l33 -44h125v-62z" />
    <glyph glyph-name="currency" unicode="&#xa4;" 
d="M47 468l74.9971 75.001l41 -41c16.667 9.33301 31.834 15.666 45.5 18.999c13.667 3.33301 29.167 5 46.5 5s33.333 -1.83301 48 -5.5s30.334 -9.83398 47.001 -18.501l41 41l76 -75l-42 -42c8.66699 -15.333 14.834 -30.333 18.501 -45s5.5 -30.667 5.5 -48
c0 -16.667 -1.83301 -32.334 -5.5 -47c-3.66797 -14.667 -9.83496 -30 -18.5 -46l42 -41l-76 -75l-41 41c-15.333 -8 -30.666 -14 -45.999 -18s-31.666 -6 -48.999 -6s-32.833 1.66699 -46.5 5s-28.834 9.33301 -45.501 18l-41 -40l-75 75l42 42
c-8.66699 16.667 -15 32.334 -19 47.001s-6 29.667 -6 45c0 30.667 8.33301 61.667 25 93zM255.997 433.001c-13.333 0 -26 -2.66699 -38 -8s-22.5 -12.5 -31.5 -21.5s-16.167 -19.5 -21.5 -31.5s-8 -24.667 -8 -38c0 -14 2.5 -27.167 7.5 -39.5s12 -23 21 -32
s19.5 -16.167 31.5 -21.5s25 -8 39 -8s27.167 2.66699 39.5 8s23 12.5 32 21.5s16.167 19.5 21.5 31.5s8 25 8 39s-2.66699 27 -8 39s-12.5 22.5 -21.5 31.5s-19.667 16.167 -32 21.5s-25.5 8 -39.5 8z" />
    <glyph glyph-name="yen" unicode="&#xa5;" horiz-adv-x="597" 
d="M552 425v-62h-124l-51 -101v-4h168v-62h-168v-196h-152v196h-168v62h168v4l-52 101h-123v62h91l-114 218h173l112 -252l98 252h161l-111 -218h92z" />
    <glyph glyph-name="brokenbar" unicode="&#xa6;" horiz-adv-x="500" 
d="M328 667v-354h-157v354h157zM328 153v-320h-157v320h157z" />
    <glyph glyph-name="section" unicode="&#xa7;" horiz-adv-x="511" 
d="M316 516c-7.33301 35.333 -27.666 53.0029 -60.999 53.0029c-14 0 -25.333 -3.5 -34 -10.5s-13 -16.5 -13 -28.5c0 -10 2.5 -17.5 7.5 -22.5s17.5 -12.167 37.5 -21.5l119 -55c38 -17.333 65.667 -38.5 83 -63.5s26 -56.5 26 -94.5c0 -32 -7.16699 -59.667 -21.5 -83
s-34.833 -40.666 -61.5 -51.999c19.334 -16.667 32.667 -32.334 39.999 -47.001c7.33301 -14.667 11 -32.667 11 -54c0 -25.333 -5 -48.333 -15 -69s-23.833 -38.5 -41.5 -53.5s-38.834 -26.667 -63.5 -35c-24.667 -8.33301 -51.667 -12.5 -81 -12.5
c-35.333 0 -66.5 5.5 -93.5 16.5s-48.5 26.833 -64.5 47.5c-9.33301 11.333 -16 23 -20 35s-7.33301 28 -10 48l130 29c1.33301 -19.333 7.5 -34.5 18.5 -45.5s26.167 -16.5 45.5 -16.5c16.667 0 29.834 4.16699 39.501 12.5s14.5 19.5 14.5 33.5
c0 19.333 -11 34.666 -33 45.999l-160 80c-30 15.333 -51.667 34 -65 56s-20 49.667 -20 83c0 16.667 1.5 31.5 4.5 44.5s8 24.833 15 35.5s16.167 20.667 27.5 30s25.666 19 42.999 29c-16 12.667 -27.667 26.667 -35 42s-11 34 -11 56c0 22.667 4.5 43.167 13.5 61.5
s21.667 34.166 38 47.499s35.833 23.666 58.5 30.999s47.667 11 75 11c95.333 0 157 -42.333 185 -127zM246 230.003c22.667 -11.333 41.334 -17 56.001 -17c13.333 0 24.5 4.5 33.5 13.5s13.5 19.833 13.5 32.5c0 21.334 -17.667 41.667 -53 61l-31 17
c-21.333 11.333 -40.333 17 -57 17c-12.667 0 -23.667 -4.5 -33 -13.5s-14 -19.833 -14 -32.5c0 -11.333 4.16699 -21.833 12.5 -31.5s22.166 -19.5 41.499 -29.5z" />
    <glyph glyph-name="dieresis" unicode="&#xa8;" horiz-adv-x="500" 
d="M325 693c36 0 54 -24.333 54 -73c0 -46.667 -18.333 -70 -55 -70s-55 23.667 -55 71c0 48 18.667 72 56 72zM178 693c36 0 54 -24.333 54 -73c0 -46.667 -18.333 -70 -55 -70s-55 23.667 -55 71c0 48 18.667 72 56 72z" />
    <glyph glyph-name="copyright" unicode="&#xa9;" horiz-adv-x="747" 
d="M531 255c-17.333 -86.667 -69.668 -130.001 -157.001 -130.001c-52 0 -91.5 17 -118.5 51s-40.5 84.333 -40.5 151c0 72.667 13.5 126.5 40.5 161.5s68.833 52.5 125.5 52.5c44 0 77.833 -10.167 101.5 -30.5s39.834 -52.833 48.501 -97.5l-102 -22
c-3.33301 26.667 -8.33301 45.167 -15 55.5c-6.66797 10.333 -17.335 15.5 -32 15.5c-20 0 -34.5 -10.333 -43.5 -31s-13.5 -54 -13.5 -100c0 -81.333 18.333 -122 55 -122c14.667 0 25.667 5.83301 33 17.5c7.33691 11.667 12.6699 31.834 16 60.501zM369.998 673.999
c48 0 92.833 -8.83691 134.5 -26.5039s78 -41.834 109 -72.501s55.333 -66.667 73 -108s26.5 -85.666 26.5 -132.999s-8.83301 -91.666 -26.5 -132.999s-42 -77.5 -73 -108.5s-67.333 -55.333 -109 -73s-86.167 -26.5 -133.5 -26.5c-46.667 0 -90.167 8.5 -130.5 25.5
s-76.166 41.833 -107.499 74.5c-32 32.667 -56.667 70.334 -74 113.001s-26 86.334 -26 131.001c0 20 2.33301 40.833 7 62.5s11.334 42.834 20.001 63.501s19.167 40.5 31.5 59.5s26.166 36.167 41.499 51.5c31.333 32.667 67.166 57.5 107.499 74.5s83.5 25.5 129.5 25.5z
M370.998 603.995c-74.667 0 -137.665 -26.334 -188.998 -79.001c-24 -25.333 -43.167 -55 -57.5 -89s-21.5 -67 -21.5 -99c0 -38 7 -73.667 21 -107s33.167 -62.333 57.5 -87s52.666 -44.167 84.999 -58.5c32.334 -14.333 67.167 -21.5 104.5 -21.5c38 0 73.5 7 106.5 21
s61.667 33.333 86 58s43.666 53.334 57.999 86.001s21.5 68 21.5 106c0 37.333 -7.16699 72.5 -21.5 105.5c-14.3359 33 -33.6689 61.667 -58 86c-24.333 24.333 -53 43.5 -86 57.5s-68.5 21 -106.5 21z" />
    <glyph glyph-name="ordfeminine" unicode="&#xaa;" horiz-adv-x="350" 
d="M311 267h-97.001v45c-11.333 -18.667 -23.333 -32 -36 -40s-28.334 -12 -47.001 -12c-33.333 0 -59.166 13.333 -77.499 40s-27.5 63.667 -27.5 111c0 48 9.83301 86.333 29.5 115s45.5 43 77.5 43c34.667 0 62.334 -17 83.001 -51v44h95v-295zM168.999 496
c-14.667 0 -25 -6.16699 -31 -18.5s-9 -33.5 -9 -63.5s3 -51.167 9 -63.5s16.333 -18.5 31 -18.5c15.333 0 26.333 6.5 33 19.5s10 33.5 10 61.5c0 29.333 -3.33301 50.5 -10 63.5s-17.667 19.5 -33 19.5z" />
    <glyph glyph-name="guillemotleft" unicode="&#xab;" horiz-adv-x="515" 
d="M319 110l-49 144l49 143h136l-53 -143l53 -144h-136zM112 110l-49 144l49 143h136l-52 -143l52 -144h-136z" />
    <glyph glyph-name="logicalnot" unicode="&#xac;" horiz-adv-x="500" 
d="M314 155h-281v137h433v-292h-152v155z" />
    <glyph glyph-name="uni00AD" unicode="&#xad;" horiz-adv-x="373" 
d="M323 327v-137h-273v137h273z" />
    <glyph glyph-name="registered" unicode="&#xae;" horiz-adv-x="747" 
d="M376 533c29.333 0 52.5 -2.00195 69.5 -6.00195s32.167 -11.333 45.5 -22c13.333 -9.33301 23.5 -21.666 30.5 -36.999s10.5 -32.666 10.5 -51.999c0 -62 -35 -99.333 -105 -112l107 -171h-118l-84 153v-153h-106v400h150zM337 367.998c32.667 0 55.167 3.16699 67.5 9.5
s18.5 17.833 18.5 34.5s-6.16699 28.167 -18.5 34.5s-34.833 9.5 -67.5 9.5h-5v-88h5zM370 673.998c48 0 92.833 -8.83691 134.5 -26.5039s78 -41.834 109 -72.501s55.333 -66.667 73 -108s26.5 -85.666 26.5 -132.999s-8.83301 -91.666 -26.5 -132.999
s-42 -77.5 -73 -108.5s-67.333 -55.333 -109 -73s-86.167 -26.5 -133.5 -26.5c-46.667 0 -90.167 8.5 -130.5 25.5s-76.166 41.833 -107.499 74.5c-32 32.667 -56.667 70.334 -74 113.001s-26 86.334 -26 131.001c0 20 2.33301 40.833 7 62.5s11.334 42.834 20.001 63.501
s19.167 40.5 31.5 59.5s26.166 36.167 41.499 51.5c31.333 32.667 67.166 57.5 107.499 74.5s83.5 25.5 129.5 25.5zM371 603.994c-74.667 0 -137.665 -26.334 -188.998 -79.001c-24 -25.333 -43.167 -55 -57.5 -89s-21.5 -67 -21.5 -99c0 -38 7 -73.667 21 -107
s33.167 -62.333 57.5 -87s52.666 -44.167 84.999 -58.5c32.334 -14.333 67.167 -21.5 104.5 -21.5c38 0 73.5 7 106.5 21s61.667 33.333 86 58s43.666 53.334 57.999 86.001s21.5 68 21.5 106c0 37.333 -7.16699 72.5 -21.5 105.5c-14.3359 33 -33.6689 61.667 -58 86
c-24.333 24.333 -53 43.5 -86 57.5s-68.5 21 -106.5 21z" />
    <glyph glyph-name="macron" unicode="&#xaf;" horiz-adv-x="500" 
d="M376 643v-67h-253v67h253z" />
    <glyph glyph-name="degree" unicode="&#xb0;" 
d="M255 657c22 0 42.499 -4.00098 61.499 -12.001s35.5 -19 49.5 -33s25.167 -30.5 33.5 -49.5s12.5 -39.167 12.5 -60.5c0 -22 -4.16699 -42.5 -12.5 -61.5s-19.5 -35.5 -33.5 -49.5s-30.5 -25 -49.5 -33s-39.167 -12 -60.5 -12s-41.5 4.16699 -60.5 12.5
s-35.5 19.5 -49.5 33.5s-25 30.5 -33 49.5s-12 39.5 -12 61.5c0 20.6689 4.16699 40.3359 12.5 59.001c8.33301 18.667 19.5 35 33.5 49s30.333 25.167 49 33.5s38.334 12.5 59.001 12.5zM255.999 567.999c-18 0 -33.5 -6.5 -46.5 -19.5s-19.5 -28.5 -19.5 -46.5
c0 -18.667 6.33301 -34.5 19 -47.5s28.334 -19.5 47 -19.5c18.667 0 34.5 6.5 47.5 19.5s19.5 28.833 19.5 47.5c0 18 -6.5 33.5 -19.5 46.5s-28.833 19.5 -47.5 19.5z" />
    <glyph glyph-name="plusminus" unicode="&#xb1;" 
d="M27 288v107h177v157h107v-157h176v-107h-176v-156h-107v156h-177zM487 107v-107h-460v107h460z" />
    <glyph glyph-name="uni00B2" unicode="&#xb2;" horiz-adv-x="333" 
d="M281 341l0.00195312 -82.9971h-260l15 36l120 182c18.667 29.333 28 51.666 28 66.999c0 9.33301 -2.66699 16.666 -8 21.999s-12.333 8 -21 8c-10 0 -17.833 -3.66699 -23.5 -11c-5.66699 -7.33789 -8.5 -17.6709 -8.5 -31v-13h-94c0 16 0.666992 27.833 2 35.5
s3.66602 16.5 6.99902 26.5c7.33301 22.667 22.166 40.167 44.499 52.5s49.5 18.5 81.5 18.5c38 0 68.333 -9.33301 91 -28s34 -43.334 34 -74.001c0 -16 -2.83301 -31.667 -8.5 -47s-15.167 -32 -28.5 -50l-80 -111h109z" />
    <glyph glyph-name="uni00B3" unicode="&#xb3;" horiz-adv-x="333" 
d="M297 643v-16l-94 -113c14 -2 24.833 -4.33301 32.5 -7c7.66699 -2.6709 14.5 -6.33789 20.5 -11.001c12.667 -10 22.167 -23.5 28.5 -40.5s9.5 -36.167 9.5 -57.5c0 -46.667 -12.833 -83.167 -38.5 -109.5s-60.834 -39.5 -105.501 -39.5c-40 0 -71 10.333 -93 31
s-33 50 -33 88v8l94 15c0.666992 -23.333 3.83398 -40.166 9.50098 -50.499s14.834 -15.5 27.5 -15.5c12 0 20.833 5.16699 26.5 15.5c5.66699 10.334 8.5 27.167 8.5 50.5c0 20 -2.66699 34.5 -8 43.5s-14 13.5 -26 13.5c-7.33398 0 -13.167 -1.66699 -17.5 -5
s-9.83301 -10.333 -16.5 -21l-50 46l81 96h-110v79h254z" />
    <glyph glyph-name="acute" unicode="&#xb4;" horiz-adv-x="500" 
d="M407 697v-13l-120 -127h-98l65 140h153z" />
    <glyph glyph-name="mu" unicode="&#xb5;" horiz-adv-x="537" 
d="M203 490v-249.999c0 -44.667 5.66699 -77.167 17 -97.5s29.666 -30.5 54.999 -30.5c25.334 0 43.667 10.167 55 30.5s17 52.833 17 97.5v250h143v-290c0 -42 -5.66699 -76.5 -17 -103.5s-29.666 -50.167 -54.999 -69.5c-19.333 -14 -39.833 -24.167 -61.5 -30.5
s-48.5 -9.5 -80.5 -9.5c-17.333 0 -32 0.666992 -44 2s-25.333 3.66602 -40 6.99902v-167h-132v661h143z" />
    <glyph glyph-name="paragraph" unicode="&#xb6;" horiz-adv-x="662" 
d="M395 -127h-126.999v432c-147.333 8 -221 70.667 -221 188c0 30 5.5 56.667 16.5 80s26.5 42.333 46.5 57c10 6.66699 20.167 12.5 30.5 17.5s22 8.83301 35 11.5s27.667 4.66699 44 6s35.166 2 56.499 2h320v-794h-127v661h-74v-661z" />
    <glyph glyph-name="periodcentered" unicode="&#xb7;" horiz-adv-x="267" 
d="M133 284c12 0 23 -2.16699 33 -6.5s18.833 -10.333 26.5 -18s13.667 -16.5 18 -26.5s6.5 -20.667 6.5 -32c0 -23.333 -8.16699 -43.166 -24.5 -59.499c-16.334 -16.333 -36.167 -24.5 -59.5 -24.5s-43 8.16699 -59 24.5s-24 36.166 -24 59.499
c0 22.667 8.16699 42.167 24.5 58.5s35.833 24.5 58.5 24.5z" />
    <glyph glyph-name="cedilla" unicode="&#xb8;" horiz-adv-x="500" 
d="M258 -54c8 1.33301 14.333 2.33203 19 2.99902s9.66699 1 15 1c18 0 32.833 -5.83301 44.5 -17.5s17.5 -26.167 17.5 -43.5c0 -21.333 -9.83301 -38.666 -29.5 -51.999s-45.5 -20 -77.5 -20c-18 0 -35.833 2.33301 -53.5 7s-33.5 11 -47.5 19l21 34
c10.667 -5.33301 22.5 -9.83301 35.5 -13.5s24.5 -5.5 34.5 -5.5c11.333 0 20.666 3 27.999 9s11 13.667 11 23c0 7.33301 -2.66699 13.5 -8 18.5s-11.666 7.5 -18.999 7.5c-4 0 -8 -0.333008 -12 -1c-4 -0.666016 -10.667 -2.33301 -20 -5l-13 13l60 80h33z" />
    <glyph glyph-name="uni00B9" unicode="&#xb9;" horiz-adv-x="333" 
d="M230 257l-102 0.00195312v274c-14 -8.66699 -26 -15 -36 -19s-22.667 -7.66699 -38 -11v79c25.333 7.33301 49.833 17.666 73.5 30.999s41.167 26.666 52.5 39.999h50v-394z" />
    <glyph glyph-name="ordmasculine" unicode="&#xba;" horiz-adv-x="353" 
d="M176 570c50 0 87.667 -13.335 113 -40.002s38 -66 38 -118c0 -49.333 -13 -87.166 -39 -113.499s-63.333 -39.5 -112 -39.5s-85.834 13.333 -111.501 40s-38.5 65 -38.5 115c0 50.667 12.833 89.334 38.5 116.001s62.834 40 111.501 40zM176 494.998
c-16.667 0 -28.666 -6.33398 -35.999 -19.001s-11 -33 -11 -61s3.66699 -48.333 11 -61s19.666 -19 36.999 -19c31.333 0 47 26.333 47 79c0 28.667 -3.66699 49.334 -11 62.001c-7.33398 12.667 -19.667 19 -37 19z" />
    <glyph glyph-name="guillemotright" unicode="&#xbb;" horiz-adv-x="515" 
d="M196 397l49 -143l-49 -144h-136l52 144l-52 143h136zM402 397l50 -143l-50 -144h-135l52 144l-52 143h135z" />
    <glyph glyph-name="onequarter" unicode="&#xbc;" horiz-adv-x="800" 
d="M230 257l-102 0.00195312v274c-14 -8.66699 -26 -15 -36 -19s-22.667 -7.66699 -38 -11v79c25.333 7.33301 49.833 17.666 73.5 30.999s41.167 26.666 52.5 39.999h50v-394zM614 643.002l-337 -643h-90l337 643h90zM730 140.002h42v-77h-42v-63h-96v63h-149v69l119 256
h126v-248zM634 303.002l-75 -163h75v163z" />
    <glyph glyph-name="onehalf" unicode="&#xbd;" horiz-adv-x="800" 
d="M230 257l-102 0.00195312v274c-14 -8.66699 -26 -15 -36 -19s-22.667 -7.66699 -38 -11v79c25.333 7.33301 49.833 17.666 73.5 30.999s41.167 26.666 52.5 39.999h50v-394zM614 643.002l-337 -643h-90l337 643h90zM748 83.002l0.00195312 -83.001h-260l15 36l120 183
c18.667 28.667 28 51.334 28 68.001c0 9.33496 -2.66699 16.668 -8 22c-5.33301 5.33301 -12.333 8 -21 8c-21.333 0 -32 -14.333 -32 -43v-13h-94c0 16 0.666992 27.833 2 35.5c1.34082 7.66699 3.67383 16.5 6.99902 26.5c7.33301 22.667 22.166 40.167 44.499 52.5
s49.5 18.5 81.5 18.5c38 0 68.333 -9.33301 91 -28s34 -43.334 34 -74c0 -16 -2.83301 -31.833 -8.5 -47.5s-15.167 -32.167 -28.5 -49.5l-80 -112h109z" />
    <glyph glyph-name="threequarters" unicode="&#xbe;" horiz-adv-x="800" 
d="M297 643v-16l-94 -113c14 -2 24.833 -4.33301 32.5 -7c7.66699 -2.6709 14.5 -6.33789 20.5 -11.001c12.667 -10 22.167 -23.5 28.5 -40.5s9.5 -36.167 9.5 -57.5c0 -46.667 -12.833 -83.167 -38.5 -109.5s-60.834 -39.5 -105.501 -39.5c-40 0 -71 10.333 -93 31
s-33 50 -33 88v8l94 15c0.666992 -23.333 3.83398 -40.166 9.50098 -50.499s14.834 -15.5 27.5 -15.5c12 0 20.833 5.16699 26.5 15.5c5.66699 10.334 8.5 27.167 8.5 50.5c0 20 -2.66699 34.5 -8 43.5s-14 13.5 -26 13.5c-7.33398 0 -13.167 -1.66699 -17.5 -5
s-9.83301 -10.333 -16.5 -21l-50 46l81 96h-110v79h254zM614 643l-337 -643h-90l337 643h90zM730 140h42v-77h-42v-63h-96v63h-148v69l119 256h125v-248zM634 303l-75 -163h75v163z" />
    <glyph glyph-name="questiondown" unicode="&#xbf;" horiz-adv-x="510" 
d="M447 68c-0.666992 -20 -1.50098 -37.166 -2.50098 -51.499s-2.5 -26.666 -4.5 -36.999s-4.66699 -19.5 -8 -27.5s-7.66602 -15.667 -12.999 -23c-16 -23.333 -38.833 -41.666 -68.5 -54.999s-62.834 -20 -99.5 -20c-28 0 -53.5 4.33301 -76.5 13s-42.833 20.667 -59.5 36
s-29.5 34 -38.5 56s-13.5 46 -13.5 72s4.66699 51.167 14 75.5s24 49.5 44 75.5l42 54c17.333 22.667 29 39.834 35 51.501s9 23.5 9 35.5h133c0 -18 -1.66699 -32.833 -5 -44.5s-10.333 -24.834 -21 -39.501l-63 -91c-8 -11.333 -14.333 -21.333 -19 -30
s-8.5 -16.834 -11.5 -24.501s-5 -15.334 -6 -23c-1 -7.66699 -1.5 -16.5 -1.5 -26.5c0 -22.667 4.5 -40.334 13.5 -53.001s21.5 -19 37.5 -19c15.333 0 27.5 6.66699 36.5 20s13.5 31.666 13.5 54.999v21h133zM273.999 544.001c23.333 0 42.999 -8.16797 58.999 -24.501
s24 -36.166 24 -59.499c0 -22.667 -8.16699 -42.167 -24.5 -58.5s-35.833 -24.5 -58.5 -24.5c-23.333 0 -43.166 8.16699 -59.499 24.5c-16.333 16.334 -24.5 36.167 -24.5 59.5c0 11.333 2.16699 22 6.5 32s10.333 18.833 18 26.5s16.5 13.667 26.5 18s21 6.5 33 6.5z" />
    <glyph glyph-name="Agrave" unicode="&#xc0;" horiz-adv-x="609" 
d="M593 0h-169l-23 105h-198l-25 -105h-161l195 670h192zM306 519l-72 -294h139zM369 727h-98l-120 127v13h153z" />
    <glyph glyph-name="Aacute" unicode="&#xc1;" horiz-adv-x="609" 
d="M593 0h-169l-23 105h-198l-25 -105h-161l195 670h192zM306 519l-72 -294h139zM465 867v-13l-120 -127h-98l65 140h153z" />
    <glyph glyph-name="Acircumflex" unicode="&#xc2;" horiz-adv-x="609" 
d="M593 0h-169l-23 105h-198l-25 -105h-161l195 670h192zM306 519l-72 -294h139zM264 727h-89l60 140h147l60 -140h-89l-45 68z" />
    <glyph glyph-name="Atilde" unicode="&#xc3;" horiz-adv-x="609" 
d="M593 0h-169l-23 105h-198l-25 -105h-161l195 670h192zM306 519l-72 -294h139zM434 860c0.666992 -3.35938 1 -6.69238 1 -10v-7c0 -75.333 -25.333 -113 -76 -113c-5.33301 0 -9.66602 0.166992 -12.999 0.5s-7.33301 1.33301 -12 3s-10.5 4 -17.5 7
s-16.5 7.16699 -28.5 12.5c-8 4 -15.333 6 -22 6c-7.33301 0 -13.333 -3 -18 -9s-7.33398 -13.667 -8.00098 -23h-58v16c0 69.333 24.667 104 74 104c8 0 17.167 -1.66699 27.5 -5c10.334 -3.33301 24.167 -9 41.499 -17c10.667 -4.66699 18.334 -7 23.001 -7
c17.333 0 27 14 29 42h57z" />
    <glyph glyph-name="Adieresis" unicode="&#xc4;" horiz-adv-x="609" 
d="M593 0h-169l-23 105h-198l-25 -105h-161l195 670h192zM306 519l-72 -294h139zM383 863c36 0 54 -24.333 54 -73c0 -46.667 -18.333 -70 -55 -70s-55 23.667 -55 71c0 48 18.667 72 56 72zM236 863c36 0 54 -24.333 54 -73c0 -46.667 -18.333 -70 -55 -70
s-55 23.667 -55 71c0 48 18.667 72 56 72z" />
    <glyph glyph-name="Aring" unicode="&#xc5;" horiz-adv-x="609" 
d="M593 0h-169l-23 105h-198l-25 -105h-161l195 670h192zM306 519l-72 -294h139zM308 885c12.667 0 24.834 -2.50098 36.501 -7.50098s21.667 -11.667 30 -20c8.33301 -8.33984 15 -18.1729 20 -29.5c5 -11.333 7.5 -23.333 7.5 -36c0 -13.3389 -2.5 -25.6719 -7.5 -36.999
c-5 -11.3389 -11.667 -21.1719 -20 -29.5c-8.33301 -8.33301 -18.333 -15 -30 -20s-23.834 -7.5 -36.5 -7.5c-26 0 -48 9.16699 -66 27.5s-27 40.833 -27 67.5c0 12.667 2.5 24.5 7.5 35.5s11.667 20.667 20 29s18.166 15 29.499 20s23.333 7.5 36 7.5zM308 841.999
c-13.333 0 -25 -5 -35 -15s-15 -21.667 -15 -35c0 -14 4.83301 -26 14.5 -36s21.5 -15 35.5 -15s26 5 36 15s15 22 15 36c0 13.333 -5 25 -15 35s-22 15 -36 15z" />
    <glyph glyph-name="AE" unicode="&#xc6;" horiz-adv-x="838" 
d="M196 107l-32 -107h-165l228 667h567v-127h-260v-133h260v-123h-260v-154h260v-130h-417v107h-181zM377 544h-39l-102 -320h141v320z" />
    <glyph glyph-name="Ccedilla" unicode="&#xc7;" horiz-adv-x="565" 
d="M291 -54c8 1.33301 14.332 2.33203 18.999 2.99902s9.66699 1 15 1c18 0 32.833 -5.83301 44.5 -17.5s17.5 -26.167 17.5 -43.5c0 -21.333 -9.83301 -38.666 -29.5 -51.999s-45.5 -20 -77.5 -20c-18 0 -35.833 2.33301 -53.5 7s-33.5 11 -47.5 19l21 34
c10.667 -5.33301 22.5 -9.83301 35.5 -13.5s24.5 -5.5 34.5 -5.5c11.334 0 20.667 3 27.999 9c7.33301 6 11 13.667 11 23c0 7.33301 -2.66699 13.5 -8 18.5s-11.666 7.5 -18.999 7.5c-4 0 -8 -0.333008 -12 -1c-4 -0.666016 -10.667 -2.33301 -20 -5l-13 14l47 63
c-158 6 -237 118 -237 336c0 122 21 212 63 270s106.667 87 194 87c68 0 120.667 -16.667 158 -50c37.333 -33.334 62 -85.667 74 -157l-151 -34c-4.66699 42.667 -13 73 -25 91s-30 27 -54 27c-33.333 0 -57.5 -18 -72.5 -54s-22.5 -93.333 -22.5 -172
c0 -72.667 7.5 -126.5 22.5 -161.5s38.167 -52.5 69.5 -52.5c23.333 0 41.5 10 54.5 30s22.167 53.667 27.5 101l151 -51c-12.667 -64 -37.667 -114 -75 -150s-84.666 -55.667 -141.999 -59z" />
    <glyph glyph-name="Egrave" unicode="&#xc8;" horiz-adv-x="564" 
d="M511 540h-287v-137h287v-120h-287v-153h287v-130h-444v667h444v-127zM356 727h-98l-120 127v13h153z" />
    <glyph glyph-name="Eacute" unicode="&#xc9;" horiz-adv-x="564" 
d="M511 540h-287v-137h287v-120h-287v-153h287v-130h-444v667h444v-127zM453 867v-13l-120 -127h-98l65 140h153z" />
    <glyph glyph-name="Ecircumflex" unicode="&#xca;" horiz-adv-x="564" 
d="M511 540h-287v-137h287v-120h-287v-153h287v-130h-444v667h444v-127zM251 727h-89l60 140h147l60 -140h-89l-44 68z" />
    <glyph glyph-name="Edieresis" unicode="&#xcb;" horiz-adv-x="564" 
d="M511 540h-287v-137h287v-120h-287v-153h287v-130h-444v667h444v-127zM363 863c36 0 54 -24.333 54 -73c0 -46.667 -18.333 -70 -55 -70s-55 23.667 -55 71c0 48 18.667 72 56 72zM216 863c36 0 54 -24.333 54 -73c0 -46.667 -18 -70 -54 -70c-36.667 0 -55 23.667 -55 71
c0 48 18.333 72 55 72z" />
    <glyph glyph-name="Igrave" unicode="&#xcc;" horiz-adv-x="291" 
d="M223 667v-667h-157v667h157zM206 727h-98l-120 127v13h153z" />
    <glyph glyph-name="Iacute" unicode="&#xcd;" horiz-adv-x="291" 
d="M224 667v-667h-157v667h157zM303 867v-13l-120 -127h-98l65 140h153z" />
    <glyph glyph-name="Icircumflex" unicode="&#xce;" horiz-adv-x="291" 
d="M224 667v-667h-157v667h157zM101 727h-89l60 140h147l60 -140h-89l-45 68z" />
    <glyph glyph-name="Idieresis" unicode="&#xcf;" horiz-adv-x="291" 
d="M224 667v-667h-157v667h157zM213 863c36 0 54 -24.333 54 -73c0 -46.667 -18 -70 -54 -70c-36.667 0 -55 23.667 -55 71c0 48 18.333 72 55 72zM80 863c36 0 54 -24.333 54 -73c0 -46.667 -18.333 -70 -55 -70s-55 23.667 -55 71c0 48 18.667 72 56 72z" />
    <glyph glyph-name="Eth" unicode="&#xd0;" horiz-adv-x="652" 
d="M7 284l-0.000976562 107h60v276h213c30 0 56.167 -0.833008 78.5 -2.5s42 -4.83398 59 -9.50098s32.167 -10.667 45.5 -18c13.333 -7.33789 26.333 -16.6709 39 -27.999c62.667 -56 94 -143.667 94 -263c0 -114.667 -28 -204 -84 -268c-24.667 -28 -53.167 -48 -85.5 -60
s-74.166 -18 -125.499 -18h-234v284h-60zM223.999 120h23c65.333 0 112.5 16.833 141.5 50.5s43.5 88.5 43.5 164.5c0 75.333 -13 130 -39 164s-68 51 -126 51h-43v-159h101v-107h-101v-164z" />
    <glyph glyph-name="Ntilde" unicode="&#xd1;" horiz-adv-x="649" 
d="M582 0h-154l-224 458l3 -458h-140v667h154l224 -453l-3 453h140v-667zM451 860v-17c0 -75.333 -25.333 -113 -76 -113c-4.66992 0 -8.83691 0.166992 -12.501 0.5c-3.66895 0.333008 -7.83594 1.33301 -12.5 3c-4.66699 1.66699 -10.5 4 -17.5 7
s-16.5 7.16699 -28.5 12.5c-8 4 -15.333 6 -22 6c-7.33301 0 -13.166 -3 -17.499 -9s-7.16602 -13.667 -8.49902 -23h-57c0 12 0.166992 21.833 0.5 29.5s0.666016 14 0.999023 19s1 9.5 2 13.5s2.5 8 4.5 12c12 30.667 34 46 66 46c8 0 17.167 -1.66699 27.5 -5
c10.334 -3.33301 24.167 -9 41.5 -17c10.667 -4.66699 18 -7 22 -7c18 0 28 14 30 42h57z" />
    <glyph glyph-name="Ograve" unicode="&#xd2;" horiz-adv-x="658" 
d="M333 680c48 0 87.333 -5.83594 118 -17.5029s57.667 -31.167 81 -58.5c12.667 -15.333 23.667 -31.833 33 -49.5s16.833 -37.5 22.5 -59.5c5.67578 -22 9.84277 -46.333 12.5 -73c2.66699 -26.667 4 -56.667 4 -90c0 -32.667 -1.33301 -62.167 -4 -88.5
s-7 -50.166 -13 -71.499s-13.5 -40.833 -22.5 -58.5s-19.833 -34.167 -32.5 -49.5c-23.333 -28 -51.5 -47.833 -84.5 -59.5s-75.5 -17.5 -127.5 -17.5c-45.333 0 -83.833 6.16699 -115.5 18.5s-58.167 31.5 -79.5 57.5c-13.333 16 -24.5 32.833 -33.5 50.5
s-16.333 37.334 -22 59.001s-9.83398 45.667 -12.501 72c-2.66699 26.334 -4 56.167 -4 89.5c0 32.667 1.33301 62.334 4 89.001s6.83398 50.667 12.501 72s13 40.833 22 58.5s20.167 34.167 33.5 49.5c23.333 26.667 51.333 46.167 84 58.5s74 18.5 124 18.5zM329 556.997
c-38 0 -66.167 -17.833 -84.5 -53.5s-27.5 -91.167 -27.5 -166.5c0 -78.667 8.83301 -136.167 26.5 -172.5s46.167 -54.5 85.5 -54.5c38 0 66 18 84 54s27 92.667 27 170c0 76.667 -9 133 -27 169s-46 54 -84 54zM390 726.997h-98l-120 127v13h153z" />
    <glyph glyph-name="Oacute" unicode="&#xd3;" horiz-adv-x="658" 
d="M333 680c48 0 87.333 -5.83594 118 -17.5029s57.667 -31.167 81 -58.5c12.667 -15.333 23.667 -31.833 33 -49.5s16.833 -37.5 22.5 -59.5c5.67578 -22 9.84277 -46.333 12.5 -73c2.66699 -26.667 4 -56.667 4 -90c0 -32.667 -1.33301 -62.167 -4 -88.5
s-7 -50.166 -13 -71.499s-13.5 -40.833 -22.5 -58.5s-19.833 -34.167 -32.5 -49.5c-23.333 -28 -51.5 -47.833 -84.5 -59.5s-75.5 -17.5 -127.5 -17.5c-45.333 0 -83.833 6.16699 -115.5 18.5s-58.167 31.5 -79.5 57.5c-13.333 16 -24.5 32.833 -33.5 50.5
s-16.333 37.334 -22 59.001s-9.83398 45.667 -12.501 72c-2.66699 26.334 -4 56.167 -4 89.5c0 32.667 1.33301 62.334 4 89.001s6.83398 50.667 12.501 72s13 40.833 22 58.5s20.167 34.167 33.5 49.5c23.333 26.667 51.333 46.167 84 58.5s74 18.5 124 18.5zM329 556.997
c-38 0 -66.167 -17.833 -84.5 -53.5s-27.5 -91.167 -27.5 -166.5c0 -78.667 8.83301 -136.167 26.5 -172.5s46.167 -54.5 85.5 -54.5c38 0 66 18 84 54s27 92.667 27 170c0 76.667 -9 133 -27 169s-46 54 -84 54zM486 866.997v-13l-120 -127h-98l65 140h153z" />
    <glyph glyph-name="Ocircumflex" unicode="&#xd4;" horiz-adv-x="658" 
d="M333 680c48 0 87.333 -5.83594 118 -17.5029s57.667 -31.167 81 -58.5c12.667 -15.333 23.667 -31.833 33 -49.5s16.833 -37.5 22.5 -59.5c5.67578 -22 9.84277 -46.333 12.5 -73c2.66699 -26.667 4 -56.667 4 -90c0 -32.667 -1.33301 -62.167 -4 -88.5
s-7 -50.166 -13 -71.499s-13.5 -40.833 -22.5 -58.5s-19.833 -34.167 -32.5 -49.5c-23.333 -28 -51.5 -47.833 -84.5 -59.5s-75.5 -17.5 -127.5 -17.5c-45.333 0 -83.833 6.16699 -115.5 18.5s-58.167 31.5 -79.5 57.5c-13.333 16 -24.5 32.833 -33.5 50.5
s-16.333 37.334 -22 59.001s-9.83398 45.667 -12.501 72c-2.66699 26.334 -4 56.167 -4 89.5c0 32.667 1.33301 62.334 4 89.001s6.83398 50.667 12.501 72s13 40.833 22 58.5s20.167 34.167 33.5 49.5c23.333 26.667 51.333 46.167 84 58.5s74 18.5 124 18.5zM329 556.997
c-38 0 -66.167 -17.833 -84.5 -53.5s-27.5 -91.167 -27.5 -166.5c0 -78.667 8.83301 -136.167 26.5 -172.5s46.167 -54.5 85.5 -54.5c38 0 66 18 84 54s27 92.667 27 170c0 76.667 -9 133 -27 169s-46 54 -84 54zM284 726.997h-89l60 140h147l60 -140h-89l-44 68z" />
    <glyph glyph-name="Otilde" unicode="&#xd5;" horiz-adv-x="658" 
d="M333 680c48 0 87.333 -5.83594 118 -17.5029s57.667 -31.167 81 -58.5c12.667 -15.333 23.667 -31.833 33 -49.5s16.833 -37.5 22.5 -59.5c5.67578 -22 9.84277 -46.333 12.5 -73c2.66699 -26.667 4 -56.667 4 -90c0 -32.667 -1.33301 -62.167 -4 -88.5
s-7 -50.166 -13 -71.499s-13.5 -40.833 -22.5 -58.5s-19.833 -34.167 -32.5 -49.5c-23.333 -28 -51.5 -47.833 -84.5 -59.5s-75.5 -17.5 -127.5 -17.5c-45.333 0 -83.833 6.16699 -115.5 18.5s-58.167 31.5 -79.5 57.5c-13.333 16 -24.5 32.833 -33.5 50.5
s-16.333 37.334 -22 59.001s-9.83398 45.667 -12.501 72c-2.66699 26.334 -4 56.167 -4 89.5c0 32.667 1.33301 62.334 4 89.001s6.83398 50.667 12.501 72s13 40.833 22 58.5s20.167 34.167 33.5 49.5c23.333 26.667 51.333 46.167 84 58.5s74 18.5 124 18.5zM329 556.997
c-38 0 -66.167 -17.833 -84.5 -53.5s-27.5 -91.167 -27.5 -166.5c0 -78.667 8.83301 -136.167 26.5 -172.5s46.167 -54.5 85.5 -54.5c38 0 66 18 84 54s27 92.667 27 170c0 76.667 -9 133 -27 169s-46 54 -84 54zM455 859.997l0.000976562 -17
c0 -75.333 -25.333 -113 -76 -113c-4.66992 0 -8.83691 0.166992 -12.501 0.5c-3.66992 0.333008 -7.83691 1.33301 -12.501 3c-4.66699 1.66699 -10.5 4 -17.5 7s-16.5 7.16699 -28.5 12.5c-8 4 -15.333 6 -22 6c-7.33301 0 -13.166 -3 -17.499 -9
s-7.16602 -13.667 -8.49902 -23h-57c0 12 0.166992 21.833 0.5 29.5s0.666016 14 0.999023 19s1 9.5 2 13.5s2.5 8 4.5 12c12 30.667 34 46 66 46c8 0 17.167 -1.66699 27.5 -5c10.334 -3.33301 24.167 -9 41.5 -17c10.667 -4.66699 18 -7 22 -7c18 0 28 14 30 42h57z" />
    <glyph glyph-name="Odieresis" unicode="&#xd6;" horiz-adv-x="658" 
d="M333 680c48 0 87.333 -5.83594 118 -17.5029s57.667 -31.167 81 -58.5c12.667 -15.333 23.667 -31.833 33 -49.5s16.833 -37.5 22.5 -59.5c5.67578 -22 9.84277 -46.333 12.5 -73c2.66699 -26.667 4 -56.667 4 -90c0 -32.667 -1.33301 -62.167 -4 -88.5
s-7 -50.166 -13 -71.499s-13.5 -40.833 -22.5 -58.5s-19.833 -34.167 -32.5 -49.5c-23.333 -28 -51.5 -47.833 -84.5 -59.5s-75.5 -17.5 -127.5 -17.5c-45.333 0 -83.833 6.16699 -115.5 18.5s-58.167 31.5 -79.5 57.5c-13.333 16 -24.5 32.833 -33.5 50.5
s-16.333 37.334 -22 59.001s-9.83398 45.667 -12.501 72c-2.66699 26.334 -4 56.167 -4 89.5c0 32.667 1.33301 62.334 4 89.001s6.83398 50.667 12.501 72s13 40.833 22 58.5s20.167 34.167 33.5 49.5c23.333 26.667 51.333 46.167 84 58.5s74 18.5 124 18.5zM329 556.997
c-38 0 -66.167 -17.833 -84.5 -53.5s-27.5 -91.167 -27.5 -166.5c0 -78.667 8.83301 -136.167 26.5 -172.5s46.167 -54.5 85.5 -54.5c38 0 66 18 84 54s27 92.667 27 170c0 76.667 -9 133 -27 169s-46 54 -84 54zM403 862.997c36 0 54 -24.333 54 -73
c0 -46.667 -18.333 -70 -55 -70s-55 23.667 -55 71c0 48 18.667 72 56 72zM256 862.997c36 0 54 -24.333 54 -73c0 -46.667 -18.333 -70 -55 -70s-55 23.667 -55 71c0 48 18.667 72 56 72z" />
    <glyph glyph-name="multiply" unicode="&#xd7;" 
d="M117 107l-75 76l139 139l-139 139l75 75l139 -139l140 139l75 -75l-139 -139l139 -139l-75 -76l-140 139z" />
    <glyph glyph-name="Oslash" unicode="&#xd8;" horiz-adv-x="658" 
d="M554 576c9.33301 -14.667 17.167 -30 23.5 -46s11.5 -33.667 15.5 -53s7 -40.5 9 -63.5s3 -48.5 3 -76.5c0 -34 -1.33301 -64.5 -4 -91.5s-6.83398 -51.333 -12.501 -73s-13.167 -41.334 -22.5 -59.001s-20.333 -34.167 -33 -49.5c-23.333 -27.333 -51.5 -47 -84.5 -59
s-74.5 -18 -124.5 -18c-44 0 -80.333 4.83301 -109 14.5s-54.667 25.167 -78 46.5l-57 -72l-41 34l65 82c-18 29.333 -30.833 62.333 -38.5 99s-11.5 83 -11.5 139c0 34 1.33301 64.5 4 91.5s6.83398 51.333 12.501 73c5.66699 21.6689 13 41.3359 22 59.001
c9 17.667 20.167 34.167 33.5 49.5c23.333 27.333 51.5 47 84.5 59s74.5 18 124.5 18c43.333 0 79.333 -4.66699 108 -14c28.667 -9.33594 54.667 -24.6689 78 -46l56 71l43 -32zM239.001 177c18 -44.667 48 -67.001 90 -67.001c38.667 0 67 17.833 85 53.5
s27 91.834 27 168.501c0 17.334 -0.5 33.167 -1.5 47.5s-2.16699 29.833 -3.5 46.5zM419.001 490.999c-17.333 44 -47 65.998 -89 65.998c-38 0 -66.167 -18 -84.5 -54s-27.5 -92 -27.5 -168c0 -15.333 0.5 -30.166 1.5 -44.499s2.16699 -30.166 3.5 -47.499z" />
    <glyph glyph-name="Ugrave" unicode="&#xd9;" horiz-adv-x="647" 
d="M580 667l-0.00195312 -412.002c0 -26.667 -1.16699 -50.167 -3.5 -70.5s-6.33301 -38.666 -12 -54.999s-13.167 -31.166 -22.5 -44.499c-9.33398 -13.333 -20.667 -26 -33.999 -38c-44.667 -40 -106.334 -60 -185 -60c-78.667 0 -140 19 -184 57
c-13.333 11.333 -24.666 23.333 -33.999 36s-16.833 26.834 -22.5 42.501s-9.66699 33.167 -12 52.5s-3.5 41.666 -3.5 66.999v425h157v-417c0 -44 8.5 -77.667 25.5 -101s41.5 -35 73.5 -35c66.667 0 100 50 100 150v403h157zM384.998 726.998h-98l-120 127v13h153z" />
    <glyph glyph-name="Uacute" unicode="&#xda;" horiz-adv-x="647" 
d="M580 667l-0.00195312 -412.002c0 -26.667 -1.16699 -50.167 -3.5 -70.5s-6.33301 -38.666 -12 -54.999s-13.167 -31.166 -22.5 -44.499c-9.33398 -13.333 -20.667 -26 -33.999 -38c-44.667 -40 -106.334 -60 -185 -60c-78.667 0 -140 19 -184 57
c-13.333 11.333 -24.666 23.333 -33.999 36s-16.833 26.834 -22.5 42.501s-9.66699 33.167 -12 52.5s-3.5 41.666 -3.5 66.999v425h157v-417c0 -44 8.5 -77.667 25.5 -101s41.5 -35 73.5 -35c66.667 0 100 50 100 150v403h157zM480.998 866.998v-13l-120 -127h-98l65 140
h153z" />
    <glyph glyph-name="Ucircumflex" unicode="&#xdb;" horiz-adv-x="647" 
d="M580 667l-0.00195312 -412.002c0 -26.667 -1.16699 -50.167 -3.5 -70.5s-6.33301 -38.666 -12 -54.999s-13.167 -31.166 -22.5 -44.499c-9.33398 -13.333 -20.667 -26 -33.999 -38c-44.667 -40 -106.334 -60 -185 -60c-78.667 0 -140 19 -184 57
c-13.333 11.333 -24.666 23.333 -33.999 36s-16.833 26.834 -22.5 42.501s-9.66699 33.167 -12 52.5s-3.5 41.666 -3.5 66.999v425h157v-417c0 -44 8.5 -77.667 25.5 -101s41.5 -35 73.5 -35c66.667 0 100 50 100 150v403h157zM278.998 726.998h-89l60 140h147l60 -140h-89
l-44 68z" />
    <glyph glyph-name="Udieresis" unicode="&#xdc;" horiz-adv-x="647" 
d="M580 667l-0.00195312 -412.002c0 -26.667 -1.16699 -50.167 -3.5 -70.5s-6.33301 -38.666 -12 -54.999s-13.167 -31.166 -22.5 -44.499c-9.33398 -13.333 -20.667 -26 -33.999 -38c-44.667 -40 -106.334 -60 -185 -60c-78.667 0 -140 19 -184 57
c-13.333 11.333 -24.666 23.333 -33.999 36s-16.833 26.834 -22.5 42.501s-9.66699 33.167 -12 52.5s-3.5 41.666 -3.5 66.999v425h157v-417c0 -44 8.5 -77.667 25.5 -101s41.5 -35 73.5 -35c66.667 0 100 50 100 150v403h157zM397.998 862.998c36 0 54 -24.333 54 -73
c0 -46.667 -18.333 -70 -55 -70s-55 23.667 -55 71c0 48 18.667 72 56 72zM250.998 862.998c36 0 54 -24.333 54 -73c0 -46.667 -18.333 -70 -55 -70s-55 23.667 -55 71c0 48 18.667 72 56 72z" />
    <glyph glyph-name="Yacute" unicode="&#xdd;" horiz-adv-x="609" 
d="M197 667l89 -197.001c6 -13.333 10.833 -26.166 14.5 -38.499s7.5 -28.833 11.5 -49.5l112 285h165l-204 -401v-266h-157v266l-208 401h177zM462 866.999v-13l-120 -127h-98l65 140h153z" />
    <glyph glyph-name="Thorn" unicode="&#xde;" horiz-adv-x="601" 
d="M224 667v-111.999h57c26.667 0 50.167 -0.833008 70.5 -2.5s38.5 -4.16699 54.5 -7.5s30.5 -8 43.5 -14s25.5 -13.333 37.5 -22c24.667 -18 43.667 -41.5 57 -70.5s20 -61.833 20 -98.5c0 -78.667 -30 -139.334 -90 -182.001c-26 -18.667 -54.667 -32.167 -86 -40.5
s-69 -12.5 -113 -12.5h-51v-105h-157v667h157zM224 228.001h39c27.333 0 47.5 1.33301 60.5 4s25.5 8 37.5 16s21.5 19.333 28.5 34s10.5 30.667 10.5 48s-3.5 33.333 -10.5 48s-16.5 26 -28.5 34s-24.5 13.333 -37.5 16s-33.167 4 -60.5 4h-39v-204z" />
    <glyph glyph-name="germandbls" unicode="&#xdf;" horiz-adv-x="555" 
d="M67 0v473c0 34 2.83301 62.5 8.5 85.5s15.167 42.5 28.5 58.5c34 42 92.333 63 175 63c60 0 107.167 -14.5 141.5 -43.5s51.5 -68.833 51.5 -119.5c0 -28 -5.16699 -51.667 -15.5 -71s-28.166 -38 -53.499 -56c32.667 -15.333 56.834 -36.833 72.501 -64.5
s23.5 -63.5 23.5 -107.5c0 -33.333 -4.16699 -63.833 -12.5 -91.5s-19.833 -51.5 -34.5 -71.5c-14.668 -20 -32.335 -35.5 -53.001 -46.5c-20.667 -11 -43.334 -16.5 -68 -16.5c-9.33301 0 -18.333 0.5 -27 1.5c-8.66797 1 -19.335 2.83301 -32.001 5.5l-10 120
c9.33301 -4.66699 18.333 -7 27 -7c21.333 0 36.5 8.33301 45.5 25s13.5 45 13.5 85c0 39.333 -5.5 66.833 -16.5 82.5s-30.833 23.5 -59.5 23.5h-10v109h10c39.333 0 59 21.667 59 65c0 21.333 -5 37.833 -15 49.5s-24.333 17.5 -43 17.5
c-21.334 0 -37.167 -7.33301 -47.5 -22s-15.5 -38 -15.5 -70v-477h-143z" />
    <glyph glyph-name="agrave" unicode="&#xe0;" horiz-adv-x="555" 
d="M489 0l-143.001 0.000976562v93c-19.333 -38.667 -39.166 -65.834 -59.499 -81.501s-46.5 -23.5 -78.5 -23.5c-50 0 -89.167 22.167 -117.5 66.5s-42.5 105.833 -42.5 184.5c0 39.334 4 75.167 12 107.5s19.167 60 33.5 83s31.5 40.833 51.5 53.5s42.333 19 67 19
c29.333 0 56.5 -9.66699 81.5 -29s43.5 -45 55.5 -77v94h140v-490zM269.999 390.001c-23.334 0 -41.666 -12.333 -54.999 -37c-5.33301 -11.333 -9 -24.666 -11 -39.999s-3 -38.333 -3 -69c0 -16.667 0.333008 -30.834 1 -42.501s1.66699 -22 3 -31
s3.16602 -16.667 5.49902 -23s5.5 -12.5 9.5 -18.5c12 -20 29 -30 51 -30c21.334 0 38.667 10.333 52 31c13.333 20 20 57.667 20 113c0 24 -0.833008 43.667 -2.5 59c-1.67188 15.333 -4.83887 29 -9.5 41c-5.33301 14.667 -13.5 26.167 -24.5 34.5
s-23.167 12.5 -36.5 12.5zM339 557.001h-98l-120 127v13h153z" />
    <glyph glyph-name="aacute" unicode="&#xe1;" horiz-adv-x="555" 
d="M489 0l-143.001 0.000976562v93c-19.333 -38.667 -39.166 -65.834 -59.499 -81.501s-46.5 -23.5 -78.5 -23.5c-50 0 -89.167 22.167 -117.5 66.5s-42.5 105.833 -42.5 184.5c0 39.334 4 75.167 12 107.5s19.167 60 33.5 83s31.5 40.833 51.5 53.5s42.333 19 67 19
c29.333 0 56.5 -9.66699 81.5 -29s43.5 -45 55.5 -77v94h140v-490zM269.999 390.001c-23.334 0 -41.666 -12.333 -54.999 -37c-5.33301 -11.333 -9 -24.666 -11 -39.999s-3 -38.333 -3 -69c0 -16.667 0.333008 -30.834 1 -42.501s1.66699 -22 3 -31
s3.16602 -16.667 5.49902 -23s5.5 -12.5 9.5 -18.5c12 -20 29 -30 51 -30c21.334 0 38.667 10.333 52 31c13.333 20 20 57.667 20 113c0 24 -0.833008 43.667 -2.5 59c-1.67188 15.333 -4.83887 29 -9.5 41c-5.33301 14.667 -13.5 26.167 -24.5 34.5
s-23.167 12.5 -36.5 12.5zM435 697.001v-13l-120 -127h-98l65 140h153z" />
    <glyph glyph-name="acircumflex" unicode="&#xe2;" horiz-adv-x="555" 
d="M489 0l-143.001 0.000976562v93c-19.333 -38.667 -39.166 -65.834 -59.499 -81.501s-46.5 -23.5 -78.5 -23.5c-50 0 -89.167 22.167 -117.5 66.5s-42.5 105.833 -42.5 184.5c0 39.334 4 75.167 12 107.5s19.167 60 33.5 83s31.5 40.833 51.5 53.5s42.333 19 67 19
c29.333 0 56.5 -9.66699 81.5 -29s43.5 -45 55.5 -77v94h140v-490zM269.999 390.001c-23.334 0 -41.666 -12.333 -54.999 -37c-5.33301 -11.333 -9 -24.666 -11 -39.999s-3 -38.333 -3 -69c0 -16.667 0.333008 -30.834 1 -42.501s1.66699 -22 3 -31
s3.16602 -16.667 5.49902 -23s5.5 -12.5 9.5 -18.5c12 -20 29 -30 51 -30c21.334 0 38.667 10.333 52 31c13.333 20 20 57.667 20 113c0 24 -0.833008 43.667 -2.5 59c-1.67188 15.333 -4.83887 29 -9.5 41c-5.33301 14.667 -13.5 26.167 -24.5 34.5
s-23.167 12.5 -36.5 12.5zM234 557.001h-89l59 140h147l60 -140h-89l-44 68z" />
    <glyph glyph-name="atilde" unicode="&#xe3;" horiz-adv-x="555" 
d="M489 0l-143.001 0.000976562v93c-19.333 -38.667 -39.166 -65.834 -59.499 -81.501s-46.5 -23.5 -78.5 -23.5c-50 0 -89.167 22.167 -117.5 66.5s-42.5 105.833 -42.5 184.5c0 39.334 4 75.167 12 107.5s19.167 60 33.5 83s31.5 40.833 51.5 53.5s42.333 19 67 19
c29.333 0 56.5 -9.66699 81.5 -29s43.5 -45 55.5 -77v94h140v-490zM269.999 390.001c-23.334 0 -41.666 -12.333 -54.999 -37c-5.33301 -11.333 -9 -24.666 -11 -39.999s-3 -38.333 -3 -69c0 -16.667 0.333008 -30.834 1 -42.501s1.66699 -22 3 -31
s3.16602 -16.667 5.49902 -23s5.5 -12.5 9.5 -18.5c12 -20 29 -30 51 -30c21.334 0 38.667 10.333 52 31c13.333 20 20 57.667 20 113c0 24 -0.833008 43.667 -2.5 59c-1.67188 15.333 -4.83887 29 -9.5 41c-5.33301 14.667 -13.5 26.167 -24.5 34.5
s-23.167 12.5 -36.5 12.5zM404 690.001c0 -19.3359 -0.335938 -34.1689 -1.00293 -44.5c-0.666992 -10.3379 -2.66699 -20.1709 -6 -29.499c-11.333 -37.333 -34.333 -56 -69 -56c-5.33301 0 -9.66602 0.166992 -12.999 0.5s-7.33301 1.33301 -12 3s-10.5 4.16699 -17.5 7.5
s-16.5 7.66602 -28.5 12.999c-8 4 -15.333 6 -22 6c-7.33301 0 -13.166 -3 -17.499 -9c-4.33398 -6 -7.16699 -14 -8.5 -24h-57c0 22.667 0.5 38.667 1.5 48s3.16699 18.333 6.5 27c12 30.667 34 46 66 46c8 0 17.167 -1.66699 27.5 -5c10.334 -3.33301 24.167 -9 41.5 -17
c10.667 -4.66699 18.334 -7 23.001 -7c17.333 0 27 13.667 29 41h57z" />
    <glyph glyph-name="adieresis" unicode="&#xe4;" horiz-adv-x="555" 
d="M489 0l-143.001 0.000976562v93c-19.333 -38.667 -39.166 -65.834 -59.499 -81.501s-46.5 -23.5 -78.5 -23.5c-50 0 -89.167 22.167 -117.5 66.5s-42.5 105.833 -42.5 184.5c0 39.334 4 75.167 12 107.5s19.167 60 33.5 83s31.5 40.833 51.5 53.5s42.333 19 67 19
c29.333 0 56.5 -9.66699 81.5 -29s43.5 -45 55.5 -77v94h140v-490zM269.999 390.001c-23.334 0 -41.666 -12.333 -54.999 -37c-5.33301 -11.333 -9 -24.666 -11 -39.999s-3 -38.333 -3 -69c0 -16.667 0.333008 -30.834 1 -42.501s1.66699 -22 3 -31
s3.16602 -16.667 5.49902 -23s5.5 -12.5 9.5 -18.5c12 -20 29 -30 51 -30c21.334 0 38.667 10.333 52 31c13.333 20 20 57.667 20 113c0 24 -0.833008 43.667 -2.5 59c-1.67188 15.333 -4.83887 29 -9.5 41c-5.33301 14.667 -13.5 26.167 -24.5 34.5
s-23.167 12.5 -36.5 12.5zM352 693.001c36 0 54 -24.333 54 -73c0 -46.667 -18.333 -70 -55 -70s-55 23.667 -55 71c0 48 18.667 72 56 72zM205 693.001c36 0 54 -24.333 54 -73c0 -46.667 -18 -70 -54 -70c-36.667 0 -55 23.667 -55 71c0 48 18.333 72 55 72z" />
    <glyph glyph-name="aring" unicode="&#xe5;" horiz-adv-x="555" 
d="M489 0l-143.001 0.000976562v93c-19.333 -38.667 -39.166 -65.834 -59.499 -81.501s-46.5 -23.5 -78.5 -23.5c-50 0 -89.167 22.167 -117.5 66.5s-42.5 105.833 -42.5 184.5c0 39.334 4 75.167 12 107.5s19.167 60 33.5 83s31.5 40.833 51.5 53.5s42.333 19 67 19
c29.333 0 56.5 -9.66699 81.5 -29s43.5 -45 55.5 -77v94h140v-490zM269.999 390.001c-23.334 0 -41.666 -12.333 -54.999 -37c-5.33301 -11.333 -9 -24.666 -11 -39.999s-3 -38.333 -3 -69c0 -16.667 0.333008 -30.834 1 -42.501s1.66699 -22 3 -31
s3.16602 -16.667 5.49902 -23s5.5 -12.5 9.5 -18.5c12 -20 29 -30 51 -30c21.334 0 38.667 10.333 52 31c13.333 20 20 57.667 20 113c0 24 -0.833008 43.667 -2.5 59c-1.67188 15.333 -4.83887 29 -9.5 41c-5.33301 14.667 -13.5 26.167 -24.5 34.5
s-23.167 12.5 -36.5 12.5zM277 715.001c26 0 48.166 -8.99805 66.499 -26.998s27.5 -40 27.5 -66s-9.16699 -48 -27.5 -66s-40.5 -27 -66.5 -27c-12.667 0 -24.667 2.5 -36 7.5s-21.166 11.667 -29.499 20s-14.833 18.166 -19.5 29.499s-7 23.666 -7 36.999
c0 25.333 9 47 27 65s39.667 27 65 27zM277.999 672.003c-13.333 0 -25 -4.83301 -35 -14.5s-15 -21.167 -15 -34.5c0 -14 4.83301 -26 14.5 -36s21.5 -15 35.5 -15s25.833 4.83301 35.5 14.5s14.5 21.5 14.5 35.5s-4.83301 25.833 -14.5 35.5s-21.5 14.5 -35.5 14.5z" />
    <glyph glyph-name="ae" unicode="&#xe6;" horiz-adv-x="756" 
d="M703 132c-5.33301 -46.667 -25.332 -82.5 -59.999 -107.5s-81.334 -37.5 -140.001 -37.5c-18.667 0 -35.167 1 -49.5 3s-27.5 5.5 -39.5 10.5s-23.167 11.667 -33.5 20s-20.5 18.5 -30.5 30.5c-13.333 -12 -25.833 -22.167 -37.5 -30.5s-23.334 -15 -35 -20
c-11.667 -5 -24 -8.5 -37 -10.5s-27.167 -3 -42.5 -3c-50 0 -90 14 -120 42s-45 65.333 -45 112c0 28 6 53 18 75s29.333 39.667 52 53c18.667 11.333 39.667 19.333 63 24s52 7 86 7h49l1 17c0 26.667 -5.5 47.167 -16.5 61.5s-26.833 21.5 -47.5 21.5
c-28.667 0 -49 -19 -61 -57l-132 37c6 16.667 11.833 30.167 17.5 40.5s12.167 19.833 19.5 28.5c15.333 17.334 35.333 30.667 60 39.999c24.667 9.33301 52 14 82 14c59.333 0 108.333 -15.667 147 -47c19.333 16 39.833 27.833 61.5 35.5s46.5 11.5 74.5 11.5
c42 0 78.667 -8.66699 110 -26s54.333 -42 69 -74c4.66699 -10 8.5 -20 11.5 -30s5.5 -20.667 7.5 -32s3.33301 -24.166 4 -38.499s1 -30.833 1 -49.5v-17c0 -6 -0.333008 -13.667 -1 -23h-272c0.666992 -42 6.5 -72.5 17.5 -91.5s28.5 -28.5 52.5 -28.5
c34.667 0 55 22 61 66zM283.001 214c-35.334 0 -62.166 -5.66699 -80.499 -17c-18.333 -11.334 -27.5 -27.667 -27.5 -49c0 -16.667 5.16699 -30 15.5 -40s23.833 -15 40.5 -15c23.333 0 41.166 8 53.499 24s18.5 39 18.5 69c0 1.33301 -0.166992 5 -0.5 11
s-0.833008 11.667 -1.5 17h-18zM569.002 298c0 67.333 -22 101 -66 101s-66 -33.667 -66 -101h132z" />
    <glyph glyph-name="ccedilla" unicode="&#xe7;" horiz-adv-x="475" 
d="M246 -54c8 1.33301 14.3359 2.33105 19.0029 2.99805s9.66699 1 15 1c18 0 32.833 -5.83301 44.5 -17.5s17.5 -26.167 17.5 -43.5c0 -21.333 -9.83301 -38.666 -29.5 -51.999s-45.5 -20 -77.5 -20c-18 0 -35.833 2.33301 -53.5 7s-33.5 11 -47.5 19l21 34
c10.667 -5.33301 22.5 -9.83301 35.5 -13.5s24.5 -5.5 34.5 -5.5c11.333 0 20.666 3 27.999 9s11 13.667 11 23c0 7.33301 -2.66699 13.5 -8 18.5c-5.33398 5 -11.667 7.5 -19 7.5c-4 0 -8 -0.333008 -12 -1c-4 -0.666016 -10.667 -2.33301 -20 -5l-13 14l47 63
c-63.333 4.66699 -111.166 28.5 -143.499 71.5s-48.5 104.833 -48.5 185.5c0 84.667 18 149 54 193s88.333 66 157 66c35.333 0 66.5 -5.66699 93.5 -17s47.833 -27.666 62.5 -48.999c7.33398 -10.668 13.167 -22.835 17.499 -36.5
c4.33301 -13.667 8.83301 -32.834 13.5 -57.5l-128 -35c-4 52.667 -22.333 79 -55 79c-21.333 0 -36.833 -10.833 -46.5 -32.5s-14.5 -55.5 -14.5 -101.5c0 -54 4.66699 -92.333 14 -115s24.666 -34 45.999 -34c15.334 0 27.167 5.5 35.499 16.5
c8.33496 11 15.168 31.167 20.5 60.5l128 -45c-10.667 -48 -29.667 -83.833 -57 -107.5s-65.333 -37.167 -114 -40.5z" />
    <glyph glyph-name="egrave" unicode="&#xe8;" 
d="M194 213c0.666992 -42 6.66602 -72.499 17.999 -91.499s29 -28.5 53 -28.5c34 0 54.333 22 61 66l135 -27c-6 -46.667 -26.167 -82.5 -60.5 -107.5s-80.833 -37.5 -139.5 -37.5c-36 0 -66.167 4.33301 -90.5 13s-45.166 22.667 -62.499 42
c-21.333 23.333 -36.833 50.666 -46.5 81.999s-14.5 71 -14.5 119c0 44.667 3.83301 82 11.5 112s20.167 55.667 37.5 77c18 23.333 41.333 41 70 53s60.667 18 96 18c43.334 0 80.667 -8.66699 112 -26s54.333 -42 69 -74c4.66699 -10 8.5 -20 11.5 -30
s5.5 -20.833 7.5 -32.5s3.33301 -24.5 4 -38.5s1 -30.333 1 -49v-40h-273zM326.999 298.001c-1.33301 67.333 -23.667 101 -67 101c-44 0 -66 -33.667 -66 -101h133zM317.998 557.001h-98l-120 127v13h153z" />
    <glyph glyph-name="eacute" unicode="&#xe9;" 
d="M194 213c0.666992 -42 6.66602 -72.499 17.999 -91.499s29 -28.5 53 -28.5c34 0 54.333 22 61 66l135 -27c-6 -46.667 -26.167 -82.5 -60.5 -107.5s-80.833 -37.5 -139.5 -37.5c-36 0 -66.167 4.33301 -90.5 13s-45.166 22.667 -62.499 42
c-21.333 23.333 -36.833 50.666 -46.5 81.999s-14.5 71 -14.5 119c0 44.667 3.83301 82 11.5 112s20.167 55.667 37.5 77c18 23.333 41.333 41 70 53s60.667 18 96 18c43.334 0 80.667 -8.66699 112 -26s54.333 -42 69 -74c4.66699 -10 8.5 -20 11.5 -30
s5.5 -20.833 7.5 -32.5s3.33301 -24.5 4 -38.5s1 -30.333 1 -49v-40h-273zM326.999 298.001c-1.33301 67.333 -23.667 101 -67 101c-44 0 -66 -33.667 -66 -101h133zM413.998 697.001v-13l-120 -127h-98l65 140h153z" />
    <glyph glyph-name="ecircumflex" unicode="&#xea;" 
d="M194 213c0.666992 -42 6.66602 -72.499 17.999 -91.499s29 -28.5 53 -28.5c34 0 54.333 22 61 66l135 -27c-6 -46.667 -26.167 -82.5 -60.5 -107.5s-80.833 -37.5 -139.5 -37.5c-36 0 -66.167 4.33301 -90.5 13s-45.166 22.667 -62.499 42
c-21.333 23.333 -36.833 50.666 -46.5 81.999s-14.5 71 -14.5 119c0 44.667 3.83301 82 11.5 112s20.167 55.667 37.5 77c18 23.333 41.333 41 70 53s60.667 18 96 18c43.334 0 80.667 -8.66699 112 -26s54.333 -42 69 -74c4.66699 -10 8.5 -20 11.5 -30
s5.5 -20.833 7.5 -32.5s3.33301 -24.5 4 -38.5s1 -30.333 1 -49v-40h-273zM326.999 298.001c-1.33301 67.333 -23.667 101 -67 101c-44 0 -66 -33.667 -66 -101h133zM211.998 557.001h-88l59 140h147l60 -140h-89l-44 68z" />
    <glyph glyph-name="edieresis" unicode="&#xeb;" 
d="M194 213c0.666992 -42 6.66602 -72.499 17.999 -91.499s29 -28.5 53 -28.5c34 0 54.333 22 61 66l135 -27c-6 -46.667 -26.167 -82.5 -60.5 -107.5s-80.833 -37.5 -139.5 -37.5c-36 0 -66.167 4.33301 -90.5 13s-45.166 22.667 -62.499 42
c-21.333 23.333 -36.833 50.666 -46.5 81.999s-14.5 71 -14.5 119c0 44.667 3.83301 82 11.5 112s20.167 55.667 37.5 77c18 23.333 41.333 41 70 53s60.667 18 96 18c43.334 0 80.667 -8.66699 112 -26s54.333 -42 69 -74c4.66699 -10 8.5 -20 11.5 -30
s5.5 -20.833 7.5 -32.5s3.33301 -24.5 4 -38.5s1 -30.333 1 -49v-40h-273zM326.999 298.001c-1.33301 67.333 -23.667 101 -67 101c-44 0 -66 -33.667 -66 -101h133zM330.998 693.001c36 0 54 -24.333 54 -73c0 -46.667 -18.333 -70 -55 -70s-55 23.667 -55 71
c0 48 18.667 72 56 72zM183.998 693.001c36 0 54 -24.333 54 -73c0 -46.667 -18.333 -70 -55 -70s-55 23.667 -55 71c0 48 18.667 72 56 72z" />
    <glyph glyph-name="igrave" unicode="&#xec;" horiz-adv-x="277" 
d="M209 0h-143v490h143v-490zM199 557h-98l-120 127v13h153z" />
    <glyph glyph-name="iacute" unicode="&#xed;" horiz-adv-x="277" 
d="M210 0h-143v490h143v-490zM296 697v-13l-120 -127h-98l65 140h153z" />
    <glyph glyph-name="icircumflex" unicode="&#xee;" horiz-adv-x="277" 
d="M210 0h-143v490h143v-490zM94 557h-89l60 140h147l60 -140h-89l-45 68z" />
    <glyph glyph-name="idieresis" unicode="&#xef;" horiz-adv-x="277" 
d="M210 0h-143v490h143v-490zM206 693c36 0 54 -24.333 54 -73c0 -46.667 -18 -70 -54 -70c-36.667 0 -55 23.667 -55 71c0 48 18.333 72 55 72zM73 693c36 0 54 -24.333 54 -73c0 -46.667 -18.333 -70 -55 -70s-55 23.667 -55 71c0 48 18.667 72 56 72z" />
    <glyph glyph-name="eth" unicode="&#xf0;" horiz-adv-x="560" 
d="M201 483l-44 75.001l51 24l-55 85h166l15 -25l53 25l43 -75l-53 -25l54 -92c17.333 -30 31.5 -55.667 42.5 -77s19.5 -41 25.5 -59s10 -35.667 12 -53s3 -37 3 -59c0 -78.667 -19.833 -138.334 -59.5 -179.001s-97.5 -61 -173.5 -61
c-76.667 0 -134.834 20.333 -174.501 61s-59.5 99.667 -59.5 177c0 42 6 79 18 111s29.667 57.667 53 77c19.333 16.667 44 29.667 74 39s58.667 13.333 86 12c2.66699 0 5.33398 -0.333008 8.00098 -1l-30 46zM280 349.001c-28 0 -48.332 -9.83203 -60.999 -29.499
s-19 -50.5 -19 -92.5s6.5 -72.833 19.5 -92.5s33.5 -29.5 61.5 -29.5s48.333 9.66699 61 29s19 49.666 19 90.999c0 44 -6.33301 75.667 -19 95s-33.334 29 -62.001 29z" />
    <glyph glyph-name="ntilde" unicode="&#xf1;" horiz-adv-x="557" 
d="M207 490l-0.000976562 -93c23.333 36 47.333 62.167 72 78.5s53.334 24.5 86.001 24.5c20.667 0 40.167 -4 58.5 -12s33.5 -19 45.5 -33c10 -12 17.167 -25.333 21.5 -40s6.5 -32.667 6.5 -54v-361h-143v300c0 15.333 -0.833008 27 -2.5 35
c-1.66797 8 -4.83496 15.333 -9.5 22c-12 16 -29.333 24 -52 24c-53.333 0 -80 -41.667 -80 -125v-256h-143v490h140zM404.999 690l-0.000976562 -16.999c0 -75.333 -25.333 -113 -76 -113c-5.33301 0 -9.66602 0.166992 -12.999 0.5s-7.33301 1.33301 -12 3
s-10.5 4.16699 -17.5 7.5s-16.5 7.66602 -28.5 12.999c-8 4 -15.333 6 -22 6c-7.33398 0 -13.167 -3 -17.499 -9c-4.33496 -6 -7.16797 -14 -8.5 -24h-57c0 12 0.166992 21.833 0.5 29.5s0.666016 14.167 0.999023 19.5s1 10 2 14s2.5 8 4.5 12c12 30.667 34 46 66 46
c8 0 17.167 -1.66699 27.5 -5c10.334 -3.33301 24.167 -9 41.5 -17c10.667 -4.66699 18 -7 22 -7c18 0 28 13.667 30 41h57z" />
    <glyph glyph-name="ograve" unicode="&#xf2;" horiz-adv-x="560" 
d="M280 503c77.333 0 135.666 -22 174.999 -66s59 -109.333 59 -196c0 -82 -20.167 -144.833 -60.5 -188.5s-98.166 -65.5 -173.499 -65.5c-76 0 -133.833 22 -173.5 66s-59.5 108 -59.5 192s19.833 148 59.5 192s97.5 66 173.5 66zM280 388c-28 0 -48.333 -11.333 -61 -34
s-19 -58.334 -19 -107c0 -49.333 6.5 -85.333 19.5 -108s33.5 -34 61.5 -34s48.333 11.333 61 34s19 58 19 106c0 50 -6.5 86.333 -19.5 109s-33.5 34 -61.5 34zM341 557h-98l-120 127v13h153z" />
    <glyph glyph-name="oacute" unicode="&#xf3;" horiz-adv-x="560" 
d="M280 503c77.333 0 135.666 -22 174.999 -66s59 -109.333 59 -196c0 -82 -20.167 -144.833 -60.5 -188.5s-98.166 -65.5 -173.499 -65.5c-76 0 -133.833 22 -173.5 66s-59.5 108 -59.5 192s19.833 148 59.5 192s97.5 66 173.5 66zM280 388c-28 0 -48.333 -11.333 -61 -34
s-19 -58.334 -19 -107c0 -49.333 6.5 -85.333 19.5 -108s33.5 -34 61.5 -34s48.333 11.333 61 34s19 58 19 106c0 50 -6.5 86.333 -19.5 109s-33.5 34 -61.5 34zM437 697v-13l-120 -127h-98l65 140h153z" />
    <glyph glyph-name="ocircumflex" unicode="&#xf4;" horiz-adv-x="560" 
d="M280 503c77.333 0 135.666 -22 174.999 -66s59 -109.333 59 -196c0 -82 -20.167 -144.833 -60.5 -188.5s-98.166 -65.5 -173.499 -65.5c-76 0 -133.833 22 -173.5 66s-59.5 108 -59.5 192s19.833 148 59.5 192s97.5 66 173.5 66zM280 388c-28 0 -48.333 -11.333 -61 -34
s-19 -58.334 -19 -107c0 -49.333 6.5 -85.333 19.5 -108s33.5 -34 61.5 -34s48.333 11.333 61 34s19 58 19 106c0 50 -6.5 86.333 -19.5 109s-33.5 34 -61.5 34zM236 557h-89l60 140h147l60 -140h-89l-45 68z" />
    <glyph glyph-name="otilde" unicode="&#xf5;" horiz-adv-x="560" 
d="M280 503c77.333 0 135.666 -22 174.999 -66s59 -109.333 59 -196c0 -82 -20.167 -144.833 -60.5 -188.5s-98.166 -65.5 -173.499 -65.5c-76 0 -133.833 22 -173.5 66s-59.5 108 -59.5 192s19.833 148 59.5 192s97.5 66 173.5 66zM280 388c-28 0 -48.333 -11.333 -61 -34
s-19 -58.334 -19 -107c0 -49.333 6.5 -85.333 19.5 -108s33.5 -34 61.5 -34s48.333 11.333 61 34s19 58 19 106c0 50 -6.5 86.333 -19.5 109s-33.5 34 -61.5 34zM407 690l-0.000976562 -16.999c0 -75.333 -25.333 -113 -76 -113c-5.33301 0 -9.66602 0.166992 -12.999 0.5
s-7.33301 1.33301 -12 3s-10.5 4.16699 -17.5 7.5s-16.5 7.66602 -28.5 12.999c-8 4 -15.333 6 -22 6c-7.33301 0 -13.333 -3 -18 -9s-7.33398 -14 -8.00098 -24h-58v16c0 70 24.667 105 74 105c8.66699 0 18.167 -1.66699 28.5 -5s23.833 -9 40.5 -17
c10.667 -4.66699 18.334 -7 23.001 -7c17.333 0 27 13.667 29 41h58z" />
    <glyph glyph-name="odieresis" unicode="&#xf6;" horiz-adv-x="560" 
d="M280 503c77.333 0 135.666 -22 174.999 -66s59 -109.333 59 -196c0 -82 -20.167 -144.833 -60.5 -188.5s-98.166 -65.5 -173.499 -65.5c-76 0 -133.833 22 -173.5 66s-59.5 108 -59.5 192s19.833 148 59.5 192s97.5 66 173.5 66zM280 388c-28 0 -48.333 -11.333 -61 -34
s-19 -58.334 -19 -107c0 -49.333 6.5 -85.333 19.5 -108s33.5 -34 61.5 -34s48.333 11.333 61 34s19 58 19 106c0 50 -6.5 86.333 -19.5 109s-33.5 34 -61.5 34zM355 693c36 0 54 -24.333 54 -73c0 -46.667 -18.333 -70 -55 -70s-55 23.667 -55 71c0 48 18.667 72 56 72z
M208 693c36 0 54 -24.333 54 -73c0 -46.667 -18.333 -70 -55 -70s-55 23.667 -55 71c0 48 18.667 72 56 72z" />
    <glyph glyph-name="divide" unicode="&#xf7;" 
d="M487 375v-107h-460v107h460zM257 214c18 0 33.501 -6.33105 46.501 -18.998s19.5 -28.334 19.5 -47.001s-6.5 -34.334 -19.5 -47.001s-28.5 -19 -46.5 -19c-18.667 0 -34.334 6.5 -47.001 19.5s-19 28.833 -19 47.5c0 17.333 6.5 32.5 19.5 45.5s28.5 19.5 46.5 19.5z
M257.001 561.002c18 0 33.501 -6.33105 46.501 -18.998s19.5 -28.334 19.5 -47.001c0 -18.668 -6.5 -34.335 -19.5 -47.001c-13 -12.667 -28.5 -19 -46.5 -19c-18.667 0 -34.334 6.5 -47.001 19.5s-19 28.833 -19 47.5c0 17.333 6.5 32.5 19.5 45.5s28.5 19.5 46.5 19.5z
" />
    <glyph glyph-name="oslash" unicode="&#xf8;" horiz-adv-x="560" 
d="M468 418c30 -44.667 45 -102.666 45 -173.999c0 -83.333 -20 -147 -60 -191s-97.667 -66 -173 -66c-63.333 0 -115 16 -155 48l-51 -57l-37 32l55 61c-30.667 45.333 -46 103.666 -46 174.999c0 83.333 20 147 60 191s97.667 66 173 66c64 0 116 -16 156 -48l51 57
l36 -33zM218 139.001c14 -22.667 34.666 -34 61.999 -34c28 0 48.333 11.333 61 34s19 58.667 19 108c0 8.66699 -0.166992 16 -0.5 22s-1.16602 14.333 -2.49902 25zM341.999 351.001c-12.667 24.667 -33.667 37 -63 37c-28 0 -48.333 -11.333 -61 -34
s-19 -58.667 -19 -108c0 -9.33398 0.333008 -17.667 1 -25s1.66699 -16 3 -26z" />
    <glyph glyph-name="ugrave" unicode="&#xf9;" horiz-adv-x="550" 
d="M490 490l-0.000976562 -290c0 -42 -5.66699 -76.5 -17 -103.5s-29.666 -50.167 -54.999 -69.5c-19.333 -14 -40 -24.167 -62 -30.5s-49 -9.5 -81 -9.5s-59 3.16699 -81 9.5s-42.667 16.5 -62 30.5c-25.333 19.333 -43.666 42.5 -54.999 69.5s-17 61.5 -17 103.5v290h143
v-250c0 -44.667 5.66699 -77.167 17 -97.5s29.666 -30.5 54.999 -30.5c25.334 0 43.667 10.167 55 30.5s17 52.833 17 97.5v250h143zM335.999 557h-98l-120 127v13h153z" />
    <glyph glyph-name="uacute" unicode="&#xfa;" horiz-adv-x="550" 
d="M490 490l-0.000976562 -290c0 -42 -5.66699 -76.5 -17 -103.5s-29.666 -50.167 -54.999 -69.5c-19.333 -14 -40 -24.167 -62 -30.5s-49 -9.5 -81 -9.5s-59 3.16699 -81 9.5s-42.667 16.5 -62 30.5c-25.333 19.333 -43.666 42.5 -54.999 69.5s-17 61.5 -17 103.5v290h143
v-250c0 -44.667 5.66699 -77.167 17 -97.5s29.666 -30.5 54.999 -30.5c25.334 0 43.667 10.167 55 30.5s17 52.833 17 97.5v250h143zM431.999 697v-13l-120 -127h-98l65 140h153z" />
    <glyph glyph-name="ucircumflex" unicode="&#xfb;" horiz-adv-x="550" 
d="M490 490l-0.000976562 -290c0 -42 -5.66699 -76.5 -17 -103.5s-29.666 -50.167 -54.999 -69.5c-19.333 -14 -40 -24.167 -62 -30.5s-49 -9.5 -81 -9.5s-59 3.16699 -81 9.5s-42.667 16.5 -62 30.5c-25.333 19.333 -43.666 42.5 -54.999 69.5s-17 61.5 -17 103.5v290h143
v-250c0 -44.667 5.66699 -77.167 17 -97.5s29.666 -30.5 54.999 -30.5c25.334 0 43.667 10.167 55 30.5s17 52.833 17 97.5v250h143zM230.999 557h-89l60 140h146l60 -140h-89l-44 68z" />
    <glyph glyph-name="udieresis" unicode="&#xfc;" horiz-adv-x="550" 
d="M490 490l-0.000976562 -290c0 -42 -5.66699 -76.5 -17 -103.5s-29.666 -50.167 -54.999 -69.5c-19.333 -14 -40 -24.167 -62 -30.5s-49 -9.5 -81 -9.5s-59 3.16699 -81 9.5s-42.667 16.5 -62 30.5c-25.333 19.333 -43.666 42.5 -54.999 69.5s-17 61.5 -17 103.5v290h143
v-250c0 -44.667 5.66699 -77.167 17 -97.5s29.666 -30.5 54.999 -30.5c25.334 0 43.667 10.167 55 30.5s17 52.833 17 97.5v250h143zM348.999 693c36 0 54 -24.333 54 -73c0 -46.667 -18 -70 -54 -70c-36.667 0 -55 23.667 -55 71c0 48 18.333 72 55 72zM201.999 693
c36 0 54 -24.333 54 -73c0 -46.667 -18 -70 -54 -70c-36.667 0 -55 23.667 -55 71c0 48 18.333 72 55 72z" />
    <glyph glyph-name="yacute" unicode="&#xfd;" horiz-adv-x="518" 
d="M282 -133h-149l61 169l-174 454h164l81 -285l84 285h149zM423 697v-13l-120 -127h-98l65 140h153z" />
    <glyph glyph-name="thorn" unicode="&#xfe;" horiz-adv-x="561" 
d="M207 667v-272c36 71.333 84.667 107 146 107c28.667 0 54.834 -8.83301 78.501 -26.5s41.5 -41.5 53.5 -71.5c8 -20.667 13.833 -42.667 17.5 -66s5.5 -51.333 5.5 -84c0 -40.667 -3.16699 -75.334 -9.5 -104.001s-16.166 -55 -29.499 -79
c-14.668 -25.333 -32.835 -44.666 -54.501 -57.999c-21.667 -13.333 -45.5 -20 -71.5 -20c-28.667 0 -53.334 7.5 -74 22.5c-20.667 15 -40.334 40.167 -59.001 75.5v-224h-143v800h140zM285 393c-48 0 -72.001 -48 -72.001 -144c0 -48 5.83301 -83.5 17.5 -106.5
s29.834 -34.5 54.501 -34.5c23.333 0 40.833 11.667 52.5 35s17.5 57.666 17.5 102.999c0 50.667 -5.66699 87.834 -17 111.501s-29 35.5 -53 35.5z" />
    <glyph glyph-name="ydieresis" unicode="&#xff;" horiz-adv-x="518" 
d="M282 -133h-149l61 169l-174 454h164l81 -285l84 285h149zM340 693c36 0 54 -24.333 54 -73c0 -46.667 -18.333 -70 -55 -70s-55 23.667 -55 71c0 48 18.667 72 56 72zM193 693c36 0 54 -24.333 54 -73c0 -46.667 -18.333 -70 -55 -70s-55 23.667 -55 71
c0 48 18.667 72 56 72z" />
    <glyph glyph-name="dotlessi" unicode="&#x131;" horiz-adv-x="277" 
d="M210 0h-143v490h143v-490z" />
    <glyph glyph-name="OE" unicode="&#x152;" horiz-adv-x="836" 
d="M793 540l-240.002 -0.000976562v-133h240v-123h-240v-154h240v-130h-397c-23.333 -5.33301 -42.833 -8.83301 -58.5 -10.5s-32.5 -2.5 -50.5 -2.5c-38.667 0 -73.667 7.83301 -105 23.5s-57.666 38.5 -78.999 68.5c-11.333 16 -21.166 32.5 -29.499 49.5
s-15 35.5 -20 55.5s-8.66699 41.833 -11 65.5s-3.5 49.834 -3.5 78.501c0 234.667 89.667 352 269 352c18 0 33 -0.833008 45 -2.5s26.333 -5.16699 43 -10.5h397v-127zM399.998 379.999c0 35.334 -0.999023 61.668 -2.99902 79.001c-2 17.335 -6 32.668 -12 45.999
c-6.66797 15.333 -16.835 27.5 -30.5 36.5c-13.667 9 -29.167 13.5 -46.5 13.5c-34 0 -61 -16.667 -81 -50c-8.66699 -14.667 -15.5 -37.5 -20.5 -68.5s-7.5 -64.833 -7.5 -101.5c0 -40.667 3 -77 9 -109s14 -55.333 24 -70c17.333 -26.667 41.666 -40 72.999 -40
c32.667 0 56.667 14.167 72 42.5s23 72.833 23 133.5v88z" />
    <glyph glyph-name="oe" unicode="&#x153;" horiz-adv-x="804" 
d="M751 132c-5.33398 -46 -25.167 -81.666 -59.5 -106.999s-79.833 -38 -136.5 -38c-33.334 0 -61.001 4 -83 12c-22 8 -43 21.667 -63 41c-19.333 -18.667 -40.166 -32.334 -62.499 -41.001s-47.833 -13 -76.5 -13c-28 0 -55.833 4.83301 -83.5 14.5
s-50.5 23.167 -68.5 40.5c-23.333 21.333 -41 49.333 -53 84s-18 74.334 -18 119.001c0 82.667 19.667 146.5 59 191.5s95 67.5 167 67.5c28.667 0 54.167 -3.83301 76.5 -11.5s43.833 -20.167 64.5 -37.5c38 32.667 85.667 49 143 49
c41.333 0 77.666 -8.83301 108.999 -26.5s54 -42.167 68 -73.5c4.66699 -10 8.5 -20 11.5 -30s5.5 -20.833 7.5 -32.5s3.33301 -24.5 4 -38.5s1 -30.333 1 -49v-18.5c0 -5.66699 -0.333008 -12.834 -1 -21.501h-273c1.33301 -42 7.5 -72.5 18.5 -91.5s28.5 -28.5 52.5 -28.5
c34.667 0 55 22 61 66zM270 388.001c-24 0 -41.667 -11.333 -53 -34s-17 -58.667 -17 -108s5.66699 -85.333 17 -108s29 -34 53 -34s41.667 11.333 53 34s17 58 17 106c0 50 -5.5 86.5 -16.5 109.5s-28.833 34.5 -53.5 34.5zM617 298.001c0 67.333 -22.333 101 -67 101
c-42.667 0 -64.667 -33.667 -66 -101h133z" />
    <glyph glyph-name="Scaron" unicode="&#x160;" horiz-adv-x="561" 
d="M198 201c4 -60.667 30.999 -91.001 80.999 -91.001c21.333 0 39 6.16699 53 18.5s21 28.166 21 47.499c0 12 -2.83301 22.5 -8.5 31.5s-14.167 17.5 -25.5 25.5c-6.66895 4.66699 -12.3359 8.5 -17 11.5c-4.66699 3 -11.167 6.66699 -19.5 11s-19.666 10 -33.999 17
s-34.5 16.833 -60.5 29.5c-24 12 -44.333 24 -61 36s-30 25 -40 39s-17.167 29.333 -21.5 46s-6.5 35.667 -6.5 57c0 62 21.167 110.833 63.5 146.5s100.166 53.5 173.499 53.5c36.667 0 69 -4.83301 97 -14.5s50.667 -24.167 68 -43.5
c10 -10.667 18.333 -22.834 25 -36.501s12.667 -31.167 18 -52.5l-146 -51c-4 26 -12.167 45 -24.5 57s-30.166 18 -53.499 18c-18.667 0 -33.834 -5.16699 -45.501 -15.5c-11.667 -10.3369 -17.5 -24.1699 -17.5 -41.499c0 -17.333 6.66699 -32.666 20 -45.999
s35.333 -26.666 66 -39.999c19.333 -8 35.5 -14.833 48.5 -20.5c13 -5.66992 24 -10.8369 33 -15.501c9 -4.66699 16.833 -9 23.5 -13s14 -8.66699 22 -14c56 -38 84 -89.333 84 -154c0 -30 -6.33301 -58.5 -19 -85.5s-30.667 -50.5 -54 -70.5
c-23.333 -19.333 -48.666 -33.166 -75.999 -41.499s-61 -12.5 -101 -12.5c-78.667 0 -137 21 -175 63c-11.333 11.333 -20 24.333 -26 39s-11.333 34 -16 58zM337.999 866.999h89l-60 -140h-147l-59 140h89l44 -68z" />
    <glyph glyph-name="scaron" unicode="&#x161;" horiz-adv-x="472" 
d="M296 343c-4.66699 19.333 -11.6719 33.4961 -21.0049 42.4961s-22.666 13.5 -39.999 13.5c-14 0 -25.5 -3.5 -34.5 -10.5s-13.5 -16.167 -13.5 -27.5c0 -14.667 6.66699 -26 20 -34c2.66699 -2 5.5 -3.5 8.5 -4.5s12.5 -3.5 28.5 -7.5l78 -24
c38 -11.333 64.833 -26.833 80.5 -46.5s23.5 -47.167 23.5 -82.5c0 -26.667 -4.66699 -50.667 -14 -72s-22.666 -39.666 -39.999 -54.999s-38.166 -27.166 -62.499 -35.499s-51.5 -12.5 -81.5 -12.5c-25.333 0 -47.5 2 -66.5 6s-35.667 10.667 -50 20
s-26.666 21.333 -36.999 36s-19.5 32.667 -27.5 54l125 51c8 -37.333 28.333 -56 61 -56c16 0 29.333 4 40 12s16 18 16 30c0 8.66699 -2.66699 16.334 -8 23c-2 2 -3.83301 3.66699 -5.5 5s-4.16699 2.83301 -7.5 4.5c-3.33301 1.66797 -7.83301 3.33496 -13.5 5
c-5.66699 1.66699 -13.5 4.16699 -23.5 7.5l-70 20c-33.333 10 -59.166 27.167 -77.499 51.5s-27.5 53.5 -27.5 87.5c0 24 4.5 45.833 13.5 65.5s21.5 36.334 37.5 50.001s35.5 24.334 58.5 32.001s48.5 11.5 76.5 11.5c96.667 0 153.667 -34.333 171 -103zM280.995 696.996
h89l-60 -140h-147l-60 140h89l44 -68z" />
    <glyph glyph-name="Ydieresis" unicode="&#x178;" horiz-adv-x="609" 
d="M197 667l89 -197.001c6 -13.333 10.833 -26.166 14.5 -38.499s7.5 -28.833 11.5 -49.5l112 285h165l-204 -401v-266h-157v266l-208 401h177zM379 862.999c36 0 54 -24.333 54 -73c0 -46.667 -18.333 -70 -55 -70s-55 23.667 -55 71c0 48 18.667 72 56 72zM232 862.999
c36 0 54 -24.333 54 -73c0 -46.667 -18.333 -70 -55 -70s-55 23.667 -55 71c0 48 18.667 72 56 72z" />
    <glyph glyph-name="Zcaron" unicode="&#x17d;" horiz-adv-x="566" 
d="M526 635l-282 -505h273v-130h-497l17 64l265 476h-257v127h481v-32zM327 867h89l-60 -140h-147l-59 140h88l45 -68z" />
    <glyph glyph-name="zcaron" unicode="&#x17e;" horiz-adv-x="467" 
d="M420 463l-187 -344h181v-119h-385l16 56l174 319h-177v115h378v-27zM278 697h89l-60 -140h-147l-60 140h89l45 -68z" />
    <glyph glyph-name="florin" unicode="&#x192;" 
d="M454 528c-12.668 2 -20.833 3.16797 -24.498 3.50098c-3.66699 0.333008 -7.16699 0.5 -10.5 0.5c-12 0 -21 -2.83301 -27 -8.5s-10.667 -15.5 -14 -29.5l-19 -79h77l-18 -105h-80l-73 -356c-4.66699 -21.333 -10.334 -37.5 -17.001 -48.5s-16.667 -20.833 -30 -29.5
c-32 -19.333 -74.667 -29 -128 -29c-13.333 0 -26 0.5 -38 1.5s-27 2.83301 -45 5.5l20 117c8 -0.666992 14.167 -1.16699 18.5 -1.5s8.5 -0.5 12.5 -0.5c13.333 0 23.166 3.5 29.499 10.5s11.5 19.5 15.5 37.5l61 293h-75l17 105h77l20 105
c5.33301 26.667 11.5 46.667 18.5 60s17.167 25.666 30.5 36.999c16.667 13.333 35 22.833 55 28.5s46 8.5 78 8.5c12 0 25 -0.333008 39 -1s32.333 -2 55 -4z" />
    <glyph glyph-name="circumflex" unicode="&#x2c6;" horiz-adv-x="500" 
d="M206 557h-89l60 140h147l60 -140h-89l-45 68z" />
    <glyph glyph-name="tilde" unicode="&#x2dc;" horiz-adv-x="500" 
d="M376 690c0.666992 -3.35449 0.999023 -6.68652 0.999023 -9.99902v-7c0 -75.333 -25.333 -113 -76 -113c-5.33301 0 -9.83301 0.166992 -13.5 0.5c-3.66895 0.333008 -7.83594 1.33301 -12.5 3c-4.66699 1.66699 -10.5 4.16699 -17.5 7.5s-16.167 7.66602 -27.5 12.999
c-8 4 -15.667 6 -23 6c-7.33398 0 -13.167 -3 -17.5 -9s-6.83301 -14 -7.5 -24h-58v16c0 70 24.667 105 74 105c8.66699 0 18.167 -1.66699 28.5 -5s23.833 -9 40.5 -17c10.667 -4.66699 18.334 -7 23.001 -7c17.333 0 27 13.667 29 41h57z" />
    <glyph glyph-name="endash" unicode="&#x2013;" horiz-adv-x="460" 
d="M460 315v-113h-460v113h460z" />
    <glyph glyph-name="emdash" unicode="&#x2014;" 
d="M540 315v-113h-567v113h567z" />
    <glyph glyph-name="quoteleft" unicode="&#x2018;" horiz-adv-x="308" 
d="M47 454l89 213h129l-62 -213h-156z" />
    <glyph glyph-name="quoteright" unicode="&#x2019;" horiz-adv-x="308" 
d="M261 667l-89 -213h-129l62 213h156z" />
    <glyph glyph-name="quotesinglbase" unicode="&#x201a;" horiz-adv-x="308" 
d="M261 126l-89 -213h-129l62 213h156z" />
    <glyph glyph-name="quotedblleft" unicode="&#x201c;" horiz-adv-x="528" 
d="M267 454l89 213h129l-62 -213h-156zM47 454l89 213h129l-62 -213h-156z" />
    <glyph glyph-name="quotedblright" unicode="&#x201d;" horiz-adv-x="528" 
d="M261 667l-89 -213h-129l62 213h156zM481 667l-89 -213h-129l62 213h156z" />
    <glyph glyph-name="quotedblbase" unicode="&#x201e;" horiz-adv-x="528" 
d="M261 126l-89 -213h-129l62 213h156zM481 126l-89 -213h-129l62 213h156z" />
    <glyph glyph-name="dagger" unicode="&#x2020;" horiz-adv-x="457" 
d="M423 457v-120h-124v-430h-143v430h-123v120h123v186h143v-186h124z" />
    <glyph glyph-name="daggerdbl" unicode="&#x2021;" horiz-adv-x="457" 
d="M423 490v-120h-124v-197h124v-120h-124v-146h-143v146h-123v120h123v197h-123v120h123v153h143v-153h124z" />
    <glyph glyph-name="bullet" unicode="&#x2022;" horiz-adv-x="667" 
d="M336 477c18.667 0 36.332 -3.66699 52.999 -11s31.167 -17.333 43.5 -30c12.335 -12.667 22.168 -27.334 29.5 -44c7.33301 -16.667 11 -34.334 11 -53c0 -19.333 -3.66699 -37.5 -11 -54.5s-17.166 -31.667 -29.499 -44s-27 -22.166 -44 -29.499s-34.833 -11 -53.5 -11
c-19.333 0 -37.5 3.66699 -54.5 11s-31.667 17.166 -44 29.499c-12.334 12.333 -22.167 26.833 -29.5 43.5s-11 34.667 -11 54s3.66699 37.5 11 54.5s17.333 31.667 30 44c12.667 12.335 27.5 22.168 44.5 29.5c17 7.33301 35.167 11 54.5 11z" />
    <glyph glyph-name="ellipsis" unicode="&#x2026;" horiz-adv-x="1000" 
d="M166 157c12 0 23 -2.16699 33 -6.5s18.833 -10.333 26.5 -18s13.667 -16.5 18 -26.5s6.5 -20.667 6.5 -32c0 -23.333 -8.16699 -43.166 -24.5 -59.499c-16.334 -16.333 -36.167 -24.5 -59.5 -24.5s-43 8.16699 -59 24.5s-24 36.166 -24 59.499
c0 22.667 8.16699 42.167 24.5 58.5s35.833 24.5 58.5 24.5zM499 157c12 0 22.999 -2.16699 32.999 -6.5s18.833 -10.333 26.5 -18s13.667 -16.5 18 -26.5s6.5 -20.667 6.5 -32c0 -23.333 -8.16699 -43.166 -24.5 -59.499c-16.335 -16.333 -36.168 -24.5 -59.499 -24.5
c-23.333 0 -43 8.16699 -59 24.5s-24 36.166 -24 59.499c0 22.667 8.16699 42.167 24.5 58.5s35.833 24.5 58.5 24.5zM832.999 157c12 0 23 -2.16699 33 -6.5s18.833 -10.333 26.5 -18s13.667 -16.5 18 -26.5s6.5 -20.667 6.5 -32c0 -23.333 -8.16699 -43.166 -24.5 -59.499
c-16.3369 -16.333 -36.1699 -24.5 -59.5 -24.5c-23.333 0 -43 8.16699 -59 24.5s-24 36.166 -24 59.499c0 22.667 8.16699 42.167 24.5 58.5s35.833 24.5 58.5 24.5z" />
    <glyph glyph-name="perthousand" unicode="&#x2030;" horiz-adv-x="862" 
d="M152 660c18.667 0 36.168 -3.5 52.501 -10.5s30.666 -16.5 42.999 -28.5s22 -26.167 29 -42.5s10.5 -33.833 10.5 -52.5s-3.5 -36 -10.5 -52s-16.5 -30 -28.5 -42s-26.167 -21.5 -42.5 -28.5s-33.833 -10.5 -52.5 -10.5s-36 3.5 -52 10.5s-30 16.667 -42 29
c-12 12.335 -21.5 26.668 -28.5 43c-7 16.333 -10.5 33.833 -10.5 52.5c0 18 3.5 35 10.5 51s16.5 30 28.5 42s26 21.5 42 28.5s33 10.5 51 10.5zM153.001 575c-13.334 0 -24.666 -4.66602 -33.999 -13.999c-9.33301 -9.33789 -14 -20.6709 -14 -34
c0 -13.335 4.66699 -24.835 14 -34.5c9.33301 -9.66699 20.666 -14.5 33.999 -14.5s24.833 4.66699 34.5 14s14.5 20.666 14.5 33.999s-4.83301 24.833 -14.5 34.5s-21.167 14.5 -34.5 14.5zM535.002 667.001l-438 -694h-77l438 694h77zM400.002 257.001
c18.667 0 36.168 -3.49902 52.501 -10.499c16.335 -7 30.668 -16.5 42.999 -28.5c12.333 -12 22 -26.167 29 -42.5s10.5 -33.833 10.5 -52.5c0 -18 -3.5 -35.167 -10.5 -51.5s-16.5 -30.5 -28.5 -42.5s-26.167 -21.5 -42.5 -28.5s-33.833 -10.5 -52.5 -10.5
s-36 3.5 -52 10.5s-30 16.667 -42 29s-21.5 26.666 -28.5 42.999s-10.5 33.833 -10.5 52.5c0 18 3.5 35 10.5 51s16.5 30 28.5 42s26 21.5 42 28.5s33 10.5 51 10.5zM401.003 172.002c-13.333 0 -24.667 -4.66699 -34 -14s-14 -20.666 -14 -33.999s4.66699 -24.833 14 -34.5
c9.33496 -9.66699 20.668 -14.5 34 -14.5c13.333 0 24.833 4.83301 34.5 14.5s14.5 21.167 14.5 34.5s-4.83301 24.666 -14.5 33.999s-21.167 14 -34.5 14zM707.002 257.002c18.667 0 36.168 -3.49902 52.501 -10.499s30.666 -16.5 42.999 -28.5s22 -26.167 29 -42.5
s10.5 -33.833 10.5 -52.5c0 -18 -3.5 -35.167 -10.5 -51.5s-16.5 -30.5 -28.5 -42.5s-26.167 -21.5 -42.5 -28.5s-33.833 -10.5 -52.5 -10.5s-36 3.5 -52 10.5s-30 16.667 -42 29s-21.5 26.666 -28.5 42.999s-10.5 33.833 -10.5 52.5c0 18 3.5 35 10.5 51s16.5 30 28.5 42
s26 21.5 42 28.5s33 10.5 51 10.5zM708.003 172.003c-13.335 0 -24.667 -4.66699 -33.999 -14c-9.33301 -9.33301 -14 -20.666 -14 -33.999s4.66699 -24.833 14 -34.5s20.666 -14.5 33.999 -14.5s24.833 4.83301 34.5 14.5s14.5 21.167 14.5 34.5
s-4.83301 24.666 -14.5 33.999s-21.167 14 -34.5 14z" />
    <glyph glyph-name="guilsinglleft" unicode="&#x2039;" horiz-adv-x="275" 
d="M99 110l-49 144l49 143h136l-52 -143l52 -144h-136z" />
    <glyph glyph-name="guilsinglright" unicode="&#x203a;" horiz-adv-x="275" 
d="M176 397l49 -143l-49 -144h-136l52 144l-52 143h136z" />
    <glyph glyph-name="Euro" unicode="&#x20ac;" horiz-adv-x="660" 
d="M43 268l43 128h45c2 18.667 4 35 6 49s4.33301 26.833 7 38.5s5.5 22.334 8.5 32.001s6.5 19.167 10.5 28.5c40.667 90.667 114.667 136 222 136c68.667 0 121.5 -16.667 158.5 -50s61.5 -86 73.5 -158l-151 -33c-4.66699 42.667 -13 73 -25 91s-30 27 -54 27
c-55.333 0 -86 -53.667 -92 -161h146l-43 -128h-104c8.66699 -100.667 39 -151 91 -151c23.333 0 41.333 10.167 54 30.5s21.667 53.833 27 100.5l151 -51c-13.333 -68.667 -40.333 -120.834 -81 -156.501s-94.334 -53.5 -161 -53.5c-74.667 0 -132.5 23.667 -173.5 71
s-64.833 117.333 -71.5 210h-87z" />
    <glyph glyph-name="trademark" unicode="&#x2122;" horiz-adv-x="824" 
d="M340 586h-109v-319h-106v319h-109v81h324v-81zM786 267h-95l4 262l-65 -205h-82l-65 208l4 -265h-93v400h120l75 -228l76 228h121v-400z" />
    <glyph glyph-name=".null" horiz-adv-x="0" 
 />
    <glyph glyph-name="nonmarkingreturn" horiz-adv-x="333" 
 />
    </font>
</defs>
</svg>
