<?xml version="1.0" standalone="no"?>
<!DOCTYPE svg PUBLIC "-//W3C//DTD SVG 1.1//EN" "http://www.w3.org/Graphics/SVG/1.1/DTD/svg11.dtd" >
<svg xmlns="http://www.w3.org/2000/svg" xmlns:xlink="http://www.w3.org/1999/xlink" version="1.1">
<metadata>
Created by FontForge 20190801 at Mon Dec 22 16:34:31 2014
 By Jimmy Wärting
Copyright 2010 URW++ Design &#38; Development Hamburg
</metadata>
<defs>
<font id="NeuzeitGroteskW01-Regular" horiz-adv-x="500" >
  <font-face 
    font-family="NeuzeitGroteskW01-Regular"
    font-weight="400"
    font-stretch="normal"
    units-per-em="1000"
    panose-1="1 0 0 0 0 0 0 0 0 0"
    ascent="800"
    descent="-200"
    x-height="461"
    cap-height="667"
    bbox="-43 -234 948 868"
    underline-thickness="50"
    underline-position="-175"
    unicode-range="U+0020-2122"
  />
<missing-glyph horiz-adv-x="300" 
 />
    <glyph glyph-name=".notdef" horiz-adv-x="300" 
 />
    <glyph glyph-name="space" unicode=" " horiz-adv-x="300" 
 />
    <glyph glyph-name="exclam" unicode="!" horiz-adv-x="257" 
d="M168 161h-77v506h77v-506zM129 96c15.333 0 27.833 -4.99902 37.5 -14.999s14.5 -22.667 14.5 -38c0 -14.667 -5 -26.834 -15 -36.501s-22.333 -14.5 -37 -14.5c-15.333 0 -27.833 4.83301 -37.5 14.5s-14.5 22.167 -14.5 37.5s4.83301 27.833 14.5 37.5
s22.167 14.5 37.5 14.5z" />
    <glyph glyph-name="quotedbl" unicode="&#x22;" horiz-adv-x="337" 
d="M61 400l-13 267h89l-14 -267h-62zM214 400l-13 267h88l-13 -267h-62z" />
    <glyph glyph-name="numbersign" unicode="#" 
d="M440 239h-103l-30 -212h-50l29 212h-88l-30 -212h-52l30 212h-107v50h114l14 94h-104v51h111l28 196h51l-27 -196h88l28 196h50l-27 -196h96v-51h-103l-13 -94h95v-50zM217 385l-14 -98h92l14 98h-92z" />
    <glyph glyph-name="dollar" unicode="$" 
d="M263 367c14.667 -6 27.1602 -11.0039 37.4932 -15.0039s19.333 -7.83301 27 -11.5s14.5 -7.16699 20.5 -10.5s12.333 -7 19 -11c23.333 -14.667 42 -34.667 56 -60s21 -52.666 21 -81.999c0 -30 -7 -57.667 -21 -83s-33.667 -46 -59 -62
c-15.333 -9.33301 -30.166 -16.166 -44.499 -20.499s-33.166 -8.16602 -56.499 -11.499v-93h-41v93c-21.333 1.33301 -39.166 4.33301 -53.499 9s-29.166 12.334 -44.499 23.001c-49.333 32 -74 75.667 -74 131v6c0 2.66699 0.333008 5.66699 1 9h69
c-0.666992 -1.33301 -1 -3.33301 -1 -6c-1.33301 -12.667 0.5 -24.834 5.5 -36.501s12 -22.167 21 -31.5s20 -17.166 33 -23.499s27.5 -10.5 43.5 -12.5v237c-25.334 9.33301 -44.667 17 -58 23s-26.666 13.333 -39.999 22c-22 14.667 -39.333 33.5 -52 56.5
s-19 48.5 -19 76.5c0 28.667 6.83301 55.5 20.5 80.5s32.167 45.167 55.5 60.5c13.333 8 26.833 14.167 40.5 18.5s31.167 7.83301 52.5 10.5v72h41v-72c52 -6 92.833 -23.833 122.5 -53.5s44.834 -67.167 45.501 -112.5h-71c-5.33301 54.667 -37.666 86.667 -96.999 96
v-216zM221.993 582.996c-32 -4 -56.167 -14.334 -72.5 -31.001s-24.5 -38.334 -24.5 -65.001c0 -25.333 7.66699 -46.166 23 -62.499s40 -30.166 74 -41.499v200zM262.993 67.9951c32 2.66699 57.667 13.333 77 32s29 43 29 73c0 26.667 -8.5 49.167 -25.5 67.5
c-17 18.334 -43.833 34.167 -80.5 47.5v-220z" />
    <glyph glyph-name="percent" unicode="%" horiz-adv-x="611" 
d="M255 440c0 -74 -34.666 -110.998 -103.999 -110.998c-17.333 0 -32.833 2.66699 -46.5 8s-25.167 13.333 -34.5 24c-9.33301 9.33301 -15.333 19.5 -18 30.5s-4 28.833 -4 53.5v102c0 24.667 1.83301 44 5.5 58s10.167 25.667 19.5 35s20.833 16.666 34.5 21.999
s28.5 8 44.5 8c29.333 0 54.666 -9 75.999 -27c5.33301 -5.34277 9.83301 -10.6758 13.5 -15.999c3.66699 -5.33301 6.5 -11.333 8.5 -18s3.33301 -14.834 4 -24.501s1 -21.834 1 -36.501v-108zM97.001 454.002c0 -20 0.5 -33.167 1.5 -39.5s3.5 -12.5 7.5 -18.5
c10 -14 25.333 -21 46 -21c22.667 0 38.334 8 47 24c3.33301 5.33301 5.5 11.5 6.5 18.5s1.5 18.167 1.5 33.5v103c0 46 -18 69 -54 69c-21.333 0 -36.333 -6 -45 -18c-5.33301 -6 -8.5 -12.5 -9.5 -19.5s-1.5 -20.167 -1.5 -39.5v-92zM563.001 107.002
c0 -73.333 -34.668 -109.998 -104.001 -109.998c-35.333 0 -62.666 10.667 -81.999 32c-4 4.66699 -7.5 9.33398 -10.5 14.001s-5.16699 10 -6.5 16s-2.33301 13.333 -3 22s-1 19 -1 31v102c0 25.333 1.83301 44.666 5.5 57.999s10.167 25 19.5 35
c9.33301 9.33301 20.833 16.666 34.5 21.999s28.5 8 44.5 8c30.667 0 56 -9 76 -27c6 -5.33301 10.667 -10.666 14 -15.999s6 -11.333 8 -18c2 -6.66797 3.33301 -14.835 4 -24.501c0.666992 -9.66699 1 -21.834 1 -36.501v-108zM405 121.004c0 -20 0.5 -33 1.5 -39
s3.5 -12 7.5 -18c10 -14 25.333 -21 46 -21c22.667 0 38.334 8 47.001 24c3.33301 5.33301 5.5 11.333 6.5 18s1.5 17.667 1.5 33v103c0 24 -4.33301 41.5 -13 52.5c-8.66797 11 -22.335 16.5 -41.001 16.5c-21.333 0 -36.333 -6 -45 -18c-5.33301 -6 -8.5 -12.5 -9.5 -19.5
s-1.5 -20.167 -1.5 -39.5v-92zM93 -7.99609l-32 23l457 660l33 -22z" />
    <glyph glyph-name="ampersand" unicode="&#x26;" horiz-adv-x="597" 
d="M573 0l-83.998 -0.00292969l-67 91c-20 -19.333 -38.167 -35.666 -54.5 -48.999s-32 -24 -47 -32s-29.667 -13.833 -44 -17.5s-29.5 -5.5 -45.5 -5.5c-26 0 -50.5 4.83301 -73.5 14.5s-43 23 -60 40s-30.333 37.167 -40 60.5s-14.5 48.333 -14.5 75
c0 20.667 2.5 39.334 7.5 56.001s13.667 33 26 49s28.666 32 48.999 48s45.833 33.333 76.5 52c-12 16.667 -22 31.167 -30 43.5c-8 12.335 -14.167 23.168 -18.5 32.5c-4.33301 9.33398 -7.33301 18.167 -9 26.499c-1.66699 8.33301 -2.5 17.5 -2.5 27.5
c0 18 3.5 34.5 10.5 49.5s16.667 28.167 29 39.5s26.833 20.166 43.5 26.499s34.667 9.5 54 9.5c18.667 0 36.167 -3 52.5 -9s30.5 -14.5 42.5 -25.5s21.333 -24 28 -39s10 -31.167 10 -48.5s-3.83301 -34.666 -11.5 -51.999s-18.167 -32.666 -31.5 -45.999
c-8 -8 -16.333 -15.167 -25 -21.5s-22.667 -16.166 -42 -29.499l125 -172l27 27l20.5 20.5c6.33301 6.33301 13 13.333 20 21s16.167 17.5 27.5 29.5l51 -48c-12.667 -12.667 -22.834 -23 -30.501 -31s-15 -15.5 -22 -22.5l-22.5 -22.5l-30 -30zM263.002 418.997
c14.667 9.33301 27.001 17.832 37.001 25.499s17.833 15.167 23.5 22.5c5.66699 7.33691 9.66699 14.6699 12 22c2.33301 7.33496 3.5 15.668 3.5 24.999c0 17.333 -5.5 31.333 -16.5 42s-25.167 16 -42.5 16c-18.667 0 -33.834 -5.5 -45.501 -16.5s-17.5 -25.5 -17.5 -43.5
c0 -7.33301 0.5 -13.666 1.5 -18.999s3 -11.166 6 -17.499s7.5 -13.833 13.5 -22.5s14.333 -20 25 -34zM241.003 326.996c-11.333 -8 -20.8359 -14.5 -28.5029 -19.5s-14.167 -9.5 -19.5 -13.5c-5.33398 -4 -10.167 -7.83301 -14.5 -11.5s-8.83301 -7.5 -13.5 -11.5
c-14.667 -12.667 -26 -27.334 -34 -44.001s-12 -33.667 -12 -51c0 -16 3 -31.167 9 -45.5s14.333 -26.833 25 -37.5s22.834 -19.167 36.501 -25.5s28.5 -9.5 44.5 -9.5c12 0 23 1.33301 33 4s20.333 7.33398 31 14.001s22.334 15.667 35.001 27s27.334 26 44.001 44z" />
    <glyph glyph-name="quotesingle" unicode="'" horiz-adv-x="186" 
d="M61 400l-13 267h91l-13 -267h-65z" />
    <glyph glyph-name="parenleft" unicode="(" horiz-adv-x="301" 
d="M215 -234c-59.333 72.667 -102.833 145.499 -130.5 218.499s-41.5 151.5 -41.5 235.5c0 86.667 15 170.5 45 251.5s73 152.833 129 215.5l48 -50c-100.667 -124.667 -151 -262.667 -151 -414c0 -73.333 13 -145.166 39 -215.499s63.333 -134.833 112 -193.5z" />
    <glyph glyph-name="parenright" unicode=")" horiz-adv-x="301" 
d="M85 687c30 -36.667 55.833 -73.002 77.5 -109.002s39.5 -72.5 53.5 -109.5s24.333 -75 31 -114s10 -79.5 10 -121.5c0 -87.333 -15 -171.166 -45 -251.499s-73 -152.166 -129 -215.499l-48 50c100.667 124.667 151 262.667 151 414c0 74 -12.833 145.833 -38.5 215.5
s-63.167 134.167 -112.5 193.5z" />
    <glyph glyph-name="asterisk" unicode="*" horiz-adv-x="423" 
d="M139 377l-40 30l71 94l-112 36l15 46l112 -33v115h48v-115l114 36l16 -47l-117 -38l72 -94l-37 -30l-72 95z" />
    <glyph glyph-name="plus" unicode="+" 
d="M227 364v193h46v-193h205v-44h-205v-193h-46v193h-205v44h205z" />
    <glyph glyph-name="comma" unicode="," horiz-adv-x="231" 
d="M68 -159l-55 17l84 243l72 -23z" />
    <glyph glyph-name="hyphen" unicode="-" horiz-adv-x="207" 
d="M207 208h-207v69h207v-69z" />
    <glyph glyph-name="period" unicode="." horiz-adv-x="231" 
d="M115 96c15.333 0 27.833 -4.99902 37.5 -14.999s14.5 -22.667 14.5 -38c0 -14.667 -5 -26.834 -15 -36.501s-22.333 -14.5 -37 -14.5c-15.333 0 -27.833 4.83301 -37.5 14.5s-14.5 22.167 -14.5 37.5s4.83301 27.833 14.5 37.5s22.167 14.5 37.5 14.5z" />
    <glyph glyph-name="slash" unicode="/" horiz-adv-x="395" 
d="M22 -216h-65l335 883h65z" />
    <glyph glyph-name="zero" unicode="0" 
d="M448 201c0 -38 -3.66797 -69.168 -11.001 -93.501s-19.333 -45.166 -36 -62.499c-17.333 -18.667 -38.833 -32.667 -64.5 -42s-54.5 -14 -86.5 -14c-32.667 0 -62.167 4.83301 -88.5 14.5s-48.166 24.167 -65.499 43.5c-8.66699 9.33301 -15.834 19 -21.501 29
s-10.167 21.667 -13.5 35s-5.66602 29 -6.99902 47s-2 39.667 -2 65v220c0 22 0.666992 41.167 2 57.5s3.5 30.833 6.5 43.5s7.16699 24 12.5 34s11.666 19.667 18.999 29c16.667 20 38.334 35.333 65.001 46s57 16 91 16c61.334 0 110.667 -16.667 148 -50
c18.667 -17.333 32 -37.5 40 -60.5s12 -53.833 12 -92.5v-265zM130.999 217.999c0 -19.333 0.332031 -35 0.999023 -47c0.668945 -12 1.83594 -22.167 3.50098 -30.5c1.66699 -8.33301 4.16699 -15.333 7.5 -21s7.66602 -11.5 12.999 -17.5
c10.667 -12 24.334 -21.5 41.001 -28.5s34.667 -10.5 54 -10.5c20.667 0 39.834 4 57.501 12s31.167 18.667 40.5 32c7.33594 11.333 12.6689 24.5 16 39.5c3.33301 15 5 34.833 5 59.5v255c0 26 -2.5 46.5 -7.5 61.5s-13.833 28.5 -26.5 40.5c-22.667 20.667 -51 31 -85 31
c-21.333 0 -40.833 -4.16699 -58.5 -12.5c-17.667 -8.33594 -31.167 -20.1689 -40.5 -35.5c-8.66699 -12 -14.334 -25.333 -17.001 -40s-4 -36.334 -4 -65v-223z" />
    <glyph glyph-name="one" unicode="1" 
d="M111 448v76l226 148v-672h-79v546z" />
    <glyph glyph-name="two" unicode="2" 
d="M417 73v-72.999h-374l232 332c16.667 24 30.334 44.333 41.001 61s19 31.167 25 43.5s10.167 23.333 12.5 33s3.5 19.5 3.5 29.5c0 29.333 -10.333 53.166 -31 71.499s-47.334 27.5 -80 27.5c-22.667 0 -42.667 -5 -60 -15c-17.334 -10 -29.667 -23.667 -37 -41
c-4 -9.33301 -6.83301 -18.833 -8.5 -28.5s-2.83398 -23.167 -3.50098 -40.5h-75c2 64 19.167 112.833 51.5 146.5s78.5 50.5 138.5 50.5c27.333 0 52.333 -4 75 -12s42.167 -19.333 58.5 -34s29 -32.167 38 -52.5s13.5 -42.5 13.5 -66.5c0 -28 -5.66699 -55.833 -17 -83.5
s-31 -60.834 -59 -99.5l-179 -249h235z" />
    <glyph glyph-name="three" unicode="3" 
d="M72 585l0.000976562 72h378l-196 -249c28.667 0 55.167 -5 79.5 -15s45.333 -23.833 63 -41.5s31.334 -38.834 41.001 -63.5c9.66699 -24.667 14.5 -51.667 14.5 -81c0 -31.333 -5.5 -60.333 -16.5 -87s-26.333 -49.667 -46 -69s-43 -34.5 -70 -45.5
s-56.5 -16.5 -88.5 -16.5c-52.667 0 -96.834 14 -132.501 42s-59.167 67.333 -70.5 118l72 13c9.33301 -32 25 -56.667 47 -74s48.667 -26 80 -26c20 0 38.833 3.5 56.5 10.5s33 16.833 46 29.5s23.333 27.5 31 44.5s11.5 35.167 11.5 54.5c0 20 -3.5 38.333 -10.5 55
s-17 31 -30 43s-28.5 21.333 -46.5 28s-38 10 -60 10c-15.333 0 -28.833 -1.66699 -40.5 -5s-24.834 -9.33301 -39.501 -18l-33 29l193 242h-233z" />
    <glyph glyph-name="four" unicode="4" 
d="M39 150v62l344 464v-454h78v-72h-78v-150h-77v150h-267zM306 477l-187 -255h187v255z" />
    <glyph glyph-name="five" unicode="5" 
d="M370 591l-214.999 -0.00195312v-179c33.333 12.667 66 19 98 19c29.333 0 56.5 -5.5 81.5 -16.5s46.667 -26.167 65 -45.5c18.334 -19.333 32.667 -42.166 42.999 -68.499c10.333 -26.333 15.5 -55.166 15.5 -86.499c0 -32 -5.5 -61.5 -16.5 -88.5
s-26.5 -50.333 -46.5 -70s-43.833 -35 -71.5 -46s-57.834 -16.5 -90.5 -16.5c-47.333 0 -88 11.833 -122 35.5s-59.667 57.5 -77 101.5l73 27c7.33301 -14.667 13.333 -25.5 18 -32.5s9.66699 -13.167 15 -18.5c10.667 -10.667 24.5 -19 41.5 -25s34.833 -9 53.5 -9
c20 0 38.667 3.66699 56 11c17.335 7.33301 32.168 17.5 44.5 30.5c12.333 13 22.166 28.167 29.499 45.5s11 36.333 11 57c0 42.667 -13.667 77 -41 103s-63 39 -107 39c-53.333 0 -102.666 -22.667 -147.999 -68v377h290v-76z" />
    <glyph glyph-name="six" unicode="6" 
d="M201 390c14 5.33301 25.333 8.83203 34 10.499s19 2.5 31 2.5c28 0 54 -5.16699 78 -15.5s44.833 -24.5 62.5 -42.5s31.5 -39.167 41.5 -63.5s15 -50.5 15 -78.5c0 -29.333 -5.66699 -57.166 -17 -83.499s-26.833 -49.166 -46.5 -68.499s-42.5 -34.666 -68.5 -45.999
s-53.667 -17 -83 -17c-30 0 -57.833 5.5 -83.5 16.5s-48 26.167 -67 45.5s-33.833 42.166 -44.5 68.499s-16 54.5 -16 84.5c0 12 0.833008 23.667 2.5 35s4.5 22.666 8.5 33.999s9.33301 23.333 16 36s14.667 26.667 24 42l191 307h93zM252 334.999
c-19.333 0 -37.167 -3.33105 -53.5 -9.99805c-16.334 -6.66699 -30.667 -16 -43 -28s-22 -26 -29 -42s-10.5 -33.333 -10.5 -52c0 -19.333 3.5 -37.5 10.5 -54.5s16.5 -31.833 28.5 -44.5s26.167 -22.667 42.5 -30s33.833 -11 52.5 -11s36.167 3.5 52.5 10.5
c16.334 7 30.667 16.833 43 29.5s22 27.167 29 43.5s10.5 34.166 10.5 53.499c0 18.667 -3.5 36.167 -10.5 52.5c-7 16.334 -16.5 30.667 -28.5 42.999c-12 12.333 -26 22 -42 29s-33.333 10.5 -52 10.5z" />
    <glyph glyph-name="seven" unicode="7" 
d="M84 583v74h370l-264 -657h-86l236 583h-256z" />
    <glyph glyph-name="eight" unicode="8" 
d="M330 362c19.333 -6 34.3301 -11.835 44.9971 -17.502s21.334 -14.167 32.001 -25.5c33.333 -33.333 50 -76.333 50 -129c0 -29.333 -5.16699 -56.333 -15.5 -81s-24.833 -46 -43.5 -64s-40.667 -32 -66 -42s-53.333 -15 -84 -15c-30 0 -57.667 4.83301 -83 14.5
s-47.166 23.167 -65.499 40.5s-32.5 37.833 -42.5 61.5s-15 49.834 -15 78.501c0 26.667 4.33301 51.5 13 74.5s21 42.833 37 59.5c10.667 11.333 21.334 20 32.001 26s26 12.333 46 19c-17.333 6 -30.666 12 -39.999 18s-18.666 14.667 -27.999 26
c-22.667 28 -34 60.667 -34 98c0 24 4.66699 46 14 66s22.166 37.333 38.499 52s35.666 26.167 57.999 34.5s46.833 12.5 73.5 12.5c26 0 50.167 -4.16699 72.5 -12.5c22.333 -8.33789 41.5 -19.6709 57.5 -33.999c16 -14.333 28.5 -31.5 37.5 -51.5s13.5 -42 13.5 -66
c0 -39.333 -12.333 -73.333 -37 -102c-9.33301 -10 -18.333 -17.833 -27 -23.5s-21.667 -11.5 -39 -17.5zM251.997 598.998c-32 0 -58 -8.99902 -78 -26.999s-30 -41 -30 -69c0 -14 2.83301 -27.333 8.5 -40s13.167 -23.5 22.5 -32.5s20.5 -16.167 33.5 -21.5
s26.833 -8 41.5 -8c14 0 27.5 2.66699 40.5 8c13 5.33691 24.5 12.6699 34.5 22c10 9.33496 18 20.168 24 32.5c6 12.334 9 25.167 9 38.499c0 12.667 -2.83301 25 -8.5 37c-5.66797 12 -13.335 22.333 -23 31c-9.66699 8.66699 -21 15.667 -34 21s-26.5 8 -40.5 8z
M250.997 319.999c-18 0 -34.8359 -3.33301 -50.5029 -10c-15.667 -6.66797 -29.5 -15.835 -41.5 -27.501c-12 -11.667 -21.333 -25.334 -28 -41c-6.66699 -15.667 -10 -32.5 -10 -50.5s3.33301 -34.833 10 -50.5s15.834 -29.334 27.5 -41.001
c11.667 -11.667 25.167 -20.834 40.5 -27.501s32 -10 50 -10s34.667 3.33301 50 10s28.833 15.834 40.5 27.501s20.834 25.334 27.501 41.001s10 32.5 10 50.5c0 17.333 -3.33301 33.833 -10 49.5s-15.667 29.334 -27 41.001s-24.666 21 -39.999 28
s-31.666 10.5 -48.999 10.5z" />
    <glyph glyph-name="nine" unicode="9" 
d="M300 267c-14 -5.33301 -25.335 -8.83301 -34.002 -10.5s-18.667 -2.5 -30 -2.5c-28 0 -54.167 5.16699 -78.5 15.5s-45.333 24.5 -63 42.5s-31.667 39.333 -42 64s-15.5 51.334 -15.5 80.001c0 30 5.5 57.833 16.5 83.499c11 25.667 26.333 48.167 46 67.5
s42.667 34.5 69 45.5s54.5 16.5 84.5 16.5s57.833 -5.33301 83.5 -16s47.834 -25.5 66.501 -44.5s33.334 -41.167 44.001 -66.5c10.667 -25.334 16 -53.001 16 -83c0 -25.333 -3.5 -49 -10.5 -71s-18.833 -46.667 -35.5 -74l-192 -314h-93zM252.998 595
c-19.333 0 -37.167 -3.49902 -53.5 -10.499s-30.833 -16.667 -43.5 -29s-22.5 -26.833 -29.5 -43.5c-7 -16.668 -10.5 -34.335 -10.5 -53.001c0 -18.667 3.33301 -36.167 10 -52.5s16 -30.666 28 -42.999s26.167 -22 42.5 -29s33.833 -10.5 52.5 -10.5
c19.334 0 37.167 3.33301 53.5 10s30.5 16 42.5 28s21.5 26.167 28.5 42.5c7 16.334 10.5 34.167 10.5 53.499c0 19.333 -3.33301 37.333 -10 54s-16 31.167 -28 43.5s-26 22 -42 29s-33 10.5 -51 10.5z" />
    <glyph glyph-name="colon" unicode=":" horiz-adv-x="231" 
d="M115 96c15.333 0 27.833 -4.99902 37.5 -14.999s14.5 -22.667 14.5 -38c0 -14.667 -5 -26.834 -15 -36.501s-22.333 -14.5 -37 -14.5c-15.333 0 -27.833 4.83301 -37.5 14.5s-14.5 22.167 -14.5 37.5s4.83301 27.833 14.5 37.5s22.167 14.5 37.5 14.5zM115 384.001
c15.333 0 27.833 -5 37.5 -15s14.5 -22.667 14.5 -38c0 -14.667 -5 -26.834 -15 -36.5c-10 -9.66699 -22.333 -14.5 -37 -14.5c-15.333 0 -27.833 4.83301 -37.5 14.5s-14.5 22.167 -14.5 37.5s4.83301 27.833 14.5 37.5s22.167 14.5 37.5 14.5z" />
    <glyph glyph-name="semicolon" unicode=";" horiz-adv-x="231" 
d="M68 -159l-55 17l84 243l72 -23zM121 379c15.333 0 27.833 -5 37.5 -15s14.5 -22.667 14.5 -38c0 -14.667 -5 -26.834 -15 -36.5c-10 -9.66699 -22.333 -14.5 -37 -14.5c-15.333 0 -27.833 4.83301 -37.5 14.5s-14.5 22.167 -14.5 37.5s4.83301 27.833 14.5 37.5
s22.167 14.5 37.5 14.5z" />
    <glyph glyph-name="less" unicode="&#x3c;" 
d="M466 494l-344 -159l344 -159v-83l-433 207v71l433 206v-83z" />
    <glyph glyph-name="equal" unicode="=" 
d="M478 434v-43h-456v43h456zM478 293v-43h-456v43h456z" />
    <glyph glyph-name="greater" unicode="&#x3e;" 
d="M34 176l344 159l-344 160v82l433 -206v-72l-433 -206v83z" />
    <glyph glyph-name="question" unicode="?" horiz-adv-x="426" 
d="M145 165c0 34.667 0.665039 62.665 1.99805 83.998s4.83301 39.333 10.5 54s14.167 27.834 25.5 39.501s27 25.5 47 41.5c14 10.667 25.667 20.5 35 29.5c9.33594 9 16.6689 18 22 27c5.33594 9 9.16895 18.167 11.5 27.5c2.33301 9.33496 3.5 19.668 3.5 30.999
c0 30.667 -9.33301 55.834 -28 75.5c-18.667 19.667 -42.334 29.5 -71.001 29.5c-28 0 -51 -8.66699 -69 -26s-27 -39 -27 -65v-13h-73c0.666992 54 15.834 96.5 45.501 127.5s70.5 46.5 122.5 46.5c26 0 49.833 -4.33301 71.5 -13s40.334 -20.667 56.001 -36
c15.667 -15.3359 28 -33.6689 37 -55c9 -21.333 13.5 -44.333 13.5 -69c0 -33.333 -7.66699 -62.666 -23 -87.999s-41 -51.666 -77 -78.999c-13.333 -10 -24 -19 -32 -27s-14.167 -16.167 -18.5 -24.5s-7.16602 -18 -8.49902 -29s-2 -24.833 -2 -41.5v-17.5
c0 -10.334 0.333008 -20.167 1 -29.5h-75zM184.998 95.998c15.333 0 27.833 -4.99902 37.5 -14.999s14.5 -22.667 14.5 -38c0 -14.667 -5 -26.834 -15 -36.501s-22.333 -14.5 -37 -14.5c-15.333 0 -27.833 4.83301 -37.5 14.5s-14.5 22.167 -14.5 37.5
s4.83301 27.833 14.5 37.5s22.167 14.5 37.5 14.5z" />
    <glyph glyph-name="at" unicode="@" horiz-adv-x="945" 
d="M590 134c-20 -26 -40.6699 -44.8281 -62.0029 -56.4951s-46 -17.5 -74 -17.5c-27.333 0 -52.166 5 -74.499 15s-41.833 24 -58.5 42s-29.5 39.5 -38.5 64.5s-13.5 52.167 -13.5 81.5c0 30 4.66699 57.667 14 83c9.33496 25.333 22.168 47.166 38.5 65.499
c16.333 18.334 35.833 32.667 58.5 42.999c22.667 10.333 47.667 15.5 75 15.5c54.667 0 99.667 -21.667 135 -65v56h71v-306c0 -14 1.66699 -22.833 5 -26.5s10.666 -5.5 21.999 -5.5c42 0 74.167 15 96.5 45s33.5 72.333 33.5 127c0 46 -8.5 88.667 -25.5 128
s-40.5 73.333 -70.5 102s-65.5 51.167 -106.5 67.5s-85.833 24.5 -134.5 24.5c-50.667 0 -97.5 -8.33301 -140.5 -25s-80 -40 -111 -70s-55.333 -65.5 -73 -106.5s-26.5 -85.833 -26.5 -134.5c0 -50 8.33301 -95.5 25 -136.5s40.334 -76.167 71 -105.5
c30.667 -29.333 67.334 -52.166 110.001 -68.499s89.667 -24.5 141 -24.5c8.66699 0 16.334 0.166992 23.001 0.5s13.834 1.16602 21.501 2.49902s16.5 3.16602 26.5 5.49902s22.667 5.5 38 9.5v-79c-16.667 -3.33301 -30.5 -5.83301 -41.5 -7.5s-20.667 -3 -29 -4
c-8.33301 -0.998047 -16 -1.66504 -23 -2c-7 -0.333008 -15.167 -0.5 -24.5 -0.5c-32 0 -63.333 3.5 -94 10.5s-60.334 17 -89 30c-28.667 13 -55.5 28.833 -80.5 47.5s-47.5 39.667 -67.5 63c-56.667 67.333 -85 152.666 -85 255.999c0 127.333 43.333 229 130 305
c39.333 35.333 84.5 62.333 135.5 81s104.167 28 159.5 28c59.333 0 114.5 -10 165.5 -30s95 -47.833 132 -83.5s66 -77.667 87 -126s31.5 -100.833 31.5 -157.5c0 -74.667 -18.333 -132.834 -55 -174.501s-87.667 -62.5 -153 -62.5c-33.333 0 -57.5 4.83301 -72.5 14.5
s-22.5 25.167 -22.5 46.5v15zM463.997 406.005c-18 0 -34.333 -3.5 -49 -10.5s-27.167 -16.833 -37.5 -29.5s-18.5 -27.834 -24.5 -45.5c-6 -17.667 -9 -36.834 -9 -57.5c0 -20 3 -38.667 9 -56c6 -17.334 14.333 -32.167 25 -44.5s23.334 -22 38.001 -29
s30.667 -10.5 48 -10.5c18 0 34.667 3.83301 50 11.5s28.666 18.334 39.999 32c11.333 13.667 20.333 29.667 27 48s10 38.166 10 59.499c0 18.667 -3.16699 36.167 -9.5 52.5c-6.33789 16.333 -15.1709 30.333 -26.5 42c-11.333 11.667 -24.833 20.834 -40.5 27.501
s-32.5 10 -50.5 10z" />
    <glyph glyph-name="A" unicode="A" horiz-adv-x="606" 
d="M153 154l-61 -154h-87l251 667h100l245 -667h-94l-55 154h-299zM304 561l-126 -335h248z" />
    <glyph glyph-name="B" unicode="B" horiz-adv-x="551" 
d="M271 667c68.667 0 121.334 -15.332 158.001 -45.999s55 -74.334 55 -131.001c0 -21.333 -3.16699 -41.333 -9.5 -60s-15.833 -34.667 -28.5 -48c-8.66699 -9.33301 -17.667 -17 -27 -23s-23 -12.667 -41 -20c19.334 -4 34.167 -8.16699 44.5 -12.5
s20.833 -10.833 31.5 -19.5c18 -14 31.667 -31.833 41 -53.5s14 -46.167 14 -73.5c0 -32 -6.33301 -60.667 -19 -86c-12.668 -25.333 -30.335 -45.333 -53.001 -60c-19.333 -12.667 -41.333 -21.5 -66 -26.5s-58 -7.5 -100 -7.5h-188v667h188zM167 368.001l85 0.000976562
c26 0 47.667 2.16699 65 6.5c17.333 4.33594 32 11.1689 44 20.499c13.333 10 23.5 23 30.5 39s10.5 33.333 10.5 52c0 21.333 -4.66699 40.833 -14 58.5s-22.333 30.167 -39 37.5c-12 6 -26.167 10.167 -42.5 12.5s-39.833 3.5 -70.5 3.5h-69v-230zM167 68.002
l83.999 -0.000976562c17.333 0 32.333 0.333008 45 1s23.834 1.83398 33.501 3.50098s18.167 4 25.5 7c7.33594 3 14.6689 6.5 21.999 10.5c32 18 48 49.667 48 95c0 40 -12.167 69.167 -36.5 87.5s-63.166 27.5 -116.499 27.5h-105v-232z" />
    <glyph glyph-name="C" unicode="C" horiz-adv-x="630" 
d="M606 101c-34 -40 -70.166 -68.832 -108.499 -86.499s-83.5 -26.5 -135.5 -26.5c-94.667 0 -171 32.667 -229 98c-28 32 -49.833 69.5 -65.5 112.5s-23.5 87.833 -23.5 134.5c0 50 8 96.167 24 138.5s38.167 78.833 66.5 109.5s62 54.667 101 72s81.5 26 127.5 26
c30 0 59.333 -3.83301 88 -11.5s55 -18.834 79 -33.501c13.333 -8.66699 25.5 -17.834 36.5 -27.501s24.833 -23.5 41.5 -41.5l-58 -54c-16 16.6689 -31.333 30.8359 -46 42.501c-14.668 11.667 -29.335 21 -44.001 28c-14.667 7 -29.667 12.167 -45 15.5s-32 5 -50 5
c-34 0 -65.333 -6.66699 -94 -20s-53.5 -32 -74.5 -56s-37.333 -52.5 -49 -85.5s-17.5 -68.833 -17.5 -107.5s6 -74.334 18 -107c12 -32.667 28.667 -61 50 -85s46.5 -42.667 75.5 -56s60.833 -20 95.5 -20c36.667 0 69.5 7.33301 98.5 22s56.5 38 82.5 70z" />
    <glyph glyph-name="D" unicode="D" horiz-adv-x="626" 
d="M83 667l176.998 0.000976562c50 0 95 -7.33301 135 -22s73.833 -36 101.5 -64c27.6689 -28 48.8359 -62 63.501 -102c14.667 -40 22 -85 22 -135c0 -56.667 -9 -107.834 -27 -153.501s-44 -83.5 -78 -113.5c-57.333 -51.333 -134.666 -77 -231.999 -77h-162v667z
M166.998 72.001l30 0.000976562c28 0 52.5 0.833008 73.5 2.5s39.5 4.5 55.5 8.5s30.333 9.16699 43 15.5s25 14.166 37 23.499c60 48 90 121.667 90 221c0 80.667 -20.667 143 -62 187s-100.333 66 -177 66h-90v-524z" />
    <glyph glyph-name="E" unicode="E" horiz-adv-x="473" 
d="M159 372h263v-72h-263v-228h263v-72h-347v667h347v-72h-263v-223z" />
    <glyph glyph-name="F" unicode="F" horiz-adv-x="456" 
d="M167 372h260v-72h-260v-300h-84v667h344v-72h-260v-223z" />
    <glyph glyph-name="G" unicode="G" horiz-adv-x="732" 
d="M692 361c0.666992 -7.33301 1 -14.665 1 -21.998v-16c0 -44.667 -5.33301 -83.5 -16 -116.5s-28.334 -65.167 -53.001 -96.5c-32 -40 -69.167 -70.333 -111.5 -91s-88.833 -31 -139.5 -31c-47.333 0 -91.166 8.66699 -131.499 26s-75.166 41.166 -104.499 71.499
s-52.166 66.5 -68.499 108.5s-24.5 88 -24.5 138c0 50.667 8.16699 97.167 24.5 139.5s39.166 78.833 68.499 109.5s64 54.667 104 72s84 26 132 26c50.667 0 97.167 -10.167 139.5 -30.5s79.5 -50.5 111.5 -90.5l-63 -51c-13.3379 14.667 -23.6709 25.667 -31 33
c-7.33691 7.33301 -15.6699 14 -24.999 20c-18.668 13.333 -39.335 23.666 -62.001 30.999c-22.667 7.33301 -46 11 -70 11c-34.667 0 -66.834 -6.83301 -96.5 -20.5c-29.667 -13.667 -55.334 -32.5 -77.001 -56.5s-38.667 -52.5 -51 -85.5s-18.5 -68.5 -18.5 -106.5
s6.16699 -73.333 18.5 -106s29.333 -61 51 -85s47.167 -42.833 76.5 -56.5s61 -20.5 95 -20.5c37.333 0 73.5 8.83301 108.5 26.5s62.833 41.5 83.5 71.5c13.333 17.333 23 35.333 29 54s10.667 42.667 14 72h-232v72h318z" />
    <glyph glyph-name="H" unicode="H" horiz-adv-x="659" 
d="M167 0h-84v667h84v-300h325v300h84v-667h-84v295h-325v-295z" />
    <glyph glyph-name="I" unicode="I" horiz-adv-x="250" 
d="M167 0h-84v667h84v-667z" />
    <glyph glyph-name="J" unicode="J" horiz-adv-x="374" 
d="M303 206c0 -93.333 -35.333 -155.999 -106 -187.999c-31.333 -14.667 -77.333 -22 -138 -22h-13.5c-5.66699 0 -12.167 0.333008 -19.5 1v73c10 -1.33301 18 -2 24 -2h17c48 0 84.667 10.667 110 32c16 14 27 32.167 33 54.5s9 55.166 9 98.499v342h-193v72h277v-461z
" />
    <glyph glyph-name="K" unicode="K" horiz-adv-x="539" 
d="M167 0h-84v667h84v-307l259 307h101l-278 -330l278 -337h-107l-253 308v-308z" />
    <glyph glyph-name="L" unicode="L" horiz-adv-x="427" 
d="M402 76v-76h-319v667h84v-591h235z" />
    <glyph glyph-name="M" unicode="M" horiz-adv-x="828" 
d="M167 0h-84v667h83l247 -500l250 500h82v-667h-84v488l-248 -495l-246 496v-489z" />
    <glyph glyph-name="N" unicode="N" horiz-adv-x="683" 
d="M167 0h-84v667h77l356 -502v502h84v-667h-74l-359 510v-510z" />
    <glyph glyph-name="O" unicode="O" horiz-adv-x="742" 
d="M374 679c46.667 0 91.334 -9.99902 134.001 -29.999s80 -48.333 112 -85c27.333 -32 47.166 -67 59.499 -105s18.5 -82 18.5 -132c0 -52 -9.66699 -100.333 -29 -145s-47.333 -82.667 -84 -114c-30 -26 -63.333 -45.833 -100 -59.5s-74.334 -20.5 -113 -20.5
c-50 0 -97.667 11 -143 33s-83.666 52.667 -114.999 92c-23.333 29.333 -40.833 62.333 -52.5 99s-17.5 76 -17.5 118c0 50 8.33301 96.167 25 138.5s39.667 79.166 69 110.499s64.166 55.833 104.499 73.5c40.334 17.667 84.167 26.5 131.5 26.5zM372 601.001
c-34.667 0 -66.834 -6.66504 -96.5 -19.998c-29.667 -13.333 -55.167 -32 -76.5 -56s-38.166 -52.333 -50.499 -85s-18.5 -68.334 -18.5 -107c0 -38.667 6 -74.334 18 -107c12 -32.667 28.667 -61 50 -85s46.666 -42.667 75.999 -56s61.333 -20 96 -20c34 0 66.5 7 97.5 21
c31.001 14 57.834 33.667 80.5 59c19.333 21.333 34.833 48.666 46.5 81.999s17.5 67 17.5 101c0 44.667 -6.16699 83.5 -18.5 116.5s-31.5 62.167 -57.5 87.5c-22 21.333 -47.333 38.166 -76 50.499s-58 18.5 -88 18.5z" />
    <glyph glyph-name="P" unicode="P" horiz-adv-x="531" 
d="M167 0l-84 0.000976562v667h178c79.333 0 140 -17.333 182 -52s63 -85.334 63 -152.001c0 -33.333 -6.16699 -64 -18.5 -92s-29.833 -51.333 -52.5 -70c-19.333 -15.333 -42.333 -26.833 -69 -34.5s-58.667 -11.5 -96 -11.5h-103v-255zM254 327.001
c18 0 33.499 0.832031 46.499 2.49902s25.167 4.83398 36.5 9.50098c25.334 9.33301 45.667 24.833 61 46.5s23 46.834 23 75.501s-7.5 53.667 -22.5 75s-35.833 36.666 -62.5 45.999c-13.333 4.66699 -27.166 8 -41.499 10s-31.5 3 -51.5 3h-76v-268h87z" />
    <glyph glyph-name="Q" unicode="Q" horiz-adv-x="747" 
d="M645 -20l-71.001 79.999c-32.667 -25.333 -65 -43.666 -97 -54.999s-67 -17 -105 -17c-46 0 -90.5 9.83301 -133.5 29.5s-80.5 47.167 -112.5 82.5c-53.333 59.333 -80 136 -80 230c0 50 8.33301 96.333 25 139s39.667 79.5 69 110.5s64 55.333 104 73
s83.667 26.5 131 26.5c46.667 0 89.834 -8.66699 129.501 -26s74 -41.333 103 -72s51.833 -67 68.5 -109s25 -87.333 25 -136c0 -44.667 -5.66699 -84.5 -17 -119.5c-11.3359 -35 -29.6689 -69.5 -55 -103.5l74 -80zM572.999 173.999
c14.667 26.667 25.166 52.001 31.499 76.001s9.5 51.333 9.5 82c0 38.667 -6 74.5 -18 107.5s-28.667 61.5 -50 85.5s-46.666 42.667 -75.999 56s-61.333 20 -96 20c-36.667 0 -71.667 -8.16699 -105 -24.5s-61.333 -39.5 -84 -69.5c-17.333 -22 -30.5 -47.833 -39.5 -77.5
s-13.5 -61.5 -13.5 -95.5c0 -39.333 6 -75.333 18 -108s28.667 -60.834 50 -84.501s46.5 -42.167 75.5 -55.5s60.833 -20 95.5 -20c29.334 0 55.167 4.16699 77.5 12.5c22.334 8.33301 45.167 22.5 68.5 42.5l-49 55l57 50z" />
    <glyph glyph-name="R" unicode="R" horiz-adv-x="560" 
d="M167 0h-84v667h182c71.334 0 127.167 -17.167 167.5 -51.5s60.5 -81.833 60.5 -142.5c0 -38 -8.16699 -71.333 -24.5 -100s-40.166 -51.334 -71.499 -68c-16 -8.66699 -32.833 -15 -50.5 -19s-41.834 -7 -72.501 -9l259 -277h-107l-259 280v-280zM251 337
c50.667 0 89.333 11.167 116 33.5s40 54.5 40 96.5s-12.167 73.833 -36.5 95.5s-59.5 32.5 -105.5 32.5h-98v-258h84z" />
    <glyph glyph-name="S" unicode="S" horiz-adv-x="490" 
d="M118 179c4 -77.333 43.3301 -115.998 117.997 -115.998c38 0 68.833 10.333 92.5 31s35.5 48 35.5 82c0 14.667 -2.16699 27.5 -6.5 38.5s-11.666 21 -21.999 30s-24.166 17.667 -41.499 26s-39 16.833 -65 25.5c-20 6.66699 -36.833 12.667 -50.5 18
s-25.5 10.5 -35.5 15.5s-18.833 10.167 -26.5 15.5s-15.167 11.333 -22.5 18c-34.667 31.333 -52 73.333 -52 126c0 28 4.83301 53.667 14.5 77s23.167 43.333 40.5 60s38.333 29.667 63 39s51.667 14 81 14s56 -4.5 80 -13.5s44.667 -21.833 62 -38.5
s30.833 -36.834 40.5 -60.501s14.834 -49.834 15.501 -78.501h-84c-0.666992 17.335 -2.16699 30.835 -4.5 40.5c-2.33301 9.66699 -6.16602 19.167 -11.499 28.5c-9.33301 14.667 -22.833 26.167 -40.5 34.5s-37.167 12.5 -58.5 12.5c-33.333 0 -60.5 -10.167 -81.5 -30.5
s-31.5 -46.5 -31.5 -78.5c0 -33.333 12.667 -59 38 -77c5.33301 -4 10.666 -7.5 15.999 -10.5s12 -6.16699 20 -9.5s17.5 -7.16602 28.5 -11.499s25.167 -9.5 42.5 -15.5c35.333 -12.667 62.833 -24.167 82.5 -34.5s36.167 -22.833 49.5 -37.5c30 -32 45 -71.333 45 -118
c0 -28.667 -5 -54.834 -15 -78.501s-24.333 -44 -43 -61s-40.834 -30.167 -66.5 -39.5c-25.667 -9.33301 -54.167 -14 -85.5 -14c-84 0 -143.333 30 -178 90c-15.333 26 -23 55 -23 87v14h80z" />
    <glyph glyph-name="T" unicode="T" horiz-adv-x="443" 
d="M264 0h-84v595h-170v72h423v-72h-169v-595z" />
    <glyph glyph-name="U" unicode="U" horiz-adv-x="636" 
d="M155 270c0 -42.667 3.33398 -76 10.001 -100s18 -44 34 -60c14 -13.333 31.833 -24.166 53.5 -32.499s43.167 -12.5 64.5 -12.5c21.334 0 42.667 4.33301 64 13s39.333 20.667 54 36c8.66699 8.66699 16 17.667 22 27s10.667 20 14 32c3.34082 12 5.67383 26 7 42
c1.33301 16 2 35 2 57v395h86v-395c0 -50 -4.5 -90.667 -13.5 -122s-24.167 -59 -45.5 -83c-22.667 -25.333 -50.167 -44.833 -82.5 -58.5s-67.5 -20.5 -105.5 -20.5c-39.333 0 -75.833 7.16699 -109.5 21.5s-61.834 35.166 -84.501 62.499c-10 12 -18.5 24.167 -25.5 36.5
s-12.667 26.333 -17 42s-7.33301 33.334 -9 53c-1.66699 19.667 -2.5 42.5 -2.5 68.5v395h84v-397z" />
    <glyph glyph-name="V" unicode="V" horiz-adv-x="549" 
d="M455 667h89l-232 -667h-82l-225 667h88l179 -530z" />
    <glyph glyph-name="W" unicode="W" horiz-adv-x="861" 
d="M769 667h87l-204 -667h-74l-147 524l-148 -524h-74l-204 667h89l152 -511l148 511h79l143 -513z" />
    <glyph glyph-name="X" unicode="X" horiz-adv-x="552" 
d="M108 0h-102l223 340l-215 327h101l163 -253l164 253h98l-214 -327l220 -340h-97l-171 266z" />
    <glyph glyph-name="Y" unicode="Y" horiz-adv-x="529" 
d="M308 0h-84v294l-230 373h99l172 -286l170 286h100l-227 -373v-294z" />
    <glyph glyph-name="Z" unicode="Z" horiz-adv-x="539" 
d="M490 72v-72h-477l378 595h-336v72h474l-377 -595h338z" />
    <glyph glyph-name="bracketleft" unicode="[" horiz-adv-x="300" 
d="M238 667v-50h-94v-783h94v-50h-161v883h161z" />
    <glyph glyph-name="backslash" unicode="\" horiz-adv-x="395" 
d="M102 667l335 -883h-65l-335 883h65z" />
    <glyph glyph-name="bracketright" unicode="]" horiz-adv-x="300" 
d="M223 -216h-161v50h94v783h-94v50h161v-883z" />
    <glyph glyph-name="asciicircum" unicode="^" 
d="M30 373l173 295h94l172 -295h-78l-142 239l-141 -239h-78z" />
    <glyph glyph-name="underscore" unicode="_" 
d="M500 -70v-54h-500v54h500z" />
    <glyph glyph-name="grave" unicode="`" 
d="M289 528h-54l-118 132h90z" />
    <glyph glyph-name="a" unicode="a" horiz-adv-x="577" 
d="M424 461h75.999v-461h-76v89c-23.333 -34.667 -48.333 -60 -75 -76s-57.667 -24 -93 -24c-32 0 -61.167 6 -87.5 18s-49.166 28.5 -68.499 49.5s-34.333 46.167 -45 75.5s-16 61.666 -16 96.999s5.5 67.833 16.5 97.5s26.167 55.334 45.5 77.001s42.333 38.5 69 50.5
s56 18 88 18c35.334 0 66.167 -7 92.5 -21s50.833 -36 73.5 -66v76zM268.999 404c-48.667 0 -86 -18.332 -112 -54.999c-12 -16.667 -21.333 -35.5 -28 -56.5s-10 -42.833 -10 -65.5c0 -24.667 3.83301 -47.5 11.5 -68.5s18 -39.167 31 -54.5s28.5 -27.333 46.5 -36
s37.667 -13 59 -13c22 0 42.5 4.66699 61.5 14s35.667 22.166 50 38.499c14.334 16.333 25.667 35.5 34 57.5s12.5 45.333 12.5 70s-3.83301 47.5 -11.5 68.5s-18.334 38.833 -32 53.5c-13.667 14.667 -30.167 26.167 -49.5 34.5s-40.333 12.5 -63 12.5z" />
    <glyph glyph-name="b" unicode="b" horiz-adv-x="573" 
d="M152 0l-76 -0.00195312v667h76v-285c23.333 32 47.666 55 72.999 69s55 21 89 21c32 0 61.5 -6 88.5 -18s50.167 -28.667 69.5 -50s34.333 -46.833 45 -76.5s16 -62.5 16 -98.5c0 -35.333 -5.33301 -67.666 -16 -96.999s-25.5 -54.666 -44.5 -75.999
s-41.667 -37.833 -68 -49.5s-55.166 -17.5 -86.499 -17.5c-36 0 -67 7 -93 21s-50.333 37 -73 69v-79zM304 403.998c-22 0 -42.3311 -4.33691 -60.998 -13.0039s-34.834 -20.667 -48.501 -36s-24.334 -33.666 -32.001 -54.999s-11.5 -44.666 -11.5 -69.999
c0 -52.667 13.667 -95 41 -127s63.666 -48 108.999 -48c46 0 82.833 15.667 110.5 47s41.5 73 41.5 125c0 26 -3.66699 49.833 -11 71.5s-17.666 40.334 -30.999 56.001s-29 27.834 -47 36.501s-38 13 -60 13z" />
    <glyph glyph-name="c" unicode="c" horiz-adv-x="457" 
d="M435 57c-26 -23.333 -52.334 -40.502 -79.001 -51.502s-57 -16.5 -91 -16.5c-33.333 0 -63.833 6 -91.5 18s-51.5 28.5 -71.5 49.5s-35.5 46.167 -46.5 75.5s-16.5 61.666 -16.5 96.999c0 36 5.66699 68.833 17 98.5s27.166 55.167 47.499 76.5s44.5 38 72.5 50
s59 18 93 18c65.333 0 121.333 -23 168 -69l-49 -49c-35.333 32 -74.333 48 -117 48c-22.667 0 -43.5 -4.16699 -62.5 -12.5s-35.167 -20 -48.5 -35s-23.833 -33 -31.5 -54s-11.5 -43.833 -11.5 -68.5c0 -25.333 3.66699 -48.666 11 -69.999s17.833 -39.666 31.5 -54.999
s29.834 -27.166 48.5 -35.499c18.667 -8.33301 39.334 -12.5 62 -12.5c22.667 0 43.334 4 62.001 12s37.334 20.667 56.001 38z" />
    <glyph glyph-name="d" unicode="d" horiz-adv-x="574" 
d="M421 667h76v-667h-76v79c-23.333 -32 -47.833 -55 -73.5 -69s-56.167 -21 -91.5 -21c-32 0 -61.167 5.83301 -87.5 17.5s-49.166 28.167 -68.499 49.5s-34.333 46.5 -45 75.5s-16 61.167 -16 96.5c0 34.667 5.5 67 16.5 97s26.167 55.833 45.5 77.5
s42.166 38.667 68.499 51s55.166 18.5 86.499 18.5c34 0 64.333 -6.5 91 -19.5s51.334 -33.5 74.001 -61.5v276zM272 404c-22.667 0 -43.333 -4.33496 -62 -13.002s-34.834 -20.667 -48.501 -36s-24.167 -34 -31.5 -56s-11 -46 -11 -72c0 -25.333 3.66699 -48.5 11 -69.5
s17.5 -39.167 30.5 -54.5s28.5 -27.166 46.5 -35.499s38 -12.5 60 -12.5s42.5 4.33301 61.5 13s35.333 20.834 49 36.501s24.334 34 32.001 55s11.5 44.167 11.5 69.5c0 26 -3.66699 49.667 -11 71s-17.5 39.833 -30.5 55.5s-28.667 27.667 -47 36s-38.5 12.5 -60.5 12.5z
" />
    <glyph glyph-name="e" unicode="e" horiz-adv-x="539" 
d="M120 206c2 -19.333 5.16992 -34.999 9.50293 -46.999s11.166 -24.333 20.499 -37c15.333 -20.667 33.5 -36.334 54.5 -47.001s44.167 -16 69.5 -16c28.667 0 55.5 7.16699 80.5 21.5s44.167 33.5 57.5 57.5l67 -25c-19.333 -38.667 -47.333 -69 -84 -91s-77 -33 -121 -33
c-34 0 -65.5 6 -94.5 18s-53.833 28.5 -74.5 49.5s-36.834 46.167 -48.501 75.5s-17.5 61.666 -17.5 96.999s5.83301 67.833 17.5 97.5s27.667 55.334 48 77.001s44.666 38.5 72.999 50.5s59.5 18 93.5 18c33.333 0 64.333 -6 93 -18s53.5 -28.5 74.5 -49.5
s37.333 -45.833 49 -74.5s17.5 -60 17.5 -94v-13.5c0 -5.66699 -0.333008 -11.167 -1 -16.5h-384zM424.003 262.001c-1.33301 18 -4.00195 32.833 -8.00195 44.5s-10 23.167 -18 34.5c-14.667 19.334 -33.167 34.667 -55.5 46s-46.166 17 -71.499 17s-49 -5.66699 -71 -17
s-39.667 -27 -53 -47c-7.33398 -11.333 -12.667 -22.5 -16 -33.5s-6.66602 -25.833 -9.99902 -44.5h303z" />
    <glyph glyph-name="f" unicode="f" horiz-adv-x="259" 
d="M160 0h-75.999v394h-63v67h63v62c0 46 11.167 81.667 33.5 107s53.5 38 93.5 38h9c4 0 8 -0.333008 12 -1v-68c-28.667 -4 -47.834 -11 -57.501 -21s-14.5 -28.333 -14.5 -55v-62h72v-67h-72v-394z" />
    <glyph glyph-name="g" unicode="g" horiz-adv-x="570" 
d="M417 461l76 -0.000976562v-464c0 -38.667 -4.83301 -71.5 -14.5 -98.5s-25.167 -50.5 -46.5 -70.5c-42 -40.667 -98.667 -61 -170 -61c-86 0 -154 28 -204 84l52 52c10.667 -11.333 19 -19.666 25 -24.999s12.333 -10.333 19 -15c13.333 -8 29.833 -14.5 49.5 -19.5
s39.167 -7.5 58.5 -7.5c24 0 46.667 4 68 12c21.334 8 38.667 19 52 33c23.333 25.333 35 62 35 110v97c-22.667 -34 -47.667 -59 -75 -75s-59 -24 -95 -24c-30.667 0 -59 6 -85 18s-48.5 28.833 -67.5 50.5s-33.833 47.167 -44.5 76.5s-16 61 -16 95
c0 37.334 6.33301 72.667 19 106s30.667 61 54 83c36.667 36 85.334 54 146.001 54c35.334 0 65.667 -7 91 -21s49.666 -37 72.999 -69v79zM267 401.999c-22.667 0 -43.332 -4.16602 -61.999 -12.499s-34.834 -20 -48.501 -35s-24.167 -33 -31.5 -54s-11 -43.833 -11 -68.5
s3.83301 -47.5 11.5 -68.5s18.167 -39.333 31.5 -55s29.166 -27.834 47.499 -36.501s38.5 -13 60.5 -13s43.167 5 63.5 15c20.334 10 38.167 23.667 53.5 41c10 11.333 18 27.333 24 48s9 42.667 9 66c0 30 -2.66699 54 -8 72s-14.666 34.667 -27.999 50
c-14 15.335 -31 27.668 -51 37c-20 9.33301 -40.333 14 -61 14z" />
    <glyph glyph-name="h" unicode="h" horiz-adv-x="508" 
d="M152 397c21.333 26 42.832 44.998 64.499 56.998s46.5 18 74.5 18c20 0 39.667 -3.66699 59 -11s35.333 -17.666 48 -30.999c12.667 -12.667 21.834 -28.334 27.501 -47c5.66699 -18.667 8.5 -43 8.5 -73v-310h-76v306c0 32 -7.33301 56.333 -22 73s-36 25 -64 25
c-36 0 -66 -13.667 -90 -41c-11.334 -13.333 -19.167 -26.666 -23.5 -39.999s-6.5 -31 -6.5 -53v-270h-76v667h76v-270z" />
    <glyph glyph-name="i" unicode="i" horiz-adv-x="229" 
d="M152 0h-76v461h76v-461zM115 640c14 0 25.667 -4.83301 35 -14.5s14 -21.5 14 -35.5c0 -13.3379 -4.83301 -24.6709 -14.5 -34c-9.66699 -9.33301 -21.167 -14 -34.5 -14c-14 0 -25.667 4.66699 -35 14s-14 21 -14 35s4.66699 25.667 14 35s21 14 35 14z" />
    <glyph glyph-name="j" unicode="j" horiz-adv-x="229" 
d="M152 -48c0 -32 -2.99902 -58 -8.99902 -78s-16 -37.667 -30 -53c-28.667 -32 -67.334 -48 -116.001 -48h-20v72h11c26.667 0.666992 48 10.667 64 30s24 45 24 77v509h76v-509zM115.001 640c14 0 25.667 -4.83301 35 -14.5s14 -21.5 14 -35.5
c0 -13.3379 -4.83301 -24.6709 -14.5 -34c-9.66699 -9.33301 -21.167 -14 -34.5 -14c-14 0 -25.667 4.66699 -35 14s-14 21 -14 35s4.66699 25.667 14 35s21 14 35 14z" />
    <glyph glyph-name="k" unicode="k" horiz-adv-x="444" 
d="M152 0h-76v667h76v-408l184 202h96l-206 -225l205 -236h-95l-184 206v-206z" />
    <glyph glyph-name="l" unicode="l" horiz-adv-x="229" 
d="M76 0v667h76v-667h-76z" />
    <glyph glyph-name="m" unicode="m" horiz-adv-x="772" 
d="M152 461l-0.00195312 -64.0029c17.333 26.667 36.333 45.834 57 57.501s45.334 17.5 74.001 17.5c62 0 103.333 -28 124 -84c17.333 30 37.333 51.5 60 64.5s51.334 19.5 86.001 19.5c53.333 0 92.333 -16.333 117 -49c5.33301 -7.33301 9.83301 -14.666 13.5 -21.999
s6.5 -15.833 8.5 -25.5s3.5 -21 4.5 -34s1.5 -28.5 1.5 -46.5v-295h-76v277c0 14 -0.166992 25.5 -0.5 34.5s-1 16.667 -2 23s-2.33301 11.833 -4 16.5s-3.83398 9.33398 -6.50098 14.001c-7.33301 12 -18 21.5 -32 28.5s-30 10.5 -48 10.5
c-34 0 -59.833 -10.833 -77.5 -32.5s-26.5 -53.167 -26.5 -94.5v-277h-76v276c0 22.667 -1.16699 40.5 -3.5 53.5s-6.16602 24.5 -11.499 34.5c-6.66699 13.333 -16.5 23.333 -29.5 30s-28.167 10 -45.5 10c-34 0 -60.333 -11.333 -79 -34s-28 -54 -28 -94v-276h-76v461h76z
" />
    <glyph glyph-name="n" unicode="n" horiz-adv-x="509" 
d="M152 461v-65.0029c20 27.333 40.667 46.833 62 58.5s46.333 17.5 75 17.5c21.333 0 41.166 -3.33301 59.499 -10c18.334 -6.66699 34.167 -16 47.5 -28c14.667 -14 24.834 -30.167 30.501 -48.5s8.5 -43.166 8.5 -74.499v-311h-76v294c0 20.667 -1.33301 37 -4 49
s-7 22 -13 30c-6.66699 9.33301 -16.5 16.833 -29.5 22.5s-27.167 8.5 -42.5 8.5c-17.333 0 -33.5 -3.16699 -48.5 -9.5s-28.167 -16.166 -39.5 -29.499c-11.334 -12 -19.167 -24.167 -23.5 -36.5s-6.5 -28.166 -6.5 -47.499v-281h-76v461h76z" />
    <glyph glyph-name="o" unicode="o" horiz-adv-x="548" 
d="M275 472c34 0 65.334 -6 94.001 -18s53.167 -28.833 73.5 -50.5s36.333 -47.334 48 -77c11.667 -29.667 17.5 -62.167 17.5 -97.5c0 -34 -6.16699 -65.5 -18.5 -94.5s-29 -54.333 -50 -76s-46 -38.667 -75 -51s-59.833 -18.5 -92.5 -18.5c-34 0 -65.333 6 -94 18
s-53.334 28.667 -74.001 50s-36.667 46.833 -48 76.5s-17 62.167 -17 97.5c0 36 5.66699 68.667 17 98c11.333 29.334 27.5 54.667 48.5 76s45.833 37.833 74.5 49.5s60.667 17.5 96 17.5zM275.001 402c-48 0 -86.333 -15.667 -115 -47s-43 -73 -43 -125
c0 -51.333 14.333 -92.666 43 -123.999s66.667 -47 114 -47c22.667 0 43.5 4.16699 62.5 12.5s35.5 20.166 49.5 35.499s24.833 33.333 32.5 54s11.5 43.667 11.5 69c0 26 -3.66699 49.5 -11 70.5s-17.833 39 -31.5 54s-30 26.667 -49 35s-40.167 12.5 -63.5 12.5z" />
    <glyph glyph-name="p" unicode="p" horiz-adv-x="576" 
d="M152 461l-0.000976562 -84.002c22 34 45.833 58.333 71.5 73s57.834 22 96.501 22c32 0 61.333 -5.83301 88 -17.5s49.5 -28 68.5 -49s33.833 -46.167 44.5 -75.5s16 -61.333 16 -96c0 -36 -5.33301 -69.167 -16 -99.5s-25.5 -56.166 -44.5 -77.499
s-41.833 -38 -68.5 -50s-56 -18 -88 -18c-35.333 0 -69 8 -101 24c-14 7.33301 -25.5 14.833 -34.5 22.5s-19.833 19.834 -32.5 36.501v-288h-76v677h76zM306.999 403.998c-23.333 0 -44.502 -4.33301 -63.502 -13s-35.167 -21 -48.5 -37s-23.833 -35.167 -31.5 -57.5
s-11.5 -46.833 -11.5 -73.5c0 -25.333 3.66699 -48.333 11 -69s17.666 -38.334 30.999 -53.001s29.333 -26 48 -34s39.334 -12 62.001 -12s43.334 4.16699 62.001 12.5s34.667 20.333 48 36c13.334 15.667 23.667 34.334 31 56.001s11 45.5 11 71.5
c0 54 -13.333 95.667 -40 125c-13.333 15.334 -29.666 27.167 -48.999 35.5s-39.333 12.5 -60 12.5z" />
    <glyph glyph-name="q" unicode="q" horiz-adv-x="573" 
d="M497 461l0.000976562 -677h-76v293c-22 -30.667 -46.333 -53 -73 -67s-58 -21 -94 -21c-32.667 0 -63.667 6.83301 -93 20.5s-54 32.834 -74 57.501c-15.333 19.333 -27.166 43.166 -35.499 71.499s-12.5 59.5 -12.5 93.5c0 36 5.33301 68.667 16 98s25.667 54.5 45 75.5
s42.666 37.333 69.999 49s57.666 17.5 90.999 17.5c35.333 0 65.5 -7 90.5 -21s48.167 -37 69.5 -69v79h76zM270.001 404c-22 0 -42.333 -4.33594 -61 -13.0029s-34.667 -20.667 -48 -36c-13.334 -15.333 -23.667 -33.666 -31 -54.999s-11 -45 -11 -71
c0 -25.333 3.66699 -48.666 11 -69.999s17.5 -39.666 30.5 -54.999s28.667 -27.333 47 -36s38.5 -13 60.5 -13s42.333 4.16699 61 12.5s34.667 20 48 35c13.335 15 23.668 33.167 31 54.5c7.33301 21.333 11 44.666 11 69.999c0 56.667 -14.333 100.334 -43 131.001
c-13.333 14 -29.5 25.167 -48.5 33.5s-38.167 12.5 -57.5 12.5z" />
    <glyph glyph-name="r" unicode="r" horiz-adv-x="318" 
d="M152 461v-78c7.33301 16.667 13.833 29.167 19.5 37.5c5.66699 8.33496 13.167 16.168 22.5 23.5c24 18.667 53.333 28 88 28h18v-77c-4 0.666992 -7.83301 1 -11.5 1h-9.5c-42.667 0 -76 -17.667 -100 -53c-10 -14.667 -17 -29.834 -21 -45.5
c-4 -15.667 -6 -36.834 -6 -63.5v-234h-76v461h76z" />
    <glyph glyph-name="s" unicode="s" horiz-adv-x="411" 
d="M289 335v5c0 21.333 -8 38.333 -24 51s-37.333 19 -64 19c-25.333 0 -45.5 -6 -60.5 -18s-22.5 -28 -22.5 -48c0 -10 1.5 -18.667 4.5 -26s8.33301 -13.833 15.999 -19.5c7.66699 -5.66699 18.167 -11 31.5 -16s30.333 -10.5 51 -16.5c30 -8 53.333 -16 70 -24
s30.667 -17.667 42 -29s20.333 -24.833 27 -40.5s10 -32.167 10 -49.5c0 -20 -4 -38.167 -12 -54.5s-19.167 -30.5 -33.5 -42.5s-31.5 -21.167 -51.5 -27.5s-42.333 -9.5 -67 -9.5c-106.667 0 -164 47.333 -172 142h75c5.33301 -53.333 37.666 -80 96.999 -80
c26 0 46.833 6.16699 62.5 18.5s23.5 28.833 23.5 49.5c0 20 -7.66699 35.833 -23 47.5s-42.666 22.5 -81.999 32.5c-50 13.333 -86.667 31 -110 53s-35 50.667 -35 86c0 40 14.833 72.333 44.5 97s68.834 37 117.501 37c49.333 0 88 -11.833 116 -35.5s43 -57.5 45 -101.5
h-76z" />
    <glyph glyph-name="t" unicode="t" horiz-adv-x="259" 
d="M157 94c0 -11.333 2.50098 -18.832 7.50098 -22.499s14.167 -5.5 27.5 -5.5h35v-66h-71c-26.667 0 -45.834 5.66699 -57.501 17s-17.5 29.666 -17.5 54.999v322h-64v67h64v145h76v-145h70v-67h-70v-300z" />
    <glyph glyph-name="u" unicode="u" horiz-adv-x="485" 
d="M421 461v-295.001c0 -32 -3.33301 -57.667 -10 -77s-18.667 -36.666 -36 -51.999s-37.5 -27.166 -60.5 -35.499s-47.167 -12.5 -72.5 -12.5c-26 0 -50.5 4.33301 -73.5 13s-42.833 20.667 -59.5 36c-30.667 30 -46 72.667 -46 128v295h76v-293
c0 -32.667 9.5 -59.334 28.5 -80.001s43.833 -31 74.5 -31c16 0 31.167 3 45.5 9c14.335 6 26.168 14.667 35.5 26c7.33594 9.33301 12.6689 19.5 16 30.5c3.33301 11 5 25.5 5 43.5v295h77z" />
    <glyph glyph-name="v" unicode="v" horiz-adv-x="435" 
d="M429 461l-174 -461h-80l-169 461h80l130 -352l134 352h79z" />
    <glyph glyph-name="w" unicode="w" horiz-adv-x="692" 
d="M686 461l-164 -461h-69l-106 350l-111 -350h-72l-158 461h78l118 -339l106 339h75l104 -339l121 339h78z" />
    <glyph glyph-name="x" unicode="x" horiz-adv-x="446" 
d="M100 0h-93l170 229l-173 232h96l123 -169l126 169h93l-174 -232l166 -229h-93l-118 167z" />
    <glyph glyph-name="y" unicode="y" horiz-adv-x="438" 
d="M349 461h83l-275 -683h-83l96 236l-164 447h81l124 -342z" />
    <glyph glyph-name="z" unicode="z" horiz-adv-x="401" 
d="M362 67v-67h-340l240 394h-214v67h339l-237 -394h212z" />
    <glyph glyph-name="braceleft" unicode="{" 
d="M273 359c0 -31.333 -4 -55.1689 -12 -71.502s-22.333 -30.166 -43 -41.499c20.667 -11.333 35 -25.5 43 -42.5s12 -41.5 12 -73.5v-150c0 -18.667 1.5 -34.167 4.5 -46.5s8 -22.166 15 -29.499s16.667 -12.5 29 -15.5s27.833 -4.5 46.5 -4.5v-70
c-23.333 0 -42.5 0.5 -57.5 1.5s-27.333 2.33301 -37 4s-17.667 4 -24 7s-12.5 7.16699 -18.5 12.5c-14 12 -24.167 27.5 -30.5 46.5s-9.5 44.5 -9.5 76.5v159c0 29.333 -4.16699 51 -12.5 65c-8.33398 14 -23.167 24 -44.5 30v64c20.667 5.33301 35.334 15 44 29
c8.66699 14 13 34.667 13 62v174c0 24.667 2.5 45 7.5 61s13.167 29.667 24.5 41c11.333 12 26.833 20.5 46.5 25.5s47.5 7.5 83.5 7.5h15v-74c-18.667 -0.666992 -34.167 -2.5 -46.5 -5.5s-22 -8 -29 -15s-12 -16.333 -15 -28s-4.5 -26.167 -4.5 -43.5v-155z" />
    <glyph glyph-name="bar" unicode="|" 
d="M291 667v-834h-83v834h83z" />
    <glyph glyph-name="braceright" unicode="}" 
d="M227 134c0 31.333 3.99902 55.335 11.999 72.002s22.333 30.667 43 42c-20.667 11.333 -35 25.333 -43 42s-12 41 -12 73v151c0 18.667 -1.5 34 -4.5 46s-8 21.667 -15 29s-16.667 12.666 -29 15.999s-27.833 5 -46.5 5v70h14c38.667 0 67.5 -2.5 86.5 -7.5
s34.5 -14.167 46.5 -27.5c10.667 -12 18.334 -26.833 23.001 -44.5s7 -40.834 7 -69.501v-158c0 -29.333 4.16699 -51 12.5 -65c8.33398 -14 23.167 -24 44.5 -30v-64c-20.667 -6 -35.334 -16 -44 -30c-8.66699 -14 -13 -34.667 -13 -62v-173
c0 -47.333 -10.667 -81.666 -32 -102.999c-12 -12.667 -27.5 -21.334 -46.5 -26.001s-46.833 -7 -83.5 -7h-6c-2.66699 0 -5.66699 0.333008 -9 1v73c18.667 0.666992 34 2.5 46 5.5s21.667 8 29 15s12.5 16.333 15.5 28s4.5 26.167 4.5 43.5v155z" />
    <glyph glyph-name="asciitilde" unicode="~" horiz-adv-x="667" 
d="M94 614c35.333 75.333 81.001 113.001 137.001 113.001c13.333 0 28.666 -2.83301 45.999 -8.5s40.333 -15.834 69 -30.501c14 -6.66699 25.5 -12.167 34.5 -16.5c9 -4.34375 16.833 -7.67676 23.5 -10c6.66699 -2.33301 12.667 -3.83301 18 -4.5
c5.33691 -0.666992 10.6699 -1 16 -1c18 0 34 5.66699 48 17c14.001 11.333 28.334 30.333 43 57l44 -35c-34 -75.333 -82 -113 -144 -113c-6.66699 0 -13 0.5 -19 1.5s-13.333 3 -22 6c-8.66797 3 -19.335 7.5 -32 13.5c-12.667 6 -28.334 13.667 -47 23
c-35.333 17.333 -62.666 26 -81.999 26c-17.333 0 -32.833 -5.66699 -46.5 -17s-27.834 -30 -42.501 -56z" />
    <glyph glyph-name="uni00A0" unicode="&#xa0;" horiz-adv-x="300" 
 />
    <glyph glyph-name="exclamdown" unicode="&#xa1;" horiz-adv-x="257" 
d="M91 302h77v-505h-77v505zM129 471c15.333 0 27.833 -4.83398 37.5 -14.501s14.5 -22.167 14.5 -37.5s-4.83301 -27.833 -14.5 -37.5s-22.167 -14.5 -37.5 -14.5s-27.833 5 -37.5 15s-14.5 22.667 -14.5 38c0 14.667 5 26.834 15 36.501s22.333 14.5 37 14.5z" />
    <glyph glyph-name="cent" unicode="&#xa2;" 
d="M297 156c36.667 1.33301 70.001 17.3311 100.001 47.998l46 -50c-21.333 -21.333 -42.833 -36.833 -64.5 -46.5s-48.834 -16.167 -81.5 -19.5v-84h-41v84c-66.667 11.333 -117.334 36.833 -152.001 76.5s-52 92.834 -52 159.501c0 44 8.16699 84 24.5 120
s39.5 64.667 69.5 86c15.333 11.333 31 19.833 47 25.5s37 10.167 63 13.5v79h41v-79c28.667 -1.33789 56 -8.1709 82 -20.5c26 -12.334 48 -29.167 66 -50.499l-48 -47c-30 30 -63.333 46.667 -100 50v-345zM256.001 500.998c-42.667 -8.66699 -75 -27.499 -97 -56.499
s-33 -67.5 -33 -115.5c0 -47.333 11.167 -85.833 33.5 -115.5s54.5 -48.834 96.5 -57.501v345z" />
    <glyph glyph-name="sterling" unicode="&#xa3;" 
d="M369 362l-0.00390625 -49h-114c14.667 -17.333 25 -33 31 -47s9 -29 9 -45c0 -18 -4.33301 -35.5 -13 -52.5s-22.667 -36.167 -42 -57.5c4.66699 -1.33301 8.5 -2.5 11.5 -3.5s6.66699 -2.5 11 -4.5c4.33496 -2 10.168 -4.66699 17.499 -8
c7.33398 -3.33301 17.667 -8 30.999 -14c14.667 -6.66699 25.834 -11.167 33.501 -13.5s15.5 -3.5 23.5 -3.5c14.667 0 26.334 3.66699 35.001 11s16.334 19.666 23.001 36.999l39 -29c-3.33301 -12 -6.66602 -21.667 -9.99902 -29s-7.66602 -14.666 -12.999 -21.999
c-10 -12 -22.833 -21.833 -38.5 -29.5s-31.167 -11.5 -46.5 -11.5c-12 0 -25.333 2.33301 -40 7s-34.667 13.667 -60 27c-14 6.66699 -25.5 12.167 -34.5 16.5s-16.5 7.66602 -22.5 9.99902s-11.167 3.83301 -15.5 4.5s-8.83301 1 -13.5 1c-15.333 0 -27.5 -5 -36.5 -15
s-13.5 -24 -13.5 -42h-70c1.33301 36.667 12.333 66.5 33 89.5s47 34.5 79 34.5h6c10 10 18.333 19 25 27s12 15.333 16 22s6.66699 13.167 8 19.5s2 13.166 2 20.499c0 18 -4 34.333 -12 49s-22 31.667 -42 51h-112v49h70c-10 12 -18.167 23.167 -24.5 33.5
c-6.33301 10.335 -11.5 20.168 -15.5 29.5c-4 9.33301 -6.83301 19 -8.5 29s-2.5 21 -2.5 33c0 26 4.83301 50 14.5 72s23.167 41 40.5 57s37.833 28.667 61.5 38s49.167 14 76.5 14c30.667 0 59.334 -6.16699 86.001 -18.5s48.667 -29.5 66 -51.5
c10 -13.3359 17 -27.1689 21 -41.5c4 -14.335 6.66699 -33.168 8 -56.499h-74c0.666992 2.66699 1 4.83398 1 6.50098v4.5c0 12 -3 23.5 -9 34.5s-14 20.667 -24 29s-21.667 15 -35 20s-27.333 7.5 -42 7.5c-15.334 0 -29.667 -2.83301 -43 -8.5s-25 -13.5 -35 -23.5
s-18 -21.667 -24 -35s-9 -27.333 -9 -42c0 -20 5 -39.667 15 -59s27.667 -43.333 53 -72h148z" />
    <glyph glyph-name="currency" unicode="&#xa4;" horiz-adv-x="689" 
d="M158 202c-31.333 43.333 -47.0039 90.0039 -47.0039 140.004c0 24.667 3.5 47.167 10.5 67.5c7 20.334 19.5 44.167 37.5 71.499l-95 94l45 45l95 -95c14.667 9.33301 27.834 17.166 39.501 23.499s22.834 11.333 33.501 15c10.667 3.68359 21.5 6.35059 32.5 8
c11 1.66699 22.833 2.5 35.5 2.5s24.334 -0.833008 35.001 -2.5s21.167 -4.33398 31.5 -8.00098s21.333 -8.66699 33 -15c11.667 -6.33789 24.5 -14.1709 38.5 -23.5l96 94l44 -44l-94 -94c17.333 -24.667 29.833 -48 37.5 -70s11.5 -45.667 11.5 -71
c0 -12 -0.833008 -23.333 -2.5 -34c-1.66699 -10.668 -4.16699 -21.335 -7.5 -32.001c-3.3418 -10.667 -8.1748 -21.667 -14.5 -33c-6.33301 -11.333 -13.833 -24 -22.5 -38l94 -94l-45 -45l-93 94c-22.667 -17.333 -45.167 -29.833 -67.5 -37.5
s-46.166 -11.5 -71.499 -11.5c-23.333 0 -46.333 3.83301 -69 11.5s-48 20.167 -76 37.5l-93 -94l-44 45zM346.996 504.004c-22.667 0 -43.833 -4.16797 -63.499 -12.501c-19.667 -8.33301 -36.834 -19.833 -51.501 -34.5c-14.667 -14.668 -26.167 -31.835 -34.5 -51.501
c-8.33301 -19.667 -12.5 -40.834 -12.5 -63.5c0 -22 4.16699 -42.833 12.5 -62.5s19.833 -36.834 34.5 -51.501s31.5 -26.167 50.5 -34.5s39.5 -12.5 61.5 -12.5s42.833 4.16699 62.5 12.5s36.667 19.833 51 34.5c14.335 14.667 25.668 31.834 33.999 51.501
c8.33301 19.667 12.5 40.5 12.5 62.5s-4.16699 42.833 -12.5 62.5s-19.666 36.834 -33.999 51.501s-31 26.334 -50 35.001s-39.167 13 -60.5 13z" />
    <glyph glyph-name="yen" unicode="&#xa5;" 
d="M24 657h88l140 -288l137 288h87l-116 -229h96v-51h-121l-44 -88v-7h145v-51h-145v-231h-79v231h-148v51h148v7l-45 88h-123v51h97z" />
    <glyph glyph-name="brokenbar" unicode="&#xa6;" 
d="M291 667v-336h-83v336h83zM291 153v-320h-83v320h83z" />
    <glyph glyph-name="section" unicode="&#xa7;" 
d="M349 534c-2.66699 25.333 -12.501 45.6631 -29.501 60.9961s-38.167 23 -63.5 23s-46.833 -8.16699 -64.5 -24.5c-17.667 -16.3359 -26.5 -36.1689 -26.5 -59.5c0 -24 9.33301 -44.333 28 -61c4.66699 -5.33301 8.83398 -9.33301 12.5 -12
c3.66699 -2.66699 8.66699 -5.5 15 -8.5s15 -6.5 26 -10.5s26.5 -9.33301 46.5 -16c100.667 -34 151 -95 151 -183c0 -74 -36 -126.667 -108 -158c28.667 -20 48.834 -39.667 60.501 -59s17.5 -42.666 17.5 -69.999c0 -23.333 -4.33301 -44.833 -13 -64.5
s-20.667 -36.667 -36 -51s-33.5 -25.5 -54.5 -33.5s-44.167 -12 -69.5 -12c-27.334 0 -52.167 4.33301 -74.5 13s-41.5 20.834 -57.5 36.501s-28.5 34.334 -37.5 56.001s-13.5 45.834 -13.5 72.501h71c1.33301 -36 12.166 -64.333 32.499 -85s47.5 -31 81.5 -31
c29.333 0 53.333 9 72 27s28 41 28 69c0 26.667 -11 49 -33 67c-6 4.66699 -11.333 8.66699 -16 12s-10.5 6.5 -17.5 9.5s-15.833 6 -26.5 9s-24.334 6.83301 -41.001 11.5c-102.667 28 -154 86.667 -154 176c0 86 39.667 142.667 119 170
c-25.333 13.333 -44.833 31 -58.5 53s-20.5 47 -20.5 75c0 20.6689 4 39.8359 12 57.5c8 17.667 19 33 33 46s30.5 23.167 49.5 30.5s39.5 11 61.5 11c30.667 0 58.834 -6 84.501 -18s45.834 -28.667 60.501 -50c7.33301 -11.333 12.833 -23 16.5 -35
s6.16699 -26.667 7.5 -44h-71zM249.999 362.997c-17.333 0 -33.5 -3.16699 -48.5 -9.5s-28.167 -15 -39.5 -26s-20.333 -23.667 -27 -38s-10 -29.833 -10 -46.5c0 -36 11.5 -65.167 34.5 -87.5s52.833 -33.5 89.5 -33.5s66.5 11.333 89.5 34s34.5 52 34.5 88
c0 16 -3.33301 31.167 -10 45.5s-15.667 27 -27 38s-24.333 19.667 -39 26s-30.334 9.5 -47 9.5z" />
    <glyph glyph-name="dieresis" unicode="&#xa8;" 
d="M150 640c13.333 0 24.5 -4.5 33.5 -13.5s13.5 -20.5 13.5 -34.5c0 -13.333 -4.5 -24.333 -13.5 -33s-20.167 -13 -33.5 -13s-24.5 4.5 -33.5 13.5s-13.5 20.167 -13.5 33.5s4.5 24.5 13.5 33.5s20.167 13.5 33.5 13.5zM350 640c13.333 0 24.5 -4.5 33.5 -13.5
s13.5 -20.5 13.5 -34.5c0 -13.333 -4.5 -24.333 -13.5 -33s-20.167 -13 -33.5 -13s-24.5 4.5 -33.5 13.5s-13.5 20.167 -13.5 33.5s4.5 24.5 13.5 33.5s20.167 13.5 33.5 13.5z" />
    <glyph glyph-name="copyright" unicode="&#xa9;" horiz-adv-x="782" 
d="M575 296c-2 -25.333 -7.83203 -48.167 -17.499 -68.5c-9.66699 -20.334 -22.5 -37.667 -38.5 -52s-34.667 -25.5 -56 -33.5s-44.666 -12 -69.999 -12c-28.667 0 -54.667 4.83301 -78 14.5s-43.333 23.5 -60 41.5s-29.667 39.5 -39 64.5s-14 52.833 -14 83.5
c0 30 4.66699 57.667 14 83s22.5 47 39.5 65s37.5 32 61.5 42s50.333 15 79 15c22.667 0 44.167 -3.5 64.5 -10.5c20.334 -7 38.167 -16.5 53.499 -28.5c15.333 -12 27.666 -26.5 36.999 -43.5s15 -35.5 17 -55.5h-42c-6.66699 28.667 -21.5 51.167 -44.5 67.5
s-51.5 24.5 -85.5 24.5c-42 0 -75.833 -14.5 -101.5 -43.5s-38.5 -67.5 -38.5 -115.5s12.667 -86.333 38 -115s59 -43 101 -43c38 0 69 10.5 93 31.5s38.667 50.5 44 88.5h43zM395.001 678.999c46.667 0 90.5 -9.16699 131.5 -27.5c41 -18.335 77 -43.168 108 -74.5
c31 -31.333 55.5 -68 73.5 -110s27 -86.667 27 -134s-9 -92 -27 -134s-42.5 -78.667 -73.5 -110s-67.5 -56 -109.5 -74s-86.667 -27 -134 -27s-92 9 -134 27s-78.667 42.667 -110 74s-56 68 -74 110s-27 86.667 -27 134c0 48 9 93.167 27 135.5s42.833 79 74.5 110
s68.667 55.5 111 73.5s87.833 27 136.5 27zM395.001 638.999c-42.667 0 -82.498 -8.00098 -119.498 -24.001s-69.333 -37.667 -97 -65s-49.334 -59.666 -65.001 -96.999s-23.5 -77.333 -23.5 -120c0 -42 7.83301 -81.5 23.5 -118.5s37.167 -69.333 64.5 -97
s59.333 -49.5 96 -65.5s75.667 -24 117 -24c41.334 0 80.167 8 116.5 24s68.166 37.833 95.499 65.5s48.833 60 64.5 97s23.5 76.5 23.5 118.5s-7.83301 81.5 -23.5 118.5c-15.667 37.001 -37 69.334 -64 97c-27 27.667 -58.333 49.667 -94 66s-73.834 24.5 -114.5 24.5z
" />
    <glyph glyph-name="ordfeminine" unicode="&#xaa;" horiz-adv-x="375" 
d="M268 545h54.999v-278h-55v44c-25.333 -33.333 -58.666 -50 -99.999 -50c-20 0 -38.5 3.5 -55.5 10.5s-31.5 17 -43.5 30s-21.5 28.167 -28.5 45.5c-7 17.334 -10.5 36.667 -10.5 58s3.5 40.833 10.5 58.5s16.667 33 29 46s27.166 23.167 44.499 30.5s36 11 56 11
c40.667 0 73.334 -14.333 98.001 -43v37zM176.999 504c-26.667 0 -48.166 -9.16699 -64.499 -27.5s-24.5 -42.5 -24.5 -72.5c0 -28 8.33301 -51.167 25 -69.5s37.667 -27.5 63 -27.5c12.667 0 24.667 2.66699 36 8c11.333 5.33496 21.166 12.668 29.499 22
c8.33301 9.33398 15 20.167 20 32.5s7.5 25.5 7.5 39.5c0 28 -8.33301 50.833 -25 68.5s-39 26.5 -67 26.5z" />
    <glyph glyph-name="guillemotleft" unicode="&#xab;" horiz-adv-x="415" 
d="M204 71h-60l-101 164l101 171h60l-101 -171zM365 71h-60l-100 164l100 171h60l-101 -171z" />
    <glyph glyph-name="logicalnot" unicode="&#xac;" 
d="M385 205h-352v73h433v-278h-81v205z" />
    <glyph glyph-name="uni00AD" unicode="&#xad;" horiz-adv-x="207" 
d="M207 208h-207v69h207v-69z" />
    <glyph glyph-name="registered" unicode="&#xae;" horiz-adv-x="782" 
d="M408 527c45.333 0 79.8311 -9.16699 103.498 -27.5s35.5 -45.166 35.5 -80.499c0 -46 -23.667 -77.667 -71 -95c12.667 -4 23.167 -9 31.5 -15s15 -13.667 20 -23s8.5 -21 10.5 -35s3.33301 -31.333 4 -52c1.33301 -20.667 2.5 -35 3.5 -43s3.16699 -15 6.5 -21h-51
c-3.33301 4.66699 -5.66602 11.667 -6.99902 21s-2.66602 26.666 -3.99902 51.999c-1.33301 26 -3.83301 44.667 -7.5 56s-10.167 20 -19.5 26c-15.333 10.667 -40.333 16 -75 16h-92v-171h-53v392h165zM295.998 340h95c68.667 0 103 25.333 103 76c0 50 -31.667 75 -95 75
h-103v-151zM394.998 679c46.667 0 90.5 -9.16699 131.5 -27.5c41 -18.335 77 -43.168 108 -74.5c31 -31.333 55.5 -68 73.5 -110s27 -86.667 27 -134s-9 -92 -27 -134s-42.5 -78.667 -73.5 -110s-67.5 -56 -109.5 -74s-86.667 -27 -134 -27s-92 9 -134 27
s-78.667 42.667 -110 74s-56 68 -74 110s-27 86.667 -27 134c0 48 9 93.167 27 135.5s42.833 79 74.5 110s68.667 55.5 111 73.5s87.833 27 136.5 27zM394.998 639c-42.667 0 -82.498 -8.00098 -119.498 -24.001s-69.333 -37.667 -97 -65s-49.334 -59.666 -65.001 -96.999
s-23.5 -77.333 -23.5 -120c0 -42 7.83301 -81.5 23.5 -118.5s37.167 -69.333 64.5 -97s59.333 -49.5 96 -65.5s75.667 -24 117 -24c41.334 0 80.167 8 116.5 24s68.166 37.833 95.499 65.5s48.833 60 64.5 97s23.5 76.5 23.5 118.5s-7.83301 81.5 -23.5 118.5
c-15.667 37.001 -37 69.334 -64 97c-27 27.667 -58.333 49.667 -94 66s-73.834 24.5 -114.5 24.5z" />
    <glyph glyph-name="macron" unicode="&#xaf;" 
d="M386 562h-272v62h272v-62z" />
    <glyph glyph-name="degree" unicode="&#xb0;" 
d="M252 664c19.334 0 37.666 -3.83301 54.999 -11.5s32.333 -18 45 -31s22.667 -28.167 30 -45.5s11 -36 11 -56c0 -19.333 -3.66699 -37.5 -11 -54.5s-17.5 -32 -30.5 -45s-28.167 -23.167 -45.5 -30.5s-35.666 -11 -54.999 -11c-20 0 -38.667 3.66699 -56 11
s-32.5 17.5 -45.5 30.5s-23.167 28.167 -30.5 45.5s-11 36 -11 56s3.66699 38.5 11 55.5s17.5 32 30.5 45s28.333 23.167 46 30.5s36.5 11 56.5 11zM248.999 626c-14 0 -27.1689 -2.66406 -39.502 -7.99707s-23.166 -12.833 -32.499 -22.5
c-9.33398 -9.66699 -16.667 -20.834 -22 -33.501s-8 -26 -8 -40c0 -14.6689 2.66699 -28.3359 8 -41.001c5.33301 -12.667 12.833 -23.834 22.5 -33.5c9.66699 -9.66699 20.834 -17.167 33.501 -22.5s26 -8 40 -8s27.167 2.66699 39.5 8
c12.333 5.33691 23.333 12.6699 33 22c9.66699 9.33496 17.167 20.168 22.5 32.5c5.33301 12.333 8 25.5 8 39.5c0 14.667 -2.66699 28.667 -8 42s-12.833 24.666 -22.5 33.999c-9.66797 9.33301 -20.835 16.833 -33.5 22.5c-12.667 5.66699 -26.334 8.5 -41 8.5z" />
    <glyph glyph-name="plusminus" unicode="&#xb1;" 
d="M227 375v193h46v-193h205v-44h-205v-189h-46v189h-205v44h205zM478 97v-44h-456v44h456z" />
    <glyph glyph-name="uni00B2" unicode="&#xb2;" horiz-adv-x="328" 
d="M271 313v-50.998h-244l148 202c10.667 14 19.334 26 26 36c6.66699 10 11.834 18.5 15.5 25.5c3.66699 7 6.16699 13.167 7.5 18.5s2 10.666 2 15.999c0 16 -6.16699 29.167 -18.5 39.5c-12.334 10.333 -28.167 15.5 -47.5 15.5c-22 0 -37.833 -5.83301 -47.5 -17.5
s-14.834 -30.5 -15.501 -56.5h-55c3.33301 82.667 44 124 122 124c35.333 0 64 -9.33301 86 -28s33 -43 33 -73c0 -17.333 -3.66699 -34.333 -11 -51c-7.33301 -16.668 -19.666 -36.335 -36.999 -59.001l-106 -141h142z" />
    <glyph glyph-name="uni00B3" unicode="&#xb3;" horiz-adv-x="328" 
d="M49 607l-0.000976562 50.001h248l-123 -147c17.333 -0.666992 33.333 -4.16699 48 -10.5s27.334 -15 38 -26c10.667 -11 19 -23.833 25 -38.5s9 -30.334 9 -47c0 -19.333 -3.5 -37 -10.5 -53s-16.833 -29.833 -29.5 -41.5c-12.667 -11.668 -27.667 -20.835 -45 -27.501
c-17.333 -6.66699 -36 -10 -56 -10c-35.333 0 -64.333 8.66699 -87 26s-37.667 42.333 -45 75l52 9c11.333 -39.333 37 -59 77 -59c24.667 0 45.334 7.5 62 22.5c16.667 15 25 33.5 25 55.5c0 22.667 -8.16699 41 -24.5 55s-37.5 21 -63.5 21c-10 0 -18.667 -1 -26 -3
s-15.666 -5.66699 -24.999 -11l-25 21l116 139h-140z" />
    <glyph glyph-name="acute" unicode="&#xb4;" 
d="M383 660l-117 -132h-55l83 132h89z" />
    <glyph glyph-name="mu" unicode="&#xb5;" 
d="M50 480h72.001v-271c0 -16.667 0.5 -30.834 1.5 -42.501s2.66699 -22 5 -31s5.66602 -17.167 9.99902 -24.5s9.5 -14.333 15.5 -21c12 -13.333 25.833 -23.666 41.5 -30.999s32.167 -11 49.5 -11c20 0 38.167 4.16699 54.5 12.5s30.5 20 42.5 35s21.167 33 27.5 54
s9.5 44.167 9.5 69.5v261h71v-480h-71v91c-27.333 -69.333 -72.333 -104 -135 -104c-27.333 0 -50.5 5.83301 -69.5 17.5s-36.5 30.5 -52.5 56.5v-227h-72v646z" />
    <glyph glyph-name="paragraph" unicode="&#xb6;" 
d="M233 308l-16.001 -0.000976562c-26.667 0 -51 4.33301 -73 13s-41 20.834 -57 36.501s-28.333 34.5 -37 56.5s-13 46 -13 72c0 32.667 7.33301 62.667 22 90s34.667 48.666 60 63.999c15.333 8.67188 33.333 15.3389 54 20.001c20.667 4.66699 43.334 7 68.001 7h180
v-772h-53v735h-81v-735h-54v413z" />
    <glyph glyph-name="periodcentered" unicode="&#xb7;" horiz-adv-x="231" 
d="M115 295c15.333 0 27.833 -4.99902 37.5 -14.999s14.5 -22.667 14.5 -38c0 -14.667 -5 -26.834 -15 -36.501s-22.333 -14.5 -37 -14.5c-15.333 0 -27.833 4.83301 -37.5 14.5s-14.5 22.167 -14.5 37.5s4.83301 27.833 14.5 37.5s22.167 14.5 37.5 14.5z" />
    <glyph glyph-name="cedilla" unicode="&#xb8;" 
d="M169 -179c25.333 15.333 45.833 32.667 61.5 52s28.167 44 37.5 74l63 -24c-15.333 -32 -33 -58.5 -53 -79.5s-45.667 -39.833 -77 -56.5z" />
    <glyph glyph-name="uni00B9" unicode="&#xb9;" horiz-adv-x="328" 
d="M74 524v53l149 92v-406h-57v318z" />
    <glyph glyph-name="ordmasculine" unicode="&#xba;" horiz-adv-x="357" 
d="M179 552c22 0 42 -3.66699 60 -11s33.667 -17.5 47 -30.5c13.334 -13 23.667 -28.5 31 -46.5s11 -37.667 11 -59c0 -20 -3.83301 -38.833 -11.5 -56.5s-18.334 -33 -32 -46c-13.667 -13 -29.667 -23.333 -48 -31s-37.833 -11.5 -58.5 -11.5
c-22 0 -42.167 3.66699 -60.5 11s-34 17.5 -47 30.5s-23.167 28.333 -30.5 46s-11 37.167 -11 58.5c0 22 3.66699 41.833 11 59.5s17.5 33 30.5 46s28.833 23 47.5 30s39 10.5 61 10.5zM179 504c-28 0 -50.666 -8.83301 -67.999 -26.5s-26 -41.5 -26 -71.5
s8.5 -53.833 25.5 -71.5s39.833 -26.5 68.5 -26.5c27.333 0 49.666 9.16699 66.999 27.5s26 41.833 26 70.5c0 30 -8.5 53.833 -25.5 71.5s-39.5 26.5 -67.5 26.5z" />
    <glyph glyph-name="guillemotright" unicode="&#xbb;" horiz-adv-x="415" 
d="M212 411h60l100 -164l-100 -171h-60l101 171zM50 411h60l101 -164l-101 -171h-60l101 171z" />
    <glyph glyph-name="onequarter" unicode="&#xbc;" horiz-adv-x="780" 
d="M74 524v53l148 92v-406h-57v318zM178 -13l-33 23l457 660l33 -22zM481 88v41l221 282v-273h49v-50h-49v-88h-56v88h-165zM647 275l-106 -138h106v138z" />
    <glyph glyph-name="onehalf" unicode="&#xbd;" horiz-adv-x="780" 
d="M74 524v53l148 92v-406h-57v318zM178 -13l-33 23l457 660l33 -22zM724 51v-50.999h-244l148 201c10.6719 14 19.3389 25.833 26.001 35.5c6.67676 9.66699 11.8438 18 15.5 25c3.66699 7 6.16699 13.167 7.5 18.5s2 11 2 17c0 16 -6 29 -18 39s-27.667 15 -47 15
c-22.667 0 -38.834 -5.66699 -48.501 -17s-14.834 -30 -15.501 -56h-55c1.33301 40 12.333 70.5 33 91.5c20.668 21 50.335 31.5 89.001 31.5c35.333 0 64 -9.33301 86 -28s33 -43 33 -73c0 -16.667 -3.66699 -33.334 -11 -50
c-7.33594 -16.667 -19.6689 -36.334 -37 -59.001l-106 -140h142z" />
    <glyph glyph-name="threequarters" unicode="&#xbe;" horiz-adv-x="780" 
d="M49 607l-0.000976562 50.001h248l-123 -147c17.333 -0.666992 33.333 -4.16699 48 -10.5s27.334 -15 38 -26c10.667 -11 19 -23.833 25 -38.5s9 -30.334 9 -47c0 -19.333 -3.5 -37 -10.5 -53s-16.833 -29.833 -29.5 -41.5c-12.667 -11.668 -27.667 -20.835 -45 -27.501
c-17.333 -6.66699 -36 -10 -56 -10c-35.333 0 -64.333 8.66699 -87 26s-37.667 42.333 -45 75l52 9c11.333 -39.333 37 -59 77 -59c24.667 0 45.334 7.5 62 22.5c16.667 15 25 33.5 25 55.5c0 22.667 -8.16699 41 -24.5 55s-37.5 21 -63.5 21c-10 0 -18.667 -1 -26 -3
s-15.666 -5.66699 -24.999 -11l-25 21l116 139h-140zM176.999 -12.999l-33 23l458 660l33 -22zM479.999 88.001v41l222 282v-273h48v-50h-48v-88h-56v88h-166zM646.999 275.001l-106 -138h106v138z" />
    <glyph glyph-name="questiondown" unicode="&#xbf;" horiz-adv-x="426" 
d="M281 298c0 -35.333 -0.664062 -63.4941 -1.99707 -84.4941s-4.83301 -38.833 -10.5 -53.5s-14.167 -27.834 -25.5 -39.501s-27 -25.5 -47 -41.5c-14 -10.667 -25.5 -20.5 -34.5 -29.5s-16.333 -17.833 -22 -26.5s-9.66699 -17.834 -12 -27.501s-3.5 -20.167 -3.5 -31.5
c0 -30 9.33301 -55 28 -75s42.334 -30 71 -30c28 0 51 8.66699 69 26s27 39.333 27 66v13h73c-0.666992 -54.667 -15.834 -97.5 -45.501 -128.5s-70.5 -46.5 -122.5 -46.5c-26 0 -49.833 4.33301 -71.5 13s-40.334 20.667 -56.001 36s-28 33.666 -37 54.999
s-13.5 44.666 -13.5 69.999c0 33.333 7.66699 62.666 23 87.999s41 51.666 77 78.999c13.333 10 24 18.833 32 26.5s14.167 15.834 18.5 24.5c4.33301 8.66699 7.16602 18.334 8.49902 29c1.33301 10.667 2 24.667 2 42v46h74zM242.003 471.006
c15.333 0 27.833 -4.83398 37.5 -14.501s14.5 -22.167 14.5 -37.5s-4.83301 -27.833 -14.5 -37.5s-22.167 -14.5 -37.5 -14.5s-27.833 5 -37.5 15s-14.5 22.667 -14.5 38c0 14.667 5 26.834 15 36.501s22.333 14.5 37 14.5z" />
    <glyph glyph-name="Agrave" unicode="&#xc0;" horiz-adv-x="606" 
d="M153 154l-61 -154h-87l251 667h100l245 -667h-94l-55 154h-299zM304 561l-126 -335h248zM346 719h-59l-121 131h92z" />
    <glyph glyph-name="Aacute" unicode="&#xc1;" horiz-adv-x="606" 
d="M153 154l-61 -154h-87l251 667h100l245 -667h-94l-55 154h-299zM304 561l-126 -335h248zM440 850l-121 -131h-60l89 131h92z" />
    <glyph glyph-name="Acircumflex" unicode="&#xc2;" horiz-adv-x="606" 
d="M153 154l-61 -154h-87l251 667h100l245 -667h-94l-55 154h-299zM304 561l-126 -335h248zM228 719h-66l108 133h70l104 -133h-65l-76 83z" />
    <glyph glyph-name="Atilde" unicode="&#xc3;" horiz-adv-x="606" 
d="M153 154l-61 -154h-87l251 667h100l245 -667h-94l-55 154h-299zM304 561l-126 -335h248zM469 813c-16 -30 -31.498 -51.334 -46.498 -64.001s-32.167 -19 -51.5 -19c-5.33301 0 -10 0.333008 -14 1c-4 0.671875 -8.5 1.83887 -13.5 3.5c-5 1.66699 -11 4 -18 7
s-15.5 7.16699 -25.5 12.5c-22.667 11.333 -39 17 -49 17c-20 0 -35.667 -14 -47 -42l-54 16c15.333 32.667 30.166 55.667 44.499 69s31.166 20 50.499 20c9.33301 0 19 -1.66699 29 -5c10 -3.3457 25.667 -10.6787 47 -21.999c14 -6.66699 24 -11.167 30 -13.5
s11.333 -3.5 16 -3.5c18.667 0 34.667 14.667 48 44z" />
    <glyph glyph-name="Adieresis" unicode="&#xc4;" horiz-adv-x="606" 
d="M153 154l-61 -154h-87l251 667h100l245 -667h-94l-55 154h-299zM304 561l-126 -335h248zM201 838c14.667 0 26.835 -5.00195 36.501 -15.002c9.66699 -10 14.5 -22.333 14.5 -37c0 -14 -5 -25.833 -15 -35.5s-22 -14.5 -36 -14.5c-14.667 0 -26.834 4.83301 -36.501 14.5
s-14.5 21.834 -14.5 36.501c0 14.6699 4.83301 26.8369 14.5 36.501c9.66699 9.66699 21.834 14.5 36.5 14.5zM405.001 837.998c14.667 0 26.833 -4.83496 36.5 -14.502s14.5 -22.167 14.5 -37.5c0 -14 -5 -25.833 -15 -35.5s-22 -14.5 -36 -14.5
c-14.667 0 -26.834 4.83301 -36.501 14.5s-14.5 21.834 -14.5 36.501c0 14.6699 4.83301 26.8369 14.5 36.501c9.66699 9.66699 21.834 14.5 36.501 14.5z" />
    <glyph glyph-name="Aring" unicode="&#xc5;" horiz-adv-x="606" 
d="M153 154l-61 -154h-87l251 667h100l245 -667h-94l-55 154h-299zM304 561l-126 -335h248zM304 868c22.667 0 41.5 -7.66797 56.5 -23.001c15 -15.3369 22.5 -34.6699 22.5 -58c0 -21.3359 -7.83301 -39.6689 -23.5 -54.999c-15.667 -15.333 -34.5 -23 -56.5 -23
c-22.667 0 -41.667 7.66699 -57 23s-23 34.333 -23 57c0 22 7.66699 40.667 23 56c15.334 15.333 34.667 23 58 23zM304 835.999c-14 0 -25.666 -4.49902 -34.999 -13.499s-14 -20.5 -14 -34.5c0 -13.333 4.66699 -24.5 14 -33.5c9.33398 -9 20.667 -13.5 33.999 -13.5
c13.335 0 24.668 4.5 34 13.5c9.33301 9 14 20.167 14 33.5s-4.5 24.666 -13.5 33.999s-20.167 14 -33.5 14z" />
    <glyph glyph-name="AE" unicode="&#xc6;" horiz-adv-x="813" 
d="M504 72h260v-72h-344v167h-242l-93 -167h-89l373 667h395v-72h-260v-223h260v-72h-260v-228zM420 606l-204 -369h204v369z" />
    <glyph glyph-name="Ccedilla" unicode="&#xc7;" horiz-adv-x="630" 
d="M606 101c-34 -40 -70.167 -68.833 -108.5 -86.5s-83.5 -26.5 -135.5 -26.5c-94.667 0 -171 32.667 -229 98c-28 32 -49.833 69.5 -65.5 112.5s-23.5 87.833 -23.5 134.5c0 50 8 96.167 24 138.5s38.167 78.833 66.5 109.5s62 54.667 101 72s81.5 26 127.5 26
c50 0 94.167 -9 132.5 -27s75.833 -47 112.5 -87l-58 -54c-32 33.333 -62 56.833 -90 70.5s-59.667 20.5 -95 20.5c-34 0 -65.333 -6.66699 -94 -20s-53.5 -32 -74.5 -56s-37.333 -52.5 -49 -85.5s-17.5 -68.833 -17.5 -107.5s6 -74.334 18 -107
c12 -32.667 28.667 -61 50 -85s46.5 -42.667 75.5 -56s60.833 -20 95.5 -20c36.667 0 69.5 7.33301 98.5 22s56.5 38 82.5 70zM242 -175c25.333 16 45 33.167 59 51.5s24.333 40.5 31 66.5l78 -27c-10.667 -25.333 -26 -48 -46 -68s-46.333 -39 -79 -57z" />
    <glyph glyph-name="Egrave" unicode="&#xc8;" horiz-adv-x="473" 
d="M159 372h263v-72h-263v-228h263v-72h-347v667h347v-72h-263v-223zM280 719h-60l-120 131h91z" />
    <glyph glyph-name="Eacute" unicode="&#xc9;" horiz-adv-x="473" 
d="M159 372h263v-72h-263v-228h263v-72h-347v667h347v-72h-263v-223zM373 850l-120 -131h-60l89 131h91z" />
    <glyph glyph-name="Ecircumflex" unicode="&#xca;" horiz-adv-x="473" 
d="M159 372h263v-72h-263v-228h263v-72h-347v667h347v-72h-263v-223zM162 719h-67l109 133h70l104 -133h-66l-75 83z" />
    <glyph glyph-name="Edieresis" unicode="&#xcb;" horiz-adv-x="473" 
d="M159 372h263v-72h-263v-228h263v-72h-347v667h347v-72h-263v-223zM134 838c14.667 0 26.834 -5.00195 36.5 -15.002c9.66699 -10 14.5 -22.333 14.5 -37c0 -14 -5 -25.833 -15 -35.5s-22 -14.5 -36 -14.5c-14.667 0 -26.834 4.83301 -36.501 14.5
s-14.5 21.834 -14.5 36.501c0 14.6699 4.83301 26.8369 14.5 36.501c9.66699 9.66699 21.834 14.5 36.501 14.5zM338 837.998c14.667 0 26.832 -5.00195 36.499 -15.002s14.5 -22.333 14.5 -37c0 -14 -5 -25.833 -15 -35.5s-22 -14.5 -36 -14.5
c-14.668 0 -26.835 4.83301 -36.5 14.5c-9.66699 9.66699 -14.5 21.834 -14.5 36.501c0 14.6699 4.83301 26.8369 14.5 36.501c9.66699 9.66699 21.834 14.5 36.501 14.5z" />
    <glyph glyph-name="Igrave" unicode="&#xcc;" horiz-adv-x="250" 
d="M167 0h-84v667h84v-667zM168 719h-60l-120 131h92z" />
    <glyph glyph-name="Iacute" unicode="&#xcd;" horiz-adv-x="250" 
d="M167 0h-84v667h84v-667zM262 850l-120 -131h-60l89 131h91z" />
    <glyph glyph-name="Icircumflex" unicode="&#xce;" horiz-adv-x="250" 
d="M167 0h-84v667h84v-667zM50 719h-66l109 133h69l104 -133h-65l-75 83z" />
    <glyph glyph-name="Idieresis" unicode="&#xcf;" horiz-adv-x="250" 
d="M167 0h-84v667h84v-667zM51 838c14.667 0 26.833 -5.00195 36.5 -15.002s14.5 -22.333 14.5 -37c0 -14 -5 -25.833 -15 -35.5s-22 -14.5 -36 -14.5c-14.667 0 -26.834 4.83301 -36.501 14.5s-14.5 21.834 -14.5 36.501c0 14.6699 4.83301 26.8369 14.5 36.501
c9.66699 9.66699 21.834 14.5 36.501 14.5zM198.999 837.998c14.667 0 26.835 -5.00195 36.501 -15.002c9.66699 -10 14.5 -22.333 14.5 -37c0 -14 -5 -25.833 -15 -35.5s-22 -14.5 -36 -14.5c-14.667 0 -26.834 4.83301 -36.501 14.5s-14.5 21.834 -14.5 36.501
c0 14.6699 4.83301 26.8369 14.5 36.501c9.66699 9.66699 21.834 14.5 36.5 14.5z" />
    <glyph glyph-name="Eth" unicode="&#xd0;" horiz-adv-x="626" 
d="M83 667h176.998c50 0 95 -7.33301 135 -22s73.833 -36 101.5 -64c27.6689 -28 48.8359 -62 63.501 -102c14.667 -40 22 -85.333 22 -136c0 -56.667 -9 -107.667 -27 -153s-44 -83 -78 -113c-57.333 -51.333 -134.666 -77 -231.999 -77h-162v304h-75v68h75v295z
M329.998 372v-67.999h-163v-232h30c28 0 52.5 0.833008 73.5 2.5s39.5 4.5 55.5 8.5s30.333 9.16699 43 15.5s25 14.166 37 23.499c30 23.333 52.5 53.5 67.5 90.5s22.5 80.167 22.5 129.5c0 81.333 -20.5 144 -61.5 188s-99.833 66 -176.5 66h-91v-224h163z" />
    <glyph glyph-name="Ntilde" unicode="&#xd1;" horiz-adv-x="683" 
d="M167 0h-84v667h77l356 -502v502h84v-667h-74l-359 510v-510zM508 813c-16.667 -30 -32.4971 -51.334 -47.4971 -64.001s-32.167 -19 -51.5 -19c-9.33301 0 -18.333 1.33301 -27 4c-8.66699 2.67188 -23 9.33887 -43 20c-22.667 11.333 -39 17 -49 17
c-20.667 0 -36.334 -14 -47.001 -42l-55 16c15.333 32.667 30.166 55.667 44.499 69s31.166 20 50.499 20c9.33496 0 19.168 -1.66699 29.5 -5c10.334 -3.3457 26.167 -10.6787 47.5 -21.999c13.335 -6.66699 23.168 -11.167 29.5 -13.5
c6.33301 -2.33301 11.5 -3.5 15.5 -3.5c20 0 36 14.667 48 44z" />
    <glyph glyph-name="Ograve" unicode="&#xd2;" horiz-adv-x="742" 
d="M374 679c46.667 0 91.334 -9.99902 134.001 -29.999s80 -48.333 112 -85c27.333 -32 47.166 -67 59.499 -105s18.5 -82 18.5 -132c0 -52 -9.66699 -100.333 -29 -145s-47.333 -82.667 -84 -114c-30 -26 -63.333 -45.833 -100 -59.5s-74.334 -20.5 -113 -20.5
c-50 0 -97.667 11 -143 33s-83.666 52.667 -114.999 92c-23.333 29.333 -40.833 62.333 -52.5 99s-17.5 76 -17.5 118c0 50 8.33301 96.167 25 138.5s39.667 79.166 69 110.499s64.166 55.833 104.499 73.5c40.334 17.667 84.167 26.5 131.5 26.5zM372 601.001
c-34.667 0 -66.834 -6.66504 -96.5 -19.998c-29.667 -13.333 -55.167 -32 -76.5 -56s-38.166 -52.333 -50.499 -85s-18.5 -68.334 -18.5 -107c0 -38.667 6 -74.334 18 -107c12 -32.667 28.667 -61 50 -85s46.666 -42.667 75.999 -56s61.333 -20 96 -20c34 0 66.5 7 97.5 21
c31.001 14 57.834 33.667 80.5 59c19.333 21.333 34.833 48.666 46.5 81.999s17.5 67 17.5 101c0 44.667 -6.16699 83.5 -18.5 116.5s-31.5 62.167 -57.5 87.5c-22 21.333 -47.333 38.166 -76 50.499s-58 18.5 -88 18.5zM415 719.003h-60l-121 131h92z" />
    <glyph glyph-name="Oacute" unicode="&#xd3;" horiz-adv-x="742" 
d="M374 679c46.667 0 91.334 -9.99902 134.001 -29.999s80 -48.333 112 -85c27.333 -32 47.166 -67 59.499 -105s18.5 -82 18.5 -132c0 -52 -9.66699 -100.333 -29 -145s-47.333 -82.667 -84 -114c-30 -26 -63.333 -45.833 -100 -59.5s-74.334 -20.5 -113 -20.5
c-50 0 -97.667 11 -143 33s-83.666 52.667 -114.999 92c-23.333 29.333 -40.833 62.333 -52.5 99s-17.5 76 -17.5 118c0 50 8.33301 96.167 25 138.5s39.667 79.166 69 110.499s64.166 55.833 104.499 73.5c40.334 17.667 84.167 26.5 131.5 26.5zM372 601.001
c-34.667 0 -66.834 -6.66504 -96.5 -19.998c-29.667 -13.333 -55.167 -32 -76.5 -56s-38.166 -52.333 -50.499 -85s-18.5 -68.334 -18.5 -107c0 -38.667 6 -74.334 18 -107c12 -32.667 28.667 -61 50 -85s46.666 -42.667 75.999 -56s61.333 -20 96 -20c34 0 66.5 7 97.5 21
c31.001 14 57.834 33.667 80.5 59c19.333 21.333 34.833 48.666 46.5 81.999s17.5 67 17.5 101c0 44.667 -6.16699 83.5 -18.5 116.5s-31.5 62.167 -57.5 87.5c-22 21.333 -47.333 38.166 -76 50.499s-58 18.5 -88 18.5zM508 850.003l-120 -131h-60l88 131h92z" />
    <glyph glyph-name="Ocircumflex" unicode="&#xd4;" horiz-adv-x="742" 
d="M374 679c46.667 0 91.334 -9.99902 134.001 -29.999s80 -48.333 112 -85c27.333 -32 47.166 -67 59.499 -105s18.5 -82 18.5 -132c0 -52 -9.66699 -100.333 -29 -145s-47.333 -82.667 -84 -114c-30 -26 -63.333 -45.833 -100 -59.5s-74.334 -20.5 -113 -20.5
c-50 0 -97.667 11 -143 33s-83.666 52.667 -114.999 92c-23.333 29.333 -40.833 62.333 -52.5 99s-17.5 76 -17.5 118c0 50 8.33301 96.167 25 138.5s39.667 79.166 69 110.499s64.166 55.833 104.499 73.5c40.334 17.667 84.167 26.5 131.5 26.5zM372 601.001
c-34.667 0 -66.834 -6.66504 -96.5 -19.998c-29.667 -13.333 -55.167 -32 -76.5 -56s-38.166 -52.333 -50.499 -85s-18.5 -68.334 -18.5 -107c0 -38.667 6 -74.334 18 -107c12 -32.667 28.667 -61 50 -85s46.666 -42.667 75.999 -56s61.333 -20 96 -20c34 0 66.5 7 97.5 21
c31.001 14 57.834 33.667 80.5 59c19.333 21.333 34.833 48.666 46.5 81.999s17.5 67 17.5 101c0 44.667 -6.16699 83.5 -18.5 116.5s-31.5 62.167 -57.5 87.5c-22 21.333 -47.333 38.166 -76 50.499s-58 18.5 -88 18.5zM297 719.003h-67l109 133h69l104 -133h-65l-75 83z
" />
    <glyph glyph-name="Otilde" unicode="&#xd5;" horiz-adv-x="742" 
d="M374 679c46.667 0 91.334 -9.99902 134.001 -29.999s80 -48.333 112 -85c27.333 -32 47.166 -67 59.499 -105s18.5 -82 18.5 -132c0 -52 -9.66699 -100.333 -29 -145s-47.333 -82.667 -84 -114c-30 -26 -63.333 -45.833 -100 -59.5s-74.334 -20.5 -113 -20.5
c-50 0 -97.667 11 -143 33s-83.666 52.667 -114.999 92c-23.333 29.333 -40.833 62.333 -52.5 99s-17.5 76 -17.5 118c0 50 8.33301 96.167 25 138.5s39.667 79.166 69 110.499s64.166 55.833 104.499 73.5c40.334 17.667 84.167 26.5 131.5 26.5zM372 601.001
c-34.667 0 -66.834 -6.66504 -96.5 -19.998c-29.667 -13.333 -55.167 -32 -76.5 -56s-38.166 -52.333 -50.499 -85s-18.5 -68.334 -18.5 -107c0 -38.667 6 -74.334 18 -107c12 -32.667 28.667 -61 50 -85s46.666 -42.667 75.999 -56s61.333 -20 96 -20c34 0 66.5 7 97.5 21
c31.001 14 57.834 33.667 80.5 59c19.333 21.333 34.833 48.666 46.5 81.999s17.5 67 17.5 101c0 44.667 -6.16699 83.5 -18.5 116.5s-31.5 62.167 -57.5 87.5c-22 21.333 -47.333 38.166 -76 50.499s-58 18.5 -88 18.5zM538 813.003
c-16.667 -30 -32.499 -51.333 -47.499 -64s-32.167 -19 -51.5 -19c-9.33301 0 -18.333 1.33301 -27 4c-8.66699 2.67188 -23 9.33887 -43 20c-22.667 11.333 -39 17 -49 17c-20.667 0 -36.334 -14 -47 -42l-55 16c15.333 32.667 30.166 55.667 44.499 69
c14.334 13.333 31.167 20 50.5 20c9.33398 0 19.167 -1.66699 29.5 -5c10.334 -3.3457 26.167 -10.6787 47.5 -22c13.334 -6.66699 23.167 -11.167 29.5 -13.5s11.5 -3.5 15.5 -3.5c20 0 36 14.667 48 44z" />
    <glyph glyph-name="Odieresis" unicode="&#xd6;" horiz-adv-x="742" 
d="M374 679c46.667 0 91.334 -9.99902 134.001 -29.999s80 -48.333 112 -85c27.333 -32 47.166 -67 59.499 -105s18.5 -82 18.5 -132c0 -52 -9.66699 -100.333 -29 -145s-47.333 -82.667 -84 -114c-30 -26 -63.333 -45.833 -100 -59.5s-74.334 -20.5 -113 -20.5
c-50 0 -97.667 11 -143 33s-83.666 52.667 -114.999 92c-23.333 29.333 -40.833 62.333 -52.5 99s-17.5 76 -17.5 118c0 50 8.33301 96.167 25 138.5s39.667 79.166 69 110.499s64.166 55.833 104.499 73.5c40.334 17.667 84.167 26.5 131.5 26.5zM372 601.001
c-34.667 0 -66.834 -6.66504 -96.5 -19.998c-29.667 -13.333 -55.167 -32 -76.5 -56s-38.166 -52.333 -50.499 -85s-18.5 -68.334 -18.5 -107c0 -38.667 6 -74.334 18 -107c12 -32.667 28.667 -61 50 -85s46.666 -42.667 75.999 -56s61.333 -20 96 -20c34 0 66.5 7 97.5 21
c31.001 14 57.834 33.667 80.5 59c19.333 21.333 34.833 48.666 46.5 81.999s17.5 67 17.5 101c0 44.667 -6.16699 83.5 -18.5 116.5s-31.5 62.167 -57.5 87.5c-22 21.333 -47.333 38.166 -76 50.499s-58 18.5 -88 18.5zM269 838.003
c14.667 0 26.834 -5.00098 36.501 -15.001s14.5 -22.333 14.5 -37c0 -14 -5 -25.833 -15 -35.5s-22 -14.5 -36 -14.5c-14.667 0 -26.834 4.83301 -36.501 14.5s-14.5 21.834 -14.5 36.501c0 14.6699 4.83301 26.8369 14.5 36.5c9.66699 9.66699 21.834 14.5 36.5 14.5z
M473 838.002c14.667 0 26.832 -5.00195 36.499 -15.002s14.5 -22.333 14.5 -37c0 -14 -5 -25.833 -15 -35.5s-22 -14.5 -36 -14.5c-14.668 0 -26.835 4.83301 -36.5 14.5c-9.66699 9.66699 -14.5 21.834 -14.5 36.501c0 14.6699 4.83301 26.8369 14.5 36.501
c9.66699 9.66699 21.834 14.5 36.501 14.5z" />
    <glyph glyph-name="multiply" unicode="&#xd7;" 
d="M249 373l158 159l32 -32l-158 -158l158 -158l-31 -31l-158 158l-158 -159l-32 32l159 158l-158 158l31 31z" />
    <glyph glyph-name="Oslash" unicode="&#xd8;" horiz-adv-x="740" 
d="M77 -5l-27 26l75 80c-14.667 18 -27.167 35.667 -37.5 53s-18.666 35 -24.999 53s-11 37 -14 57s-4.5 41.667 -4.5 65c0 52 8.16699 99.333 24.5 142s40.5 80 72.5 112c31.333 30.668 66.833 54.335 106.5 71c39.667 16.667 80.5 25 122.5 25
c80 0 153.333 -28.667 219.999 -86l70 76l28 -27l-71 -76c14.667 -20 27 -39 37 -57s18.167 -36 24.5 -54s10.833 -36.667 13.5 -56s4 -40.333 4 -63c0 -50 -8.33301 -96.333 -25 -139s-39.834 -79.5 -69.501 -110.5s-64.667 -55.167 -105 -72.5s-84.166 -26 -131.499 -26
c-40.667 0 -77.5 6.66699 -110.5 20s-67.167 35.333 -102.5 66zM208 130c24.667 -22 49.833 -38.333 75.5 -49s53.5 -16 83.5 -16c35.333 0 67.833 6.66699 97.5 20s55.334 32 77.001 56s38.5 52.667 50.5 86s18 70 18 110c0 34.667 -3.83301 64.667 -11.5 90
c-7.66699 25.334 -20.834 51.667 -39.501 79zM532.999 536c-51.333 44 -105.001 66 -161.001 66c-35.333 0 -67.666 -6.66699 -96.999 -20s-54.833 -32 -76.5 -56s-38.5 -52.5 -50.5 -85.5s-18 -68.833 -18 -107.5c0 -35.333 4.16699 -66.5 12.5 -93.5
s21.5 -53.5 39.5 -79.5z" />
    <glyph glyph-name="Ugrave" unicode="&#xd9;" horiz-adv-x="636" 
d="M155 270c0 -42.667 3.33398 -76 10.001 -100s18 -44 34 -60c14 -13.333 31.833 -24.166 53.5 -32.499s43.167 -12.5 64.5 -12.5c21.334 0 42.667 4.33301 64 13s39.333 20.667 54 36c8.66699 8.66699 16 17.667 22 27s10.667 20 14 32c3.34082 12 5.67383 26 7 42
c1.33301 16 2 35 2 57v395h86v-395c0 -50 -4.5 -90.667 -13.5 -122s-24.167 -59 -45.5 -83c-22.667 -25.333 -50.167 -44.833 -82.5 -58.5s-67.5 -20.5 -105.5 -20.5c-39.333 0 -75.833 7.16699 -109.5 21.5s-61.834 35.166 -84.501 62.499c-10 12 -18.5 24.167 -25.5 36.5
s-12.667 26.333 -17 42s-7.33301 33.334 -9 53c-1.66699 19.667 -2.5 42.5 -2.5 68.5v395h84v-397zM362.001 719h-60l-120 131h92z" />
    <glyph glyph-name="Uacute" unicode="&#xda;" horiz-adv-x="636" 
d="M155 270c0 -42.667 3.33398 -76 10.001 -100s18 -44 34 -60c14 -13.333 31.833 -24.166 53.5 -32.499s43.167 -12.5 64.5 -12.5c21.334 0 42.667 4.33301 64 13s39.333 20.667 54 36c8.66699 8.66699 16 17.667 22 27s10.667 20 14 32c3.34082 12 5.67383 26 7 42
c1.33301 16 2 35 2 57v395h86v-395c0 -50 -4.5 -90.667 -13.5 -122s-24.167 -59 -45.5 -83c-22.667 -25.333 -50.167 -44.833 -82.5 -58.5s-67.5 -20.5 -105.5 -20.5c-39.333 0 -75.833 7.16699 -109.5 21.5s-61.834 35.166 -84.501 62.499c-10 12 -18.5 24.167 -25.5 36.5
s-12.667 26.333 -17 42s-7.33301 33.334 -9 53c-1.66699 19.667 -2.5 42.5 -2.5 68.5v395h84v-397zM456.001 850l-121 -131h-60l89 131h92z" />
    <glyph glyph-name="Ucircumflex" unicode="&#xdb;" horiz-adv-x="636" 
d="M155 270c0 -42.667 3.33398 -76 10.001 -100s18 -44 34 -60c14 -13.333 31.833 -24.166 53.5 -32.499s43.167 -12.5 64.5 -12.5c21.334 0 42.667 4.33301 64 13s39.333 20.667 54 36c8.66699 8.66699 16 17.667 22 27s10.667 20 14 32c3.34082 12 5.67383 26 7 42
c1.33301 16 2 35 2 57v395h86v-395c0 -50 -4.5 -90.667 -13.5 -122s-24.167 -59 -45.5 -83c-22.667 -25.333 -50.167 -44.833 -82.5 -58.5s-67.5 -20.5 -105.5 -20.5c-39.333 0 -75.833 7.16699 -109.5 21.5s-61.834 35.166 -84.501 62.499c-10 12 -18.5 24.167 -25.5 36.5
s-12.667 26.333 -17 42s-7.33301 33.334 -9 53c-1.66699 19.667 -2.5 42.5 -2.5 68.5v395h84v-397zM244.001 719h-66l108 133h70l104 -133h-66l-75 83z" />
    <glyph glyph-name="Udieresis" unicode="&#xdc;" horiz-adv-x="636" 
d="M155 270c0 -42.667 3.33398 -76 10.001 -100s18 -44 34 -60c14 -13.333 31.833 -24.166 53.5 -32.499s43.167 -12.5 64.5 -12.5c21.334 0 42.667 4.33301 64 13s39.333 20.667 54 36c8.66699 8.66699 16 17.667 22 27s10.667 20 14 32c3.34082 12 5.67383 26 7 42
c1.33301 16 2 35 2 57v395h86v-395c0 -50 -4.5 -90.667 -13.5 -122s-24.167 -59 -45.5 -83c-22.667 -25.333 -50.167 -44.833 -82.5 -58.5s-67.5 -20.5 -105.5 -20.5c-39.333 0 -75.833 7.16699 -109.5 21.5s-61.834 35.166 -84.501 62.499c-10 12 -18.5 24.167 -25.5 36.5
s-12.667 26.333 -17 42s-7.33301 33.334 -9 53c-1.66699 19.667 -2.5 42.5 -2.5 68.5v395h84v-397zM216.001 838c14.667 0 26.835 -5.00195 36.501 -15.002c9.66699 -10 14.5 -22.333 14.5 -37c0 -14 -5 -25.833 -15 -35.5s-22 -14.5 -36 -14.5
c-14.667 0 -26.834 4.83301 -36.501 14.5s-14.5 21.834 -14.5 36.501c0 14.6699 4.83301 26.8369 14.5 36.501c9.66699 9.66699 21.834 14.5 36.5 14.5zM421.002 837.998c14.667 0 26.832 -4.83496 36.499 -14.502s14.5 -22.167 14.5 -37.5c0 -14 -5 -25.833 -15 -35.5
s-22 -14.5 -36 -14.5c-14.667 0 -26.834 4.83301 -36.5 14.5c-9.66699 9.66699 -14.5 21.834 -14.5 36.501c0 14.6699 4.83301 26.8369 14.5 36.501c9.66699 9.66699 21.834 14.5 36.501 14.5z" />
    <glyph glyph-name="Yacute" unicode="&#xdd;" horiz-adv-x="529" 
d="M308 0h-84v294l-230 373h99l172 -286l170 286h100l-227 -373v-294zM401 850l-120 -131h-60l89 131h91z" />
    <glyph glyph-name="Thorn" unicode="&#xde;" horiz-adv-x="531" 
d="M162 0h-84v667h84v-84h94c79.333 0 140 -17.333 182 -52s63 -85.334 63 -152c0 -33.333 -6.16699 -64 -18.5 -92s-29.833 -51.333 -52.5 -70c-19.333 -15.333 -42.333 -26.833 -69 -34.5s-58.667 -11.5 -96 -11.5h-103v-171zM249 243
c18 0 33.499 0.832031 46.499 2.49902c13 1.66895 25.167 4.83594 36.5 9.50098c25.334 9.33301 45.667 24.833 61 46.5s23 46.834 23 75.501s-7.5 53.667 -22.5 75c-15 21.334 -35.833 36.667 -62.5 45.999c-13.333 4.66699 -27.166 8 -41.499 10s-31.5 3 -51.5 3h-76v-268
h87z" />
    <glyph glyph-name="germandbls" unicode="&#xdf;" horiz-adv-x="495" 
d="M29 394l-0.00195312 66.9961h53v57c0 48 14.667 85.5 44 112.5s70.333 40.5 123 40.5c24.667 0 47.334 -3.5 68.001 -10.5s38.334 -17 53.001 -30s26 -28.667 34 -47s12 -38.833 12 -61.5c0 -15.333 -2.5 -31.166 -7.5 -47.499s-11.833 -30.166 -20.5 -41.499
c-6.66797 -9.33301 -14.335 -17.166 -23 -23.499c-8.66699 -6.33301 -21.667 -13.5 -39 -21.5c19.333 -4.66699 34.333 -9.66699 45 -15s21.667 -13.666 33 -24.999c35.333 -35.333 53 -82.666 53 -141.999c0 -32 -4.33301 -61.167 -13 -87.5
c-8.66797 -26.333 -20.835 -48.833 -36.5 -67.5c-15.667 -18.667 -34.667 -33.167 -57 -43.5s-46.833 -15.5 -73.5 -15.5c-16.667 0 -30.5 1.33301 -41.5 4s-23.167 7.66699 -36.5 15l20 62c13.333 -4 23.5 -6.66699 30.5 -8s14.5 -2 22.5 -2c32.667 0 59 13 79 39
s30 60 30 102c0 90 -45 136.333 -135 139v73c15.333 2 26.833 4.33301 34.5 7s15.167 6.66699 22.5 12c11.335 8 20.168 19.167 26.5 33.5c6.33301 14.334 9.5 29.167 9.5 44.499c0 26 -8.5 47.333 -25.5 64s-38.167 25 -63.5 25c-15.334 0 -29.667 -2.83301 -43 -8.5
s-24 -13.167 -32 -22.5c-11.333 -14 -17 -35.667 -17 -65v-506h-76v394h-53z" />
    <glyph glyph-name="agrave" unicode="&#xe0;" horiz-adv-x="577" 
d="M424 461h75.999v-461h-76v89c-23.333 -34.667 -48.333 -60 -75 -76s-57.667 -24 -93 -24c-32 0 -61.167 6 -87.5 18s-49.166 28.5 -68.499 49.5s-34.333 46.167 -45 75.5s-16 61.666 -16 96.999s5.5 67.833 16.5 97.5s26.167 55.334 45.5 77.001s42.333 38.5 69 50.5
s56 18 88 18c35.334 0 66.167 -7 92.5 -21s50.833 -36 73.5 -66v76zM268.999 404c-48.667 0 -86 -18.332 -112 -54.999c-12 -16.667 -21.333 -35.5 -28 -56.5s-10 -42.833 -10 -65.5c0 -24.667 3.83301 -47.5 11.5 -68.5s18 -39.167 31 -54.5s28.5 -27.333 46.5 -36
s37.667 -13 59 -13c22 0 42.5 4.66699 61.5 14s35.667 22.166 50 38.499c14.334 16.333 25.667 35.5 34 57.5s12.5 45.333 12.5 70s-3.83301 47.5 -11.5 68.5s-18.334 38.833 -32 53.5c-13.667 14.667 -30.167 26.167 -49.5 34.5s-40.333 12.5 -63 12.5zM327.999 528.001
h-55l-118 132h90z" />
    <glyph glyph-name="aacute" unicode="&#xe1;" horiz-adv-x="577" 
d="M424 461h75.999v-461h-76v89c-23.333 -34.667 -48.333 -60 -75 -76s-57.667 -24 -93 -24c-32 0 -61.167 6 -87.5 18s-49.166 28.5 -68.499 49.5s-34.333 46.167 -45 75.5s-16 61.666 -16 96.999s5.5 67.833 16.5 97.5s26.167 55.334 45.5 77.001s42.333 38.5 69 50.5
s56 18 88 18c35.334 0 66.167 -7 92.5 -21s50.833 -36 73.5 -66v76zM268.999 404c-48.667 0 -86 -18.332 -112 -54.999c-12 -16.667 -21.333 -35.5 -28 -56.5s-10 -42.833 -10 -65.5c0 -24.667 3.83301 -47.5 11.5 -68.5s18 -39.167 31 -54.5s28.5 -27.333 46.5 -36
s37.667 -13 59 -13c22 0 42.5 4.66699 61.5 14s35.667 22.166 50 38.499c14.334 16.333 25.667 35.5 34 57.5s12.5 45.333 12.5 70s-3.83301 47.5 -11.5 68.5s-18.334 38.833 -32 53.5c-13.667 14.667 -30.167 26.167 -49.5 34.5s-40.333 12.5 -63 12.5zM420.999 660.001
l-118 -132h-54l82 132h90z" />
    <glyph glyph-name="acircumflex" unicode="&#xe2;" horiz-adv-x="577" 
d="M424 461h75.999v-461h-76v89c-23.333 -34.667 -48.333 -60 -75 -76s-57.667 -24 -93 -24c-32 0 -61.167 6 -87.5 18s-49.166 28.5 -68.499 49.5s-34.333 46.167 -45 75.5s-16 61.666 -16 96.999s5.5 67.833 16.5 97.5s26.167 55.334 45.5 77.001s42.333 38.5 69 50.5
s56 18 88 18c35.334 0 66.167 -7 92.5 -21s50.833 -36 73.5 -66v76zM268.999 404c-48.667 0 -86 -18.332 -112 -54.999c-12 -16.667 -21.333 -35.5 -28 -56.5s-10 -42.833 -10 -65.5c0 -24.667 3.83301 -47.5 11.5 -68.5s18 -39.167 31 -54.5s28.5 -27.333 46.5 -36
s37.667 -13 59 -13c22 0 42.5 4.66699 61.5 14s35.667 22.166 50 38.499c14.334 16.333 25.667 35.5 34 57.5s12.5 45.333 12.5 70s-3.83301 47.5 -11.5 68.5s-18.334 38.833 -32 53.5c-13.667 14.667 -30.167 26.167 -49.5 34.5s-40.333 12.5 -63 12.5zM214.999 528.001
h-65l103 133h72l102 -133h-66l-73 84z" />
    <glyph glyph-name="atilde" unicode="&#xe3;" horiz-adv-x="577" 
d="M424 461h75.999v-461h-76v89c-23.333 -34.667 -48.333 -60 -75 -76s-57.667 -24 -93 -24c-32 0 -61.167 6 -87.5 18s-49.166 28.5 -68.499 49.5s-34.333 46.167 -45 75.5s-16 61.666 -16 96.999s5.5 67.833 16.5 97.5s26.167 55.334 45.5 77.001s42.333 38.5 69 50.5
s56 18 88 18c35.334 0 66.167 -7 92.5 -21s50.833 -36 73.5 -66v76zM268.999 404c-48.667 0 -86 -18.332 -112 -54.999c-12 -16.667 -21.333 -35.5 -28 -56.5s-10 -42.833 -10 -65.5c0 -24.667 3.83301 -47.5 11.5 -68.5s18 -39.167 31 -54.5s28.5 -27.333 46.5 -36
s37.667 -13 59 -13c22 0 42.5 4.66699 61.5 14s35.667 22.166 50 38.499c14.334 16.333 25.667 35.5 34 57.5s12.5 45.333 12.5 70s-3.83301 47.5 -11.5 68.5s-18.334 38.833 -32 53.5c-13.667 14.667 -30.167 26.167 -49.5 34.5s-40.333 12.5 -63 12.5zM449.999 622.001
c-15.333 -30 -30.168 -51.5 -44.501 -64.5s-30.833 -19.5 -49.5 -19.5c-5.33301 0 -10.5 0.5 -15.5 1.5s-10.667 2.83301 -17 5.5c-6.33301 2.6748 -13.833 6.3418 -22.5 11c-8.66699 4.66699 -19 10.667 -31 18c-7.33301 5.33301 -13.5 8.83301 -18.5 10.5
s-9.83301 2.5 -14.5 2.5c-10 0 -18.667 -3.16699 -26 -9.5s-14.333 -16.833 -21 -31.5l-51 23c14 27.333 28.667 47.166 44 59.499s32.333 18.5 51 18.5c12.667 0 25.5 -2.66699 38.5 -8c13 -5.33789 31.167 -15.6709 54.5 -30.999c6 -4 10.833 -6.66699 14.5 -8
s7.83398 -2 12.501 -2c18.667 0 34 14 46 42z" />
    <glyph glyph-name="adieresis" unicode="&#xe4;" horiz-adv-x="577" 
d="M424 461h75.999v-461h-76v89c-23.333 -34.667 -48.333 -60 -75 -76s-57.667 -24 -93 -24c-32 0 -61.167 6 -87.5 18s-49.166 28.5 -68.499 49.5s-34.333 46.167 -45 75.5s-16 61.666 -16 96.999s5.5 67.833 16.5 97.5s26.167 55.334 45.5 77.001s42.333 38.5 69 50.5
s56 18 88 18c35.334 0 66.167 -7 92.5 -21s50.833 -36 73.5 -66v76zM268.999 404c-48.667 0 -86 -18.332 -112 -54.999c-12 -16.667 -21.333 -35.5 -28 -56.5s-10 -42.833 -10 -65.5c0 -24.667 3.83301 -47.5 11.5 -68.5s18 -39.167 31 -54.5s28.5 -27.333 46.5 -36
s37.667 -13 59 -13c22 0 42.667 4.66699 62 14s36 22.166 50 38.499s25.167 35.5 33.5 57.5s12.5 45.333 12.5 70s-3.83301 47.5 -11.5 68.5s-18.334 38.833 -32 53.5c-13.667 14.667 -30.167 26.167 -49.5 34.5s-40.333 12.5 -63 12.5zM192.999 640.001
c13.333 0 24.5 -4.5 33.5 -13.5s13.5 -20.5 13.5 -34.5c0 -13.333 -4.5 -24.333 -13.5 -33s-20.167 -13 -33.5 -13s-24.5 4.5 -33.5 13.5s-13.5 20.167 -13.5 33.5s4.5 24.5 13.5 33.5s20.167 13.5 33.5 13.5zM392.999 640.001c13.333 0 24.5 -4.5 33.5 -13.5
s13.5 -20.5 13.5 -34.5c0 -13.333 -4.5 -24.333 -13.5 -33s-20.167 -13 -33.5 -13s-24.5 4.5 -33.5 13.5s-13.5 20.167 -13.5 33.5s4.5 24.5 13.5 33.5s20.167 13.5 33.5 13.5z" />
    <glyph glyph-name="aring" unicode="&#xe5;" horiz-adv-x="577" 
d="M424 461h75.999v-461h-76v89c-23.333 -34.667 -48.333 -60 -75 -76s-57.667 -24 -93 -24c-32 0 -61.167 6 -87.5 18s-49.166 28.5 -68.499 49.5s-34.333 46.167 -45 75.5s-16 61.666 -16 96.999s5.5 67.833 16.5 97.5s26.167 55.334 45.5 77.001s42.333 38.5 69 50.5
s56 18 88 18c35.334 0 66.167 -7 92.5 -21s50.833 -36 73.5 -66v76zM268.999 404c-48.667 0 -86 -18.332 -112 -54.999c-12 -16.667 -21.333 -35.5 -28 -56.5s-10 -42.833 -10 -65.5c0 -24.667 3.83301 -47.5 11.5 -68.5s18 -39.167 31 -54.5s28.5 -27.333 46.5 -36
s37.667 -13 59 -13c22 0 42.667 4.66699 62 14s36 22.166 50 38.499s25.167 35.5 33.5 57.5s12.5 45.333 12.5 70s-3.83301 47.5 -11.5 68.5s-18.334 38.833 -32 53.5c-13.667 14.667 -30.167 26.167 -49.5 34.5s-40.333 12.5 -63 12.5zM272.999 677.001
c22.667 0 41.667 -7.66699 57 -23c15.333 -15.3359 23 -34.6689 23 -58c0 -21.3359 -7.83301 -39.6689 -23.5 -55c-15.667 -15.333 -34.5 -23 -56.5 -23c-23.333 0 -42.666 7.66699 -57.999 23s-23 34 -23 56c0 22.667 7.66699 41.667 23 57s34.666 23 57.999 23z
M272.999 645.001c-14 0 -25.667 -4.49902 -35 -13.499s-14 -20.5 -14 -34.5c0 -13.333 4.66699 -24.5 14 -33.5s21 -13.5 35 -13.5c13.334 0 24.667 4.5 33.999 13.5c9.33301 9 14 20.167 14 33.5s-4.66699 24.666 -14 33.999s-20.666 14 -33.999 14z" />
    <glyph glyph-name="ae" unicode="&#xe6;" horiz-adv-x="927" 
d="M868 112c-43.333 -82 -111.333 -122.998 -204 -122.998c-36.667 0 -67.667 7 -93 21s-47.333 36.333 -66 67v-77h-75v85c-21.333 -32.667 -45.833 -56.834 -73.5 -72.501s-59.834 -23.5 -96.5 -23.5c-32.667 0 -62.5 5.83301 -89.5 17.5s-50.333 28.167 -70 49.5
s-34.834 46.666 -45.501 75.999s-16 62 -16 98c0 35.333 5.33301 67.833 16 97.5s25.667 55.167 45 76.5s42.333 38 69 50s56 18 88 18c70.667 0 128.334 -28.667 173.001 -86v75h75v-75c11.333 17.334 21.5 30.167 30.5 38.5c9 8.33496 20.167 16.168 33.5 23.5
c28.667 16 61.667 24 99 24c67.333 0 122 -24 164 -72c19.333 -22.667 34.5 -48.334 45.5 -77c11 -28.667 16.5 -58 16.5 -88v-12.5c0 -4.33301 -0.333008 -9.83301 -1 -16.5h-388c3.33301 -22.667 7.5 -40.5 12.5 -53.5s13.167 -25.833 24.5 -38.5
c14 -17.333 31.5 -30.833 52.5 -40.5s42.833 -14.5 65.5 -14.5c57.333 0 105 26.667 143 80zM814 262.002c-6.66699 44.667 -23.333 79.498 -50 104.498s-61 37.5 -103 37.5c-25.333 0 -49.333 -5.5 -72 -16.5s-41 -26.167 -55 -45.5c-8 -11.333 -14 -22.666 -18 -33.999
s-7.66699 -26.666 -11 -45.999h309zM275.001 404c-56.667 0 -98.668 -22.3311 -126.001 -66.998c-10 -15.333 -17.5 -32.5 -22.5 -51.5s-7.5 -38.167 -7.5 -57.5c0 -24.667 4 -47.5 12 -68.5s18.833 -39.333 32.5 -55s30 -27.834 49 -36.501s39.5 -13 61.5 -13
s42.5 4.5 61.5 13.5s35.5 21.5 49.5 37.5s25 34.667 33 56s12 44.666 12 69.999c0 25.334 -3.83301 48.667 -11.5 70s-18.167 39.5 -31.5 54.5s-29.666 26.667 -48.999 35s-40.333 12.5 -63 12.5z" />
    <glyph glyph-name="ccedilla" unicode="&#xe7;" horiz-adv-x="457" 
d="M435 57c-26 -23.333 -52.334 -40.502 -79.001 -51.502s-57 -16.5 -91 -16.5c-33.333 0 -63.833 6 -91.5 18s-51.5 28.5 -71.5 49.5s-35.5 46.167 -46.5 75.5s-16.5 61.666 -16.5 96.999c0 36 5.66699 68.833 17 98.5s27.166 55.167 47.499 76.5s44.5 38 72.5 50
s59 18 93 18c65.333 0 121.333 -23 168 -69l-49 -49c-35.333 32 -74.333 48 -117 48c-22.667 0 -43.5 -4.16699 -62.5 -12.5s-35.167 -20 -48.5 -35s-23.833 -33 -31.5 -54s-11.5 -43.833 -11.5 -68.5c0 -25.333 3.66699 -48.666 11 -69.999s17.833 -39.666 31.5 -54.999
s29.834 -27.166 48.5 -35.499c18.667 -8.33301 39.334 -12.5 62 -12.5c22.667 0 43.334 4 62.001 12s37.334 20.667 56.001 38zM156.999 -179.002c25.333 15.333 45.833 32.833 61.5 52.5s28.167 44.167 37.5 73.5l63 -24c-15.333 -32 -33 -58.5 -53 -79.5
s-45.667 -39.833 -77 -56.5z" />
    <glyph glyph-name="egrave" unicode="&#xe8;" horiz-adv-x="539" 
d="M120 206c2 -19.333 5.16992 -34.999 9.50293 -46.999s11.166 -24.333 20.499 -37c15.333 -20.667 33.5 -36.334 54.5 -47.001s44.167 -16 69.5 -16c28.667 0 55.5 7.16699 80.5 21.5s44.167 33.5 57.5 57.5l67 -25c-19.333 -38.667 -47.333 -69 -84 -91s-77 -33 -121 -33
c-34 0 -65.5 6 -94.5 18s-53.833 28.5 -74.5 49.5s-36.834 46.167 -48.501 75.5s-17.5 61.666 -17.5 96.999s5.83301 67.833 17.5 97.5s27.667 55.334 48 77.001s44.666 38.5 72.999 50.5s59.5 18 93.5 18c33.333 0 64.333 -6 93 -18s53.5 -28.5 74.5 -49.5
s37.333 -45.833 49 -74.5s17.5 -60 17.5 -94v-13.5c0 -5.66699 -0.333008 -11.167 -1 -16.5h-384zM424.003 262.001c-1.33301 18 -4.00195 32.833 -8.00195 44.5s-10 23.167 -18 34.5c-14.667 19.334 -33.167 34.667 -55.5 46s-46.166 17 -71.499 17s-49 -5.66699 -71 -17
s-39.667 -27 -53 -47c-7.33398 -11.333 -12.667 -22.5 -16 -33.5s-6.66602 -25.833 -9.99902 -44.5h303zM309.001 528.001h-55l-117 132h89z" />
    <glyph glyph-name="eacute" unicode="&#xe9;" horiz-adv-x="539" 
d="M120 206c2 -19.333 5.16992 -34.999 9.50293 -46.999s11.166 -24.333 20.499 -37c15.333 -20.667 33.5 -36.334 54.5 -47.001s44.167 -16 69.5 -16c28.667 0 55.5 7.16699 80.5 21.5s44.167 33.5 57.5 57.5l67 -25c-19.333 -38.667 -47.333 -69 -84 -91s-77 -33 -121 -33
c-34 0 -65.5 6 -94.5 18s-53.833 28.5 -74.5 49.5s-36.834 46.167 -48.501 75.5s-17.5 61.666 -17.5 96.999s5.83301 67.833 17.5 97.5s27.667 55.334 48 77.001s44.666 38.5 72.999 50.5s59.5 18 93.5 18c33.333 0 64.333 -6 93 -18s53.5 -28.5 74.5 -49.5
s37.333 -45.833 49 -74.5s17.5 -60 17.5 -94v-13.5c0 -5.66699 -0.333008 -11.167 -1 -16.5h-384zM424.003 262.001c-1.33301 18 -4.00195 32.833 -8.00195 44.5s-10 23.167 -18 34.5c-14.667 19.334 -33.167 34.667 -55.5 46s-46.166 17 -71.499 17s-49 -5.66699 -71 -17
s-39.667 -27 -53 -47c-7.33398 -11.333 -12.667 -22.5 -16 -33.5s-6.66602 -25.833 -9.99902 -44.5h303zM402.001 660.001l-117 -132h-55l83 132h89z" />
    <glyph glyph-name="ecircumflex" unicode="&#xea;" horiz-adv-x="539" 
d="M120 206c2 -19.333 5.16992 -34.999 9.50293 -46.999s11.166 -24.333 20.499 -37c15.333 -20.667 33.5 -36.334 54.5 -47.001s44.167 -16 69.5 -16c28.667 0 55.5 7.16699 80.5 21.5s44.167 33.5 57.5 57.5l67 -25c-19.333 -38.667 -47.333 -69 -84 -91s-77 -33 -121 -33
c-34 0 -65.5 6 -94.5 18s-53.833 28.5 -74.5 49.5s-36.834 46.167 -48.501 75.5s-17.5 61.666 -17.5 96.999s5.83301 67.833 17.5 97.5s27.667 55.334 48 77.001s44.666 38.5 72.999 50.5s59.5 18 93.5 18c33.333 0 64.333 -6 93 -18s53.5 -28.5 74.5 -49.5
s37.333 -45.833 49 -74.5s17.5 -60 17.5 -94v-13.5c0 -5.66699 -0.333008 -11.167 -1 -16.5h-384zM424.003 262.001c-1.33301 18 -4.00195 32.833 -8.00195 44.5s-10 23.167 -18 34.5c-14.667 19.334 -33.167 34.667 -55.5 46s-46.166 17 -71.499 17s-49 -5.66699 -71 -17
s-39.667 -27 -53 -47c-7.33398 -11.333 -12.667 -22.5 -16 -33.5s-6.66602 -25.833 -9.99902 -44.5h303zM196.001 528.001h-65l104 133h72l101 -133h-66l-73 84z" />
    <glyph glyph-name="edieresis" unicode="&#xeb;" horiz-adv-x="539" 
d="M120 206c2 -19.333 5.16992 -34.999 9.50293 -46.999s11.166 -24.333 20.499 -37c15.333 -20.667 33.5 -36.334 54.5 -47.001s44.167 -16 69.5 -16c28.667 0 55.5 7.16699 80.5 21.5s44.167 33.5 57.5 57.5l67 -25c-19.333 -38.667 -47.333 -69 -84 -91s-77 -33 -121 -33
c-34 0 -65.5 6 -94.5 18s-53.833 28.5 -74.5 49.5s-36.834 46.167 -48.501 75.5s-17.5 61.666 -17.5 96.999s5.83301 67.833 17.5 97.5s27.667 55.334 48 77.001s44.666 38.5 72.999 50.5s59.5 18 93.5 18c33.333 0 64.333 -6 93 -18s53.5 -28.5 74.5 -49.5
s37.333 -45.833 49 -74.5s17.5 -60 17.5 -94v-13.5c0 -5.66699 -0.333008 -11.167 -1 -16.5h-384zM424.003 262.001c-1.33301 18 -4.00195 32.833 -8.00195 44.5s-10 23.167 -18 34.5c-14.667 19.334 -33.167 34.667 -55.5 46s-46.166 17 -71.499 17s-49 -5.66699 -71 -17
s-39.667 -27 -53 -47c-7.33398 -11.333 -12.667 -22.5 -16 -33.5s-6.66602 -25.833 -9.99902 -44.5h303zM169.001 640.001c13.333 0 24.5 -4.5 33.5 -13.5s13.5 -20.5 13.5 -34.5c0 -13.333 -4.5 -24.333 -13.5 -33s-20.167 -13 -33.5 -13s-24.5 4.5 -33.5 13.5
s-13.5 20.167 -13.5 33.5s4.5 24.5 13.5 33.5s20.167 13.5 33.5 13.5zM369.001 640.001c13.333 0 24.5 -4.5 33.5 -13.5s13.5 -20.5 13.5 -34.5c0 -13.333 -4.5 -24.333 -13.5 -33s-20.167 -13 -33.5 -13s-24.5 4.5 -33.5 13.5s-13.5 20.167 -13.5 33.5s4.5 24.5 13.5 33.5
s20.167 13.5 33.5 13.5z" />
    <glyph glyph-name="igrave" unicode="&#xec;" horiz-adv-x="229" 
d="M153 0h-76v461h76v-461zM154 528h-54l-118 132h90z" />
    <glyph glyph-name="iacute" unicode="&#xed;" horiz-adv-x="229" 
d="M152 0h-76v461h76v-461zM247 660l-117 -132h-55l83 132h89z" />
    <glyph glyph-name="icircumflex" unicode="&#xee;" horiz-adv-x="229" 
d="M152 0h-76v461h76v-461zM41 528h-65l104 133h72l101 -133h-66l-73 84z" />
    <glyph glyph-name="idieresis" unicode="&#xef;" horiz-adv-x="229" 
d="M152 0h-76v461h76v-461zM45 640c13.333 0 24.5 -4.5 33.5 -13.5s13.5 -20.5 13.5 -34.5c0 -13.333 -4.5 -24.333 -13.5 -33s-20.167 -13 -33.5 -13s-24.5 4.5 -33.5 13.5s-13.5 20.167 -13.5 33.5s4.5 24.5 13.5 33.5s20.167 13.5 33.5 13.5zM184 640
c13.333 0 24.5 -4.5 33.5 -13.5s13.5 -20.5 13.5 -34.5c0 -13.333 -4.5 -24.333 -13.5 -33s-20.167 -13 -33.5 -13s-24.5 4.5 -33.5 13.5s-13.5 20.167 -13.5 33.5s4.5 24.5 13.5 33.5s20.167 13.5 33.5 13.5z" />
    <glyph glyph-name="eth" unicode="&#xf0;" horiz-adv-x="549" 
d="M269 609c-6 5.33301 -13.667 11.499 -23 18.499s-18.833 13.833 -28.5 20.5c-9.66699 6.67676 -19 12.8438 -28 18.5c-9 5.66699 -16.167 9.5 -21.5 11.5l24 31c8 -2.66699 17.333 -6.66699 28 -12s21.667 -11.333 33 -18s22.333 -13.834 33 -21.501
s20.667 -15.167 30 -22.5l103 56l22 -38l-87 -47c24.667 -23.3359 46.667 -48.6689 66 -76c19.334 -27.333 35.667 -56.166 48.999 -86.499c13.333 -30.333 23.5 -61.666 30.5 -93.999s10.5 -64.5 10.5 -96.5c0 -42 -6 -79.667 -18 -113s-29.667 -61.333 -53 -84
c-21.333 -21.333 -46.5 -37.833 -75.5 -49.5s-59.5 -17.5 -91.5 -17.5c-34 0 -65.333 6 -94 18s-53.334 28.667 -74.001 50s-36.667 46.833 -48 76.5s-17 62.5 -17 98.5c0 35.334 5.83301 67.667 17.5 97c11.667 29.334 27.834 54.667 48.501 76s45.334 37.833 74.001 49.5
s60 17.5 94 17.5c21.333 0 41 -2.5 59 -7.5s38.333 -13.833 61 -26.5c-8 23.333 -20.167 47.5 -36.5 72.5s-34.5 47.5 -54.5 67.5l-101 -57l-21 39zM273 401.999c-23.333 0 -44.5 -4.16504 -63.5 -12.498s-35.333 -20 -49 -35s-24.334 -33 -32.001 -54
s-11.5 -43.833 -11.5 -68.5c0 -26 3.83301 -49.667 11.5 -71s18.334 -39.5 32 -54.5c13.667 -15 30 -26.667 49 -35s40.167 -12.5 63.5 -12.5c23.334 0 44.667 4.16699 64 12.5s36 20.166 50 35.499s24.833 33.666 32.5 54.999s11.5 45 11.5 71
c0 24.667 -3.83301 47.5 -11.5 68.5s-18.5 38.833 -32.5 53.5s-30.667 26.167 -50 34.5s-40.666 12.5 -63.999 12.5z" />
    <glyph glyph-name="ntilde" unicode="&#xf1;" horiz-adv-x="509" 
d="M152 461v-65.0029c20 27.333 40.667 46.833 62 58.5s46.333 17.5 75 17.5c21.333 0 41.166 -3.33301 59.499 -10c18.334 -6.66699 34.167 -16 47.5 -28c14.667 -14 24.834 -30.167 30.501 -48.5s8.5 -43.166 8.5 -74.499v-311h-76v294c0 20.667 -1.33301 37 -4 49
s-7 22 -13 30c-6.66699 9.33301 -16.5 16.833 -29.5 22.5s-27.167 8.5 -42.5 8.5c-17.333 0 -33.5 -3.16699 -48.5 -9.5s-28.167 -16.166 -39.5 -29.499c-11.334 -12 -19.167 -24.167 -23.5 -36.5s-6.5 -28.166 -6.5 -47.499v-281h-76v461h76zM416 621.997
c-15.333 -30 -30.166 -51.5 -44.499 -64.5s-30.833 -19.5 -49.5 -19.5c-10.667 0 -21.667 2.33301 -33 7c-11.333 4.6709 -29 14.3379 -53 29c-8 5.33301 -14.333 8.83301 -19 10.5s-9.33398 2.5 -14.001 2.5c-10 0 -18.667 -3.16699 -26 -9.5s-14.333 -16.833 -21 -31.5
l-51 23c14 27.333 28.5 47.166 43.5 59.499s32.167 18.5 51.5 18.5c12.667 0 25.5 -2.66699 38.5 -8c13 -5.33789 31.167 -15.6709 54.5 -30.999c6 -4 10.667 -6.66699 14 -8s7.33301 -2 12 -2c19.333 0 35 14 47 42z" />
    <glyph glyph-name="ograve" unicode="&#xf2;" horiz-adv-x="548" 
d="M275 472c34 0 65.334 -6 94.001 -18s53.167 -28.833 73.5 -50.5s36.333 -47.334 48 -77c11.667 -29.667 17.5 -62.167 17.5 -97.5c0 -34 -6.16699 -65.5 -18.5 -94.5s-29 -54.333 -50 -76s-46 -38.667 -75 -51s-59.833 -18.5 -92.5 -18.5c-34 0 -65.333 6 -94 18
s-53.334 28.667 -74.001 50s-36.667 46.833 -48 76.5s-17 62.167 -17 97.5c0 36 5.66699 68.667 17 98c11.333 29.334 27.5 54.667 48.5 76s45.833 37.833 74.5 49.5s60.667 17.5 96 17.5zM275.001 402c-48 0 -86.333 -15.667 -115 -47s-43 -73 -43 -125
c0 -51.333 14.333 -92.666 43 -123.999s66.667 -47 114 -47c22.667 0 43.5 4.16699 62.5 12.5s35.5 20.166 49.5 35.499s24.833 33.333 32.5 54s11.5 43.667 11.5 69c0 26 -3.66699 49.5 -11 70.5s-17.833 39 -31.5 54s-30 26.667 -49 35s-40.167 12.5 -63.5 12.5z
M313.001 528h-54l-118 132h90z" />
    <glyph glyph-name="oacute" unicode="&#xf3;" horiz-adv-x="548" 
d="M275 472c34 0 65.334 -6 94.001 -18s53.167 -28.833 73.5 -50.5s36.333 -47.334 48 -77c11.667 -29.667 17.5 -62.167 17.5 -97.5c0 -34 -6.16699 -65.5 -18.5 -94.5s-29 -54.333 -50 -76s-46 -38.667 -75 -51s-59.833 -18.5 -92.5 -18.5c-34 0 -65.333 6 -94 18
s-53.334 28.667 -74.001 50s-36.667 46.833 -48 76.5s-17 62.167 -17 97.5c0 36 5.66699 68.667 17 98c11.333 29.334 27.5 54.667 48.5 76s45.833 37.833 74.5 49.5s60.667 17.5 96 17.5zM275.001 402c-48 0 -86.333 -15.667 -115 -47s-43 -73 -43 -125
c0 -51.333 14.333 -92.666 43 -123.999s66.667 -47 114 -47c22.667 0 43.5 4.16699 62.5 12.5s35.5 20.166 49.5 35.499s24.833 33.333 32.5 54s11.5 43.667 11.5 69c0 26 -3.66699 49.5 -11 70.5s-17.833 39 -31.5 54s-30 26.667 -49 35s-40.167 12.5 -63.5 12.5z
M406.001 660l-117 -132h-55l83 132h89z" />
    <glyph glyph-name="ocircumflex" unicode="&#xf4;" horiz-adv-x="548" 
d="M275 472c34 0 65.334 -6 94.001 -18s53.167 -28.833 73.5 -50.5s36.333 -47.334 48 -77c11.667 -29.667 17.5 -62.167 17.5 -97.5c0 -34 -6.16699 -65.5 -18.5 -94.5s-29 -54.333 -50 -76s-46 -38.667 -75 -51s-59.833 -18.5 -92.5 -18.5c-34 0 -65.333 6 -94 18
s-53.334 28.667 -74.001 50s-36.667 46.833 -48 76.5s-17 62.167 -17 97.5c0 36 5.66699 68.667 17 98c11.333 29.334 27.5 54.667 48.5 76s45.833 37.833 74.5 49.5s60.667 17.5 96 17.5zM275.001 402c-48 0 -86.333 -15.667 -115 -47s-43 -73 -43 -125
c0 -51.333 14.333 -92.666 43 -123.999s66.667 -47 114 -47c22.667 0 43.5 4.16699 62.5 12.5s35.5 20.166 49.5 35.499s24.833 33.333 32.5 54s11.5 43.667 11.5 69c0 26 -3.66699 49.5 -11 70.5s-17.833 39 -31.5 54s-30 26.667 -49 35s-40.167 12.5 -63.5 12.5z
M201.001 528h-66l104 133h72l101 -133h-66l-73 84z" />
    <glyph glyph-name="otilde" unicode="&#xf5;" horiz-adv-x="548" 
d="M275 472c34 0 65.334 -6 94.001 -18s53.167 -28.833 73.5 -50.5s36.333 -47.334 48 -77c11.667 -29.667 17.5 -62.167 17.5 -97.5c0 -34 -6.16699 -65.5 -18.5 -94.5s-29 -54.333 -50 -76s-46 -38.667 -75 -51s-59.833 -18.5 -92.5 -18.5c-34 0 -65.333 6 -94 18
s-53.334 28.667 -74.001 50s-36.667 46.833 -48 76.5s-17 62.167 -17 97.5c0 36 5.66699 68.667 17 98c11.333 29.334 27.5 54.667 48.5 76s45.833 37.833 74.5 49.5s60.667 17.5 96 17.5zM275.001 402c-48 0 -86.333 -15.667 -115 -47s-43 -73 -43 -125
c0 -51.333 14.333 -92.666 43 -123.999s66.667 -47 114 -47c22.667 0 43.5 4.16699 62.5 12.5s35.5 20.166 49.5 35.499s24.833 33.333 32.5 54s11.5 43.667 11.5 69c0 26 -3.66699 49.5 -11 70.5s-17.833 39 -31.5 54s-30 26.667 -49 35s-40.167 12.5 -63.5 12.5z
M436.001 622c-15.333 -30 -30.168 -51.5 -44.501 -64.5s-31.166 -19.5 -50.499 -19.5c-10 0 -20.667 2.33301 -32 7c-11.333 4.6709 -29 14.3379 -53 29c-8 5.33301 -14.333 8.83301 -19 10.5s-9.33398 2.5 -14.001 2.5c-10 0 -18.667 -3.16699 -26 -9.5
s-14.333 -16.833 -21 -31.5l-51 23c14 27.333 28.5 47.166 43.5 59.499s32.167 18.5 51.5 18.5c12 0 24.5 -2.66699 37.5 -8c13 -5.33789 31.167 -15.6709 54.5 -30.999c6 -4 10.833 -6.66699 14.5 -8s7.83398 -2 12.501 -2c19.334 0 34.667 14 46 42z" />
    <glyph glyph-name="odieresis" unicode="&#xf6;" horiz-adv-x="548" 
d="M275 472c34 0 65.334 -6 94.001 -18s53.167 -28.833 73.5 -50.5s36.333 -47.334 48 -77c11.667 -29.667 17.5 -62.167 17.5 -97.5c0 -34 -6 -65.5 -18 -94.5s-28.667 -54.333 -50 -76s-46.333 -38.667 -75 -51s-59.667 -18.5 -93 -18.5c-34 0 -65.333 6 -94 18
s-53.334 28.667 -74.001 50s-36.667 46.833 -48 76.5s-17 62.167 -17 97.5c0 36 5.66699 68.667 17 98c11.333 29.334 27.5 54.667 48.5 76s45.833 37.833 74.5 49.5s60.667 17.5 96 17.5zM275.001 402c-48 0 -86.333 -15.667 -115 -47s-43 -73 -43 -125
c0 -51.333 14.333 -92.666 43 -123.999s66.667 -47 114 -47c22.667 0 43.5 4.16699 62.5 12.5s35.5 20.166 49.5 35.499s24.833 33.333 32.5 54s11.5 43.667 11.5 69c0 26 -3.66699 49.5 -11 70.5s-17.833 39 -31.5 54s-30 26.667 -49 35s-40.167 12.5 -63.5 12.5z
M174.001 640c13.333 0 24.5 -4.5 33.5 -13.5s13.5 -20.5 13.5 -34.5c0 -13.333 -4.5 -24.333 -13.5 -33s-20.167 -13 -33.5 -13s-24.5 4.5 -33.5 13.5s-13.5 20.167 -13.5 33.5s4.5 24.5 13.5 33.5s20.167 13.5 33.5 13.5zM373.001 640c13.333 0 24.5 -4.5 33.5 -13.5
s13.5 -20.5 13.5 -34.5c0 -13.333 -4.5 -24.333 -13.5 -33s-20.167 -13 -33.5 -13s-24.5 4.5 -33.5 13.5s-13.5 20.167 -13.5 33.5s4.5 24.5 13.5 33.5s20.167 13.5 33.5 13.5z" />
    <glyph glyph-name="divide" unicode="&#xf7;" 
d="M478 364v-44h-456v44h456zM251 565c10.667 0 19.833 -3.83301 27.5 -11.5s11.5 -17.167 11.5 -28.5c0 -11.335 -3.83301 -20.835 -11.5 -28.5c-7.66699 -7.66699 -17.167 -11.5 -28.5 -11.5s-20.833 3.83301 -28.5 11.5s-11.5 17.167 -11.5 28.5s4 20.833 12 28.5
s17.667 11.5 29 11.5zM249.999 198c11.333 0 20.833 -3.83301 28.5 -11.5s11.5 -17.167 11.5 -28.5s-3.83301 -20.833 -11.5 -28.5s-17.167 -11.5 -28.5 -11.5s-20.833 3.83301 -28.5 11.5s-11.5 17.167 -11.5 28.5s3.83301 20.833 11.5 28.5s17.167 11.5 28.5 11.5z" />
    <glyph glyph-name="oslash" unicode="&#xf8;" horiz-adv-x="548" 
d="M66 -13l-28 26.999l54 56c-19.333 26 -33 51.167 -41 75.5s-12 52.5 -12 84.5c0 35.333 5.66699 67.833 17 97.5s27.333 55.167 48 76.5s45.167 38 73.5 50s59.5 18 93.5 18c57.334 0 108.667 -17.333 154 -52l60 63l27 -27l-60 -62
c20.667 -27.333 35.167 -53.166 43.5 -77.499s12.5 -52.5 12.5 -84.5c0 -35.333 -5.83301 -68 -17.5 -98s-28 -55.667 -49 -77s-46.167 -38 -75.5 -50s-61.333 -18 -96 -18c-56.667 0 -107 18 -151 54zM172 96.999c30.667 -25.333 65 -38 103 -38
c22.667 0 43.5 4.33301 62.5 13s35.5 20.667 49.5 36s24.833 33.5 32.5 54.5s11.5 44.167 11.5 69.5c0 21.333 -2.33301 39.833 -7 55.5s-13 33.167 -25 52.5zM372 366.999c-29.333 23.333 -62.667 34.999 -100 34.999c-23.333 0 -44.666 -4.16699 -63.999 -12.5
s-35.833 -20 -49.5 -35s-24.334 -33.167 -32.001 -54.5s-11.5 -44.666 -11.5 -69.999c0 -21.333 2.33301 -39.833 7 -55.5s12.667 -32.167 24 -49.5z" />
    <glyph glyph-name="ugrave" unicode="&#xf9;" horiz-adv-x="485" 
d="M421 461v-295.001c0 -32 -3.33301 -57.667 -10 -77s-18.667 -36.666 -36 -51.999s-37.5 -27.166 -60.5 -35.499s-47.167 -12.5 -72.5 -12.5c-26 0 -50.5 4.33301 -73.5 13s-42.833 20.667 -59.5 36c-30.667 30 -46 72.667 -46 128v295h76v-293
c0 -32.667 9.5 -59.334 28.5 -80.001s43.833 -31 74.5 -31c16 0 31.167 3 45.5 9c14.335 6 26.168 14.667 35.5 26c7.33594 9.33301 12.6689 19.5 16 30.5c3.33301 11 5 25.5 5 43.5v295h77zM282 527.999h-55l-118 132h90z" />
    <glyph glyph-name="uacute" unicode="&#xfa;" horiz-adv-x="485" 
d="M421 461v-295.001c0 -32 -3.33301 -57.667 -10 -77s-18.667 -36.666 -36 -51.999s-37.5 -27.166 -60.5 -35.499s-47.167 -12.5 -72.5 -12.5c-26 0 -50.5 4.33301 -73.5 13s-42.833 20.667 -59.5 36c-30.667 30 -46 72.667 -46 128v295h76v-293
c0 -32.667 9.5 -59.334 28.5 -80.001s43.833 -31 74.5 -31c16 0 31.167 3 45.5 9c14.335 6 26.168 14.667 35.5 26c7.33594 9.33301 12.6689 19.5 16 30.5c3.33301 11 5 25.5 5 43.5v295h77zM375 659.999l-118 -132h-54l82 132h90z" />
    <glyph glyph-name="ucircumflex" unicode="&#xfb;" horiz-adv-x="485" 
d="M421 461v-295.001c0 -32 -3.33301 -57.667 -10 -77s-18.667 -36.666 -36 -51.999s-37.5 -27.166 -60.5 -35.499s-47.167 -12.5 -72.5 -12.5c-26 0 -50.5 4.33301 -73.5 13s-42.833 20.667 -59.5 36c-30.667 30 -46 72.667 -46 128v295h76v-293
c0 -32.667 9.5 -59.334 28.5 -80.001s43.833 -31 74.5 -31c16 0 31.167 3 45.5 9c14.335 6 26.168 14.667 35.5 26c7.33594 9.33301 12.6689 19.5 16 30.5c3.33301 11 5 25.5 5 43.5v295h77zM169 527.999h-65l103 133h72l102 -133h-66l-73 84z" />
    <glyph glyph-name="udieresis" unicode="&#xfc;" horiz-adv-x="485" 
d="M421 461v-295.003c0 -32 -3.33301 -57.667 -10 -77s-18.667 -36.666 -36 -51.999s-37.5 -27.166 -60.5 -35.499s-47.167 -12.5 -72.5 -12.5c-26 0 -50.5 4.33301 -73.5 13s-42.833 20.667 -59.5 36c-30.667 30 -46 72.667 -46 128v295h76v-293
c0 -33.333 9.5 -60.166 28.5 -80.499s43.833 -30.5 74.5 -30.5c16 0 31.167 3 45.5 9c14.335 6 26.168 14.667 35.5 26c7.33594 9.33301 12.6689 19.5 16 30.5c3.33301 11 5 25.5 5 43.5v295h77zM142 639.997c13.333 0 24.5 -4.5 33.5 -13.5s13.5 -20.5 13.5 -34.5
c0 -13.333 -4.5 -24.333 -13.5 -33s-20.167 -13 -33.5 -13s-24.5 4.5 -33.5 13.5s-13.5 20.167 -13.5 33.5s4.5 24.5 13.5 33.5s20.167 13.5 33.5 13.5zM342 639.997c13.333 0 24.5 -4.5 33.5 -13.5s13.5 -20.5 13.5 -34.5c0 -13.333 -4.5 -24.333 -13.5 -33
s-20.167 -13 -33.5 -13s-24.5 4.5 -33.5 13.5s-13.5 20.167 -13.5 33.5s4.5 24.5 13.5 33.5s20.167 13.5 33.5 13.5z" />
    <glyph glyph-name="yacute" unicode="&#xfd;" horiz-adv-x="438" 
d="M349 461h83l-275 -683h-83l96 236l-164 447h81l124 -342zM352 660l-118 -132h-55l83 132h90z" />
    <glyph glyph-name="thorn" unicode="&#xfe;" horiz-adv-x="574" 
d="M150 667l-0.000976562 -290.002c22 34 45.833 58.333 71.5 73s57.834 22 96.501 22c32 0 61.333 -5.83301 88 -17.5s49.5 -28 68.5 -49s33.833 -46.167 44.5 -75.5s16 -61.333 16 -96c0 -36 -5.33301 -69.167 -16 -99.5s-25.5 -56.166 -44.5 -77.499
s-41.833 -38 -68.5 -50s-56 -18 -88 -18c-35.333 0 -69 8 -101 24c-14 7.33301 -25.5 14.833 -34.5 22.5s-19.833 19.834 -32.5 36.501v-288h-76v883h76zM304.999 403.998c-23.333 0 -44.502 -4.33301 -63.502 -13s-35.167 -21 -48.5 -37s-23.833 -35.167 -31.5 -57.5
s-11.5 -46.833 -11.5 -73.5c0 -25.333 3.66699 -48.333 11 -69s17.666 -38.334 30.999 -53.001s29.333 -26 48 -34s39.334 -12 62.001 -12s43.334 4.16699 62.001 12.5s34.667 20.333 48 36c13.335 15.667 23.668 34.334 31 56.001c7.33301 21.667 11 45.5 11 71.5
c0 54 -13.333 95.667 -40 125c-13.333 15.334 -29.666 27.167 -48.999 35.5s-39.333 12.5 -60 12.5z" />
    <glyph glyph-name="ydieresis" unicode="&#xff;" horiz-adv-x="438" 
d="M349 461h83l-275 -683h-83l96 236l-164 447h81l124 -342zM119 640c13.333 0 24.5 -4.5 33.5 -13.5s13.5 -20.5 13.5 -34.5c0 -13.333 -4.5 -24.333 -13.5 -33s-20.167 -13 -33.5 -13s-24.5 4.5 -33.5 13.5s-13.5 20.167 -13.5 33.5s4.5 24.5 13.5 33.5
s20.167 13.5 33.5 13.5zM319 640c13.333 0 24.5 -4.5 33.5 -13.5s13.5 -20.5 13.5 -34.5c0 -13.333 -4.5 -24.333 -13.5 -33s-20.167 -13 -33.5 -13s-24.5 4.5 -33.5 13.5s-13.5 20.167 -13.5 33.5s4.5 24.5 13.5 33.5s20.167 13.5 33.5 13.5z" />
    <glyph glyph-name="dotlessi" unicode="&#x131;" horiz-adv-x="229" 
d="M152 0h-76v461h76v-461z" />
    <glyph glyph-name="OE" unicode="&#x152;" horiz-adv-x="998" 
d="M689 72l258.998 0.000976562v-72h-342v115c-7.33789 -10.667 -14.1709 -19.834 -20.5 -27.501c-6.33301 -7.66699 -12.5 -14.667 -18.5 -21s-12.5 -12 -19.5 -17s-14.833 -10.167 -23.5 -15.5c-48.667 -30.667 -101.667 -46 -159 -46c-43.333 0 -85 8.5 -125 25.5
s-75 41.5 -105 73.5c-28 30 -49.833 66.833 -65.5 110.5s-23.5 90.167 -23.5 139.5c0 50 8 96 24 138s38.5 78 67.5 108s63.333 53.5 103 70.5s83.167 25.5 130.5 25.5c50.667 0 94.834 -9.5 132.501 -28.5c37.668 -19 71.835 -49.167 102.501 -90.5v107h342v-72h-259v-223
h259v-72h-259v-228zM373.998 601.001c-36 0 -68.832 -6.5 -98.499 -19.5s-55.167 -31.167 -76.5 -54.5s-37.833 -51.333 -49.5 -84s-17.5 -68.667 -17.5 -108c0 -38.667 6 -74.5 18 -107.5s28.5 -61.5 49.5 -85.5s46 -42.667 75 -56s60.5 -20 94.5 -20
s66.667 7.16699 98 21.5s58 34.5 80 60.5c18.667 21.333 33.5 48.333 44.5 81s16.5 66 16.5 100c0 40.667 -5.5 77.667 -16.5 111s-26.833 62 -47.5 86s-45.334 42.5 -74.001 55.5s-60.667 19.5 -96 19.5z" />
    <glyph glyph-name="oe" unicode="&#x153;" horiz-adv-x="923" 
d="M871 113c-5.33301 -9.33301 -10.3291 -17.666 -14.9961 -24.999s-9.33398 -13.833 -14.001 -19.5s-9.66699 -11 -15 -16s-11.333 -9.83301 -18 -14.5c-20.667 -15.333 -43.334 -27.333 -68.001 -36s-49.667 -13 -75 -13c-24.667 0 -49.334 4 -74.001 12
s-47 19.667 -67 35c-13.333 8.66699 -23.833 18.167 -31.5 28.5s-16.167 25.5 -25.5 45.5c-9.33301 -20 -18.166 -35.167 -26.499 -45.5s-19.833 -20.833 -34.5 -31.5c-40.667 -29.333 -86 -44 -136 -44c-34 0 -65.167 6 -93.5 18s-52.666 28.5 -72.999 49.5
s-36.333 46.167 -48 75.5s-17.5 61.666 -17.5 96.999c0 36 5.66699 68.833 17 98.5s27.333 55.167 48 76.5s45.334 38 74.001 50s60 18 94 18c51.333 0 96.666 -14 135.999 -42c14 -10 25.167 -20 33.5 -30c8.33496 -10 17.168 -24.333 26.5 -43
c11.335 20.667 21.668 36.167 30.999 46.5c9.33301 10.333 21.666 20.5 36.999 30.5c38.668 25.333 81.335 38 128 38c28 0 54.5 -4.5 79.5 -13.5s47.167 -21.667 66.5 -38s35.833 -36.166 49.5 -59.499s23.167 -49 28.5 -77c2 -11.333 3.33301 -22.166 4 -32.499
s1 -25.833 1 -46.5h-385c2.00781 -21.333 5.34082 -38.333 10 -51c4.6709 -12.667 12.3379 -25.334 23.001 -38.001c15.333 -17.333 33.833 -31.166 55.5 -41.499s44.167 -15.5 67.5 -15.5c16.667 0 34.167 2.66699 52.5 8s34.166 12.666 47.499 21.999
c8.66699 5.33398 16.167 11.667 22.5 19s14.166 17.666 23.499 30.999zM818.004 261c-2.66699 19.333 -5.83203 34.667 -9.49902 46c-3.66699 11.335 -9.5 22.668 -17.5 34c-14 20 -32.333 35.5 -55 46.5s-47.334 16.5 -74.001 16.5c-49.333 0 -89 -18.333 -119 -55
c-11.333 -13.333 -19.333 -26 -24 -38s-8.66699 -28.667 -12 -50h311zM275.006 402.001c-23.333 0 -44.667 -4.16895 -64 -12.502s-36 -20 -50 -35s-24.833 -33 -32.5 -54s-11.5 -43.833 -11.5 -68.5c0 -25.333 3.83301 -48.666 11.5 -69.999s18.5 -39.666 32.5 -54.999
s30.833 -27.166 50.5 -35.499s41.167 -12.5 64.5 -12.5c22.667 0 43.667 4.33301 63 13s36 20.5 50 35.5s24.833 32.833 32.5 53.5s11.5 43 11.5 67c0 25.333 -4 48.666 -12 69.999c-8 21.334 -19 39.667 -33 55s-30.667 27.333 -50 36s-40.333 13 -63 13z" />
    <glyph glyph-name="Scaron" unicode="&#x160;" horiz-adv-x="490" 
d="M118 179c4 -77.333 43.3301 -115.998 117.997 -115.998c38 0 68.833 10.333 92.5 31s35.5 48 35.5 82c0 14.667 -2.16699 27.5 -6.5 38.5s-11.666 21 -21.999 30s-24.166 17.667 -41.499 26s-39 16.833 -65 25.5c-20 6.66699 -36.833 12.667 -50.5 18
s-25.5 10.5 -35.5 15.5s-18.833 10.167 -26.5 15.5s-15.167 11.333 -22.5 18c-34.667 31.333 -52 73.333 -52 126c0 28 4.83301 53.667 14.5 77s23.167 43.333 40.5 60s38.333 29.667 63 39s51.667 14 81 14s56 -4.5 80 -13.5s44.667 -21.833 62 -38.5
s30.833 -36.834 40.5 -60.501s14.834 -49.834 15.501 -78.501h-84c-0.666992 17.335 -2.16699 30.835 -4.5 40.5c-2.33301 9.66699 -6.16602 19.167 -11.499 28.5c-9.33301 14.667 -22.833 26.167 -40.5 34.5s-37.167 12.5 -58.5 12.5c-33.333 0 -60.5 -10.167 -81.5 -30.5
s-31.5 -46.5 -31.5 -78.5c0 -33.333 12.667 -59 38 -77c5.33301 -4 10.666 -7.5 15.999 -10.5s12 -6.16699 20 -9.5s17.5 -7.16602 28.5 -11.499s25.167 -9.5 42.5 -15.5c35.333 -12.667 62.833 -24.167 82.5 -34.5s36.167 -22.833 49.5 -37.5c30 -32 45 -71.333 45 -118
c0 -28.667 -5 -54.834 -15 -78.501s-24.333 -44 -43 -61s-40.834 -30.167 -66.5 -39.5c-25.667 -9.33301 -54.167 -14 -85.5 -14c-84 0 -143.333 30 -178 90c-15.333 26 -23 55 -23 87v14h80zM319.997 852.002h67l-109 -133h-70l-103 133h65l75 -83z" />
    <glyph glyph-name="scaron" unicode="&#x161;" horiz-adv-x="411" 
d="M289 335v5c0 21.333 -8 38.333 -24 51s-37.333 19 -64 19c-25.333 0 -45.5 -6 -60.5 -18s-22.5 -28 -22.5 -48c0 -10 1.5 -18.667 4.5 -26s8.33301 -13.833 15.999 -19.5c7.66699 -5.66699 18.167 -11 31.5 -16s30.333 -10.5 51 -16.5c30 -8 53.333 -16 70 -24
s30.667 -17.667 42 -29s20.333 -24.833 27 -40.5s10 -32.167 10 -49.5c0 -20 -4 -38.167 -12 -54.5s-19.167 -30.5 -33.5 -42.5s-31.5 -21.167 -51.5 -27.5s-42.333 -9.5 -67 -9.5c-106.667 0 -164 47.333 -172 142h75c5.33301 -53.333 37.666 -80 96.999 -80
c26 0 46.833 6.16699 62.5 18.5s23.5 28.833 23.5 49.5c0 20 -7.66699 35.833 -23 47.5s-42.666 22.5 -81.999 32.5c-50 13.333 -86.667 31 -110 53s-35 50.667 -35 86c0 40 14.833 72.333 44.5 97s68.834 37 117.501 37c49.333 0 88 -11.833 116 -35.5s43 -57.5 45 -101.5
h-76zM279 661h65l-104 -133h-72l-101 133h66l73 -84z" />
    <glyph glyph-name="Ydieresis" unicode="&#x178;" horiz-adv-x="529" 
d="M308 0h-84v294l-230 373h99l172 -286l170 286h100l-227 -373v-294zM162 838c14.667 0 26.835 -5.00195 36.501 -15.002c9.66699 -10 14.5 -22.333 14.5 -37c0 -14 -5 -25.833 -15 -35.5s-22 -14.5 -36 -14.5c-14.667 0 -26.834 4.83301 -36.501 14.5
s-14.5 21.834 -14.5 36.501c0 14.6699 4.83301 26.8369 14.5 36.501c9.66699 9.66699 21.834 14.5 36.5 14.5zM367.001 837.998c14.667 0 26.832 -5.00195 36.499 -15.002s14.5 -22.333 14.5 -37c0 -14 -5 -25.833 -15 -35.5s-22 -14.5 -36 -14.5
c-14.668 0 -26.835 4.83301 -36.5 14.5c-9.66699 9.66699 -14.5 21.834 -14.5 36.501c0 14.6699 4.83301 26.8369 14.5 36.501c9.66699 9.66699 21.834 14.5 36.501 14.5z" />
    <glyph glyph-name="Zcaron" unicode="&#x17d;" horiz-adv-x="539" 
d="M490 72v-72h-477l378 595h-336v72h474l-377 -595h338zM344 852h66l-109 -133h-69l-104 133h65l75 -83z" />
    <glyph glyph-name="zcaron" unicode="&#x17e;" horiz-adv-x="401" 
d="M362 67v-67h-340l240 394h-214v67h339l-237 -394h212zM274 661h65l-103 -133h-72l-102 133h66l73 -84z" />
    <glyph glyph-name="florin" unicode="&#x192;" 
d="M170 412l8 49h63l22 121c8 46 25.333 81.5 52 106.5s60.667 37.5 102 37.5h8.5c3 0 6.5 -0.333008 10.5 -1l-12 -68c-14 -1.33301 -25.833 -3.5 -35.5 -6.5s-17.667 -7.33301 -24 -13s-11.5 -13 -15.5 -22s-7.33301 -20.167 -10 -33.5l-21 -121h71l-8 -49h-72l-65 -369
c-8.66699 -56 -28.667 -99 -60 -129s-72.333 -45.667 -123 -47l13 71c24 2 44 11.833 60 29.5s27 42.5 33 74.5l66 370h-63z" />
    <glyph glyph-name="circumflex" unicode="&#x2c6;" 
d="M177 528h-65l104 133h72l101 -133h-66l-73 84z" />
    <glyph glyph-name="tilde" unicode="&#x2dc;" 
d="M412 622c-15.333 -30 -30.166 -51.5 -44.499 -64.5s-30.833 -19.5 -49.5 -19.5c-10.667 0 -21.667 2.33301 -33 7c-11.333 4.6709 -29 14.3379 -53 29c-8 5.33301 -14.333 8.83301 -19 10.5s-9.33398 2.5 -14.001 2.5c-10 0 -18.667 -3.16699 -26 -9.5
s-14.333 -16.833 -21 -31.5l-51 23c14 27.333 28.5 47.166 43.5 59.499s32.167 18.5 51.5 18.5c12.667 0 25.5 -2.66699 38.5 -8c13 -5.33789 31.167 -15.6709 54.5 -30.999c6 -4 10.667 -6.66699 14 -8s7.33301 -2 12 -2c19.333 0 35 14 47 42z" />
    <glyph glyph-name="endash" unicode="&#x2013;" 
d="M430 207h-359v67h359v-67z" />
    <glyph glyph-name="emdash" unicode="&#x2014;" horiz-adv-x="622" 
d="M622 210h-622v64h622v-64z" />
    <glyph glyph-name="quoteleft" unicode="&#x2018;" horiz-adv-x="221" 
d="M130 680l56 -19l-81 -209l-66 25z" />
    <glyph glyph-name="quoteright" unicode="&#x2019;" horiz-adv-x="221" 
d="M91 452l-55 19l81 209l66 -24z" />
    <glyph glyph-name="quotesinglbase" unicode="&#x201a;" horiz-adv-x="223" 
d="M92 -133l-56 20l82 214l67 -25z" />
    <glyph glyph-name="quotedblleft" unicode="&#x201c;" horiz-adv-x="403" 
d="M314 680l56 -20l-87 -238l-69 24zM139 680l56 -20l-87 -239l-69 25z" />
    <glyph glyph-name="quotedblright" unicode="&#x201d;" horiz-adv-x="403" 
d="M88 421l-55 20l86 239l70 -24zM263 421l-56 20l87 239l70 -24z" />
    <glyph glyph-name="quotedblbase" unicode="&#x201e;" horiz-adv-x="403" 
d="M88 -158l-55 20l86 238l70 -23zM263 -158l-56 20l87 239l70 -24z" />
    <glyph glyph-name="dagger" unicode="&#x2020;" 
d="M284 667v-177h147v-60h-147v-641h-67v641h-147v60h147v177h67z" />
    <glyph glyph-name="daggerdbl" unicode="&#x2021;" 
d="M284 667v-179h147v-60h-147v-398h147v-60h-147v-181h-67v181h-147v60h147v398h-147v60h147v179h67z" />
    <glyph glyph-name="bullet" unicode="&#x2022;" horiz-adv-x="667" 
d="M337 477c18.667 0 36.167 -3.66699 52.5 -11c16.334 -7.33301 30.667 -17.333 43 -30c12.335 -12.667 22.168 -27.334 29.5 -44c7.33301 -16.667 11 -34.334 11 -53c0 -19.333 -3.66699 -37.5 -11 -54.5s-17.166 -31.667 -29.499 -44s-27 -22.166 -44 -29.499
s-34.833 -11 -53.5 -11c-19.333 0 -37.333 3.66699 -54 11s-31.334 17.166 -44.001 29.499s-22.667 26.833 -30 43.5s-11 34.667 -11 54s3.66699 37.5 11 54.5s17.333 31.667 30 44c12.667 12.335 27.5 22.168 44.5 29.5c17 7.33301 35.5 11 55.5 11z" />
    <glyph glyph-name="ellipsis" unicode="&#x2026;" horiz-adv-x="692" 
d="M115 96c15.333 0 27.833 -4.99902 37.5 -14.999s14.5 -22.667 14.5 -38c0 -14.667 -5 -26.834 -15 -36.501s-22.333 -14.5 -37 -14.5c-15.333 0 -27.833 4.83301 -37.5 14.5s-14.5 22.167 -14.5 37.5s4.83301 27.833 14.5 37.5s22.167 14.5 37.5 14.5zM346 96.001
c15.333 0 27.833 -4.99902 37.5 -14.999s14.5 -22.667 14.5 -38c0 -14.667 -5 -26.834 -15 -36.501s-22.333 -14.5 -37 -14.5c-15.333 0 -27.833 4.83301 -37.5 14.5s-14.5 22.167 -14.5 37.5s4.83301 27.833 14.5 37.5s22.167 14.5 37.5 14.5zM576 96.002
c15.333 0 27.833 -4.99902 37.5 -14.999s14.5 -22.667 14.5 -38c0 -14.667 -5 -26.834 -15 -36.501s-22.333 -14.5 -37 -14.5c-15.333 0 -27.833 4.83301 -37.5 14.5s-14.5 22.167 -14.5 37.5s4.83301 27.833 14.5 37.5s22.167 14.5 37.5 14.5z" />
    <glyph glyph-name="perthousand" unicode="&#x2030;" horiz-adv-x="897" 
d="M255 440c0 -74 -34.666 -110.998 -103.999 -110.998c-17.333 0 -32.833 2.66699 -46.5 8s-25.167 13.333 -34.5 24c-9.33301 9.33301 -15.333 19.5 -18 30.5s-4 28.833 -4 53.5v102c0 24.667 1.83301 44 5.5 58s10.167 25.667 19.5 35s20.833 16.666 34.5 21.999
s28.5 8 44.5 8c29.333 0 54.666 -9 75.999 -27c5.33301 -5.34277 9.83301 -10.6758 13.5 -15.999c3.66699 -5.33301 6.5 -11.333 8.5 -18s3.33301 -14.834 4 -24.501s1 -21.834 1 -36.501v-108zM97.001 454.002c0 -20 0.5 -33.167 1.5 -39.5s3.5 -12.5 7.5 -18.5
c10 -14 25.333 -21 46 -21c22.667 0 38.334 8 47 24c3.33301 5.33301 5.5 11.5 6.5 18.5s1.5 18.167 1.5 33.5v103c0 46 -18 69 -54 69c-21.333 0 -36.333 -6 -45 -18c-5.33301 -6 -8.5 -12.5 -9.5 -19.5s-1.5 -20.167 -1.5 -39.5v-92zM570.001 107.002
c0 -73.333 -34.668 -109.998 -104.001 -109.998c-35.333 0 -62.666 10.667 -81.999 32c-4 4.66699 -7.5 9.33398 -10.5 14.001s-5.16699 10 -6.5 16s-2.33301 13.333 -3 22s-1 19 -1 31v102c0 25.333 1.83301 44.666 5.5 57.999s10.167 25 19.5 35
c9.33301 9.33301 20.833 16.666 34.5 21.999s28.5 8 44.5 8c30.667 0 56 -9 76 -27c6 -5.33301 10.667 -10.666 14 -15.999s6 -11.333 8 -18c2 -6.66797 3.33301 -14.835 4 -24.501c0.666992 -9.66699 1 -21.834 1 -36.501v-108zM412 121.004c0 -20 0.5 -33 1.5 -39
s3.5 -12 7.5 -18c10 -14 25.333 -21 46 -21c22.667 0 38.334 8 47.001 24c3.33301 5.33301 5.5 11.333 6.5 18s1.5 17.667 1.5 33v103c0 24 -4.33301 41.5 -13 52.5c-8.66797 11 -22.335 16.5 -41.001 16.5c-21.333 0 -36.333 -6 -45 -18c-5.33301 -6 -8.5 -12.5 -9.5 -19.5
s-1.5 -20.167 -1.5 -39.5v-92zM97 -7.99609l-33 23l457 660l33 -22zM849 107.004c0 -73.333 -34.667 -109.998 -104 -109.998c-35.3359 0 -62.6689 10.667 -82 32c-4 4.66699 -7.5 9.33398 -10.5 14.001s-5.16699 10 -6.5 16s-2.33301 13.333 -3 22s-1 19 -1 31v102
c0 25.333 1.83301 44.666 5.5 57.999s10.167 25 19.5 35c9.33301 9.33301 20.833 16.666 34.5 21.999s28.5 8 44.5 8c30.667 0 56 -9 76 -27c6 -5.33301 10.667 -10.666 14 -15.999s6 -11.333 8 -18c2 -6.66797 3.33301 -14.835 4 -24.501
c0.666992 -9.66699 1 -21.834 1 -36.501v-108zM691 121.006c0 -10 0.168945 -18.165 0.501953 -24.498s0.666016 -11.333 0.999023 -15s1.16602 -6.83398 2.49902 -9.50098s3 -5.33398 5 -8.00098c10 -14 25.333 -21 46 -21c22.6699 0 38.3369 8 47.001 24
c3.33301 5.33301 5.5 11.333 6.5 18s1.5 17.667 1.5 33v103c0 24 -4.33301 41.5 -13 52.5s-22.334 16.5 -41.001 16.5c-21.333 0 -36.333 -6 -45 -18c-5.33301 -6 -8.5 -12.5 -9.5 -19.5s-1.5 -20.167 -1.5 -39.5v-92z" />
    <glyph glyph-name="guilsinglleft" unicode="&#x2039;" horiz-adv-x="254" 
d="M204 71h-60l-101 164l101 171h60l-102 -171z" />
    <glyph glyph-name="guilsinglright" unicode="&#x203a;" horiz-adv-x="254" 
d="M50 406h60l101 -164l-101 -171h-60l101 171z" />
    <glyph glyph-name="Euro" unicode="&#x20ac;" 
d="M69 428c3.33301 13.333 6.32812 25.498 8.99512 36.498s6 22.167 10 33.5c8.66699 26.667 20.834 51.167 36.501 73.5s33.334 41.5 53.001 57.5s40.834 28.333 63.501 37s46 13 70 13c32 0 63.667 -7.83301 95 -23.5s59 -37.5 83 -65.5l-36 -83
c-17.333 30 -38.5 53.167 -63.5 69.5s-51.5 24.5 -79.5 24.5c-36 0 -67.667 -15.333 -95 -46s-47 -73 -59 -127h258l-29 -69h-237c-0.666992 -3.33301 -1 -6.16602 -1 -8.49902v-10.5c0 -6.66699 0.166992 -13.167 0.5 -19.5s0.833008 -13.5 1.5 -21.5h216l-29 -69h-176
c5.33301 -24 13 -46.167 23 -66.5s21.833 -37.666 35.5 -51.999s28.334 -25.5 44.001 -33.5s32.167 -12 49.5 -12c28.667 0 55.5 8 80.5 24s46.167 38.333 63.5 67v-110c-19.333 -18 -42.333 -32.333 -69 -43s-52.334 -16 -77 -16c-28 0 -54.833 5.83301 -80.5 17.5
s-49 28.167 -70 49.5s-39.167 46.833 -54.5 76.5s-26.666 62.5 -33.999 98.5h-64l29 69h26c-0.666992 7.33301 -1 13.5 -1 18.5v17.5v11c0 4 0.333008 8.33301 1 13h-55l29 69h33z" />
    <glyph glyph-name="trademark" unicode="&#x2122;" horiz-adv-x="828" 
d="M177 267h-60v351h-105v49h270v-49h-105v-351zM412 267h-60v400h58l151 -290l151 290h58v-400h-60v275l-149 -284l-149 284v-275z" />
    <glyph glyph-name=".null" horiz-adv-x="0" 
 />
    <glyph glyph-name="nonmarkingreturn" horiz-adv-x="333" 
 />
    </font>
</defs>
</svg>
